<?xml version="1.0" encoding="us-ascii" standalone="no"?><svg xmlns="http://www.w3.org/2000/svg" xmlns:xlink="http://www.w3.org/1999/xlink" contentStyleType="text/css" height="1311px" preserveAspectRatio="none" style="width:2371px;height:1311px;background:#FFFFFF;" version="1.1" viewBox="0 0 2371 1311" width="2371px" zoomAndPan="magnify"><defs/><g><text fill="#000000" font-family="sans-serif" font-size="14" font-weight="bold" lengthAdjust="spacing" textLength="226" x="1071.75" y="27.9951">US 006: Comment on a post</text><rect fill="#FFFFFF" height="1017.4141" style="stroke:#181818;stroke-width:1.0;" width="10" x="605.5" y="195.125"/><rect fill="#FFFFFF" height="997.2813" style="stroke:#181818;stroke-width:1.0;" width="10" x="853.5" y="224.2578"/><rect fill="#FFFFFF" height="922.0156" style="stroke:#181818;stroke-width:1.0;" width="10" x="858.5" y="261.3906"/><rect fill="#FFFFFF" height="817.4531" style="stroke:#181818;stroke-width:1.0;" width="10" x="1168" y="336.8203"/><rect fill="#FFFFFF" height="29.1328" style="stroke:#181818;stroke-width:1.0;" width="10" x="1395" y="365.9531"/><rect fill="#FFFFFF" height="29.1328" style="stroke:#181818;stroke-width:1.0;" width="10" x="1477.5" y="424.2188"/><rect fill="#FFFFFF" height="29.1328" style="stroke:#181818;stroke-width:1.0;" width="10" x="1477.5" y="540.75"/><rect fill="#FFFFFF" height="29.1328" style="stroke:#181818;stroke-width:1.0;" width="10" x="1477.5" y="745.5469"/><rect fill="#FFFFFF" height="29.1328" style="stroke:#181818;stroke-width:1.0;" width="10" x="1477.5" y="978.6094"/><rect fill="#FFFFFF" height="29.1328" style="stroke:#181818;stroke-width:1.0;" width="10" x="1564" y="482.4844"/><rect fill="#FFFFFF" height="59.1328" style="stroke:#181818;stroke-width:1.0;" width="10" x="1564" y="599.0156"/><rect fill="#FFFFFF" height="30" style="stroke:#181818;stroke-width:1.0;" width="10" x="1564" y="1095.1406"/><rect fill="#FFFFFF" height="117.3984" style="stroke:#181818;stroke-width:1.0;" width="10" x="1716" y="511.6172"/><rect fill="#FFFFFF" height="145.6641" style="stroke:#181818;stroke-width:1.0;" width="10" x="1825" y="687.2813"/><rect fill="#FFFFFF" height="87.3984" style="stroke:#181818;stroke-width:1.0;" width="10" x="1977" y="716.4141"/><rect fill="#FFFFFF" height="29.1328" style="stroke:#181818;stroke-width:1.0;" width="10" x="2103.5" y="862.0781"/><rect fill="#FFFFFF" height="29.1328" style="stroke:#181818;stroke-width:1.0;" width="10" x="2221" y="920.3438"/><rect fill="#FFFFFF" height="29.1328" style="stroke:#181818;stroke-width:1.0;" width="10" x="2318.5" y="1036.875"/><line style="stroke:#181818;stroke-width:0.5;stroke-dasharray:5.0,5.0;" x1="23" x2="23" y1="118.5938" y2="1230.5391"/><line style="stroke:#181818;stroke-width:0.5;stroke-dasharray:5.0,5.0;" x1="610" x2="610" y1="118.5938" y2="1230.5391"/><line style="stroke:#181818;stroke-width:0.5;stroke-dasharray:5.0,5.0;" x1="858" x2="858" y1="118.5938" y2="1230.5391"/><line style="stroke:#181818;stroke-width:0.5;stroke-dasharray:5.0,5.0;" x1="1059" x2="1059" y1="305.0391" y2="1230.5391"/><line style="stroke:#181818;stroke-width:0.5;stroke-dasharray:5.0,5.0;" x1="1173" x2="1173" y1="118.5938" y2="1230.5391"/><line style="stroke:#181818;stroke-width:0.5;stroke-dasharray:5.0,5.0;" x1="1399.5" x2="1399.5" y1="118.5938" y2="1230.5391"/><line style="stroke:#181818;stroke-width:0.5;stroke-dasharray:5.0,5.0;" x1="1482.5" x2="1482.5" y1="118.5938" y2="1230.5391"/><line style="stroke:#181818;stroke-width:0.5;stroke-dasharray:5.0,5.0;" x1="1568.5" x2="1568.5" y1="118.5938" y2="1230.5391"/><line style="stroke:#181818;stroke-width:0.5;stroke-dasharray:5.0,5.0;" x1="1720.5" x2="1720.5" y1="118.5938" y2="1230.5391"/><line style="stroke:#181818;stroke-width:0.5;stroke-dasharray:5.0,5.0;" x1="1829.5" x2="1829.5" y1="118.5938" y2="1230.5391"/><line style="stroke:#181818;stroke-width:0.5;stroke-dasharray:5.0,5.0;" x1="1981.5" x2="1981.5" y1="118.5938" y2="1230.5391"/><line style="stroke:#181818;stroke-width:0.5;stroke-dasharray:5.0,5.0;" x1="2108.5" x2="2108.5" y1="118.5938" y2="1230.5391"/><line style="stroke:#181818;stroke-width:0.5;stroke-dasharray:5.0,5.0;" x1="2225.5" x2="2225.5" y1="118.5938" y2="1230.5391"/><line style="stroke:#181818;stroke-width:0.5;stroke-dasharray:5.0,5.0;" x1="2323.5" x2="2323.5" y1="118.5938" y2="1230.5391"/><text fill="#000000" font-family="sans-serif" font-size="14" lengthAdjust="spacing" textLength="31" x="5" y="115.292">User</text><ellipse cx="23.5" cy="50.7969" fill="#E2E2F0" rx="8" ry="8" style="stroke:#181818;stroke-width:0.5;"/><path d="M23.5,58.7969 L23.5,85.7969 M10.5,66.7969 L36.5,66.7969 M23.5,85.7969 L10.5,100.7969 M23.5,85.7969 L36.5,100.7969 " fill="none" style="stroke:#181818;stroke-width:0.5;"/><text fill="#000000" font-family="sans-serif" font-size="14" lengthAdjust="spacing" textLength="31" x="5" y="1242.5342">User</text><ellipse cx="23.5" cy="1254.3359" fill="#E2E2F0" rx="8" ry="8" style="stroke:#181818;stroke-width:0.5;"/><path d="M23.5,1262.3359 L23.5,1289.3359 M10.5,1270.3359 L36.5,1270.3359 M23.5,1289.3359 L10.5,1304.3359 M23.5,1289.3359 L36.5,1304.3359 " fill="none" style="stroke:#181818;stroke-width:0.5;"/><rect fill="#E2E2F0" height="30.2969" rx="2.5" ry="2.5" style="stroke:#181818;stroke-width:0.5;" width="133" x="544" y="87.2969"/><text fill="#000000" font-family="sans-serif" font-size="14" lengthAdjust="spacing" textLength="119" x="551" y="107.292">commentRouter</text><rect fill="#E2E2F0" height="30.2969" rx="2.5" ry="2.5" style="stroke:#181818;stroke-width:0.5;" width="133" x="544" y="1229.5391"/><text fill="#000000" font-family="sans-serif" font-size="14" lengthAdjust="spacing" textLength="119" x="551" y="1249.5342">commentRouter</text><rect fill="#E2E2F0" height="30.2969" rx="2.5" ry="2.5" style="stroke:#181818;stroke-width:0.5;" width="343" x="687" y="87.2969"/><text fill="#000000" font-family="sans-serif" font-size="14" lengthAdjust="spacing" textLength="329" x="694" y="107.292">replyToPostController:ReplyToPostController</text><rect fill="#E2E2F0" height="30.2969" rx="2.5" ry="2.5" style="stroke:#181818;stroke-width:0.5;" width="343" x="687" y="1229.5391"/><text fill="#000000" font-family="sans-serif" font-size="14" lengthAdjust="spacing" textLength="329" x="694" y="1249.5342">replyToPostController:ReplyToPostController</text><rect fill="#E2E2F0" height="30.2969" rx="2.5" ry="2.5" style="stroke:#181818;stroke-width:0.5;" width="39" x="1040" y="1229.5391"/><text fill="#000000" font-family="sans-serif" font-size="14" lengthAdjust="spacing" textLength="25" x="1047" y="1249.5342">dto</text><rect fill="#E2E2F0" height="30.2969" rx="2.5" ry="2.5" style="stroke:#181818;stroke-width:0.5;" width="168" x="1089" y="87.2969"/><text fill="#000000" font-family="sans-serif" font-size="14" lengthAdjust="spacing" textLength="154" x="1096" y="107.292">useCase:ReplyToPost</text><rect fill="#E2E2F0" height="30.2969" rx="2.5" ry="2.5" style="stroke:#181818;stroke-width:0.5;" width="168" x="1089" y="1229.5391"/><text fill="#000000" font-family="sans-serif" font-size="14" lengthAdjust="spacing" textLength="154" x="1096" y="1249.5342">useCase:ReplyToPost</text><rect fill="#E2E2F0" height="30.2969" rx="2.5" ry="2.5" style="stroke:#181818;stroke-width:0.5;" width="81" x="1359.5" y="87.2969"/><text fill="#000000" font-family="sans-serif" font-size="14" lengthAdjust="spacing" textLength="67" x="1366.5" y="107.292">:PostSlug</text><rect fill="#E2E2F0" height="30.2969" rx="2.5" ry="2.5" style="stroke:#181818;stroke-width:0.5;" width="81" x="1359.5" y="1229.5391"/><text fill="#000000" font-family="sans-serif" font-size="14" lengthAdjust="spacing" textLength="67" x="1366.5" y="1249.5342">:PostSlug</text><rect fill="#E2E2F0" height="30.2969" rx="2.5" ry="2.5" style="stroke:#181818;stroke-width:0.5;" width="64" x="1450.5" y="87.2969"/><text fill="#000000" font-family="sans-serif" font-size="14" lengthAdjust="spacing" textLength="50" x="1457.5" y="107.292">:Result</text><rect fill="#E2E2F0" height="30.2969" rx="2.5" ry="2.5" style="stroke:#181818;stroke-width:0.5;" width="64" x="1450.5" y="1229.5391"/><text fill="#000000" font-family="sans-serif" font-size="14" lengthAdjust="spacing" textLength="50" x="1457.5" y="1249.5342">:Result</text><rect fill="#E2E2F0" height="30.2969" rx="2.5" ry="2.5" style="stroke:#181818;stroke-width:0.5;" width="89" x="1524.5" y="87.2969"/><text fill="#000000" font-family="sans-serif" font-size="14" lengthAdjust="spacing" textLength="75" x="1531.5" y="107.292">:PostRepo</text><rect fill="#E2E2F0" height="30.2969" rx="2.5" ry="2.5" style="stroke:#181818;stroke-width:0.5;" width="89" x="1524.5" y="1229.5391"/><text fill="#000000" font-family="sans-serif" font-size="14" lengthAdjust="spacing" textLength="75" x="1531.5" y="1249.5342">:PostRepo</text><rect fill="#E2E2F0" height="30.2969" rx="2.5" ry="2.5" style="stroke:#181818;stroke-width:0.5;" width="81" x="1680.5" y="87.2969"/><text fill="#000000" font-family="sans-serif" font-size="14" lengthAdjust="spacing" textLength="67" x="1687.5" y="107.292">:PostMap</text><rect fill="#E2E2F0" height="30.2969" rx="2.5" ry="2.5" style="stroke:#181818;stroke-width:0.5;" width="81" x="1680.5" y="1229.5391"/><text fill="#000000" font-family="sans-serif" font-size="14" lengthAdjust="spacing" textLength="67" x="1687.5" y="1249.5342">:PostMap</text><rect fill="#E2E2F0" height="30.2969" rx="2.5" ry="2.5" style="stroke:#181818;stroke-width:0.5;" width="117" x="1771.5" y="87.2969"/><text fill="#000000" font-family="sans-serif" font-size="14" lengthAdjust="spacing" textLength="103" x="1778.5" y="107.292">:MemberRepo</text><rect fill="#E2E2F0" height="30.2969" rx="2.5" ry="2.5" style="stroke:#181818;stroke-width:0.5;" width="117" x="1771.5" y="1229.5391"/><text fill="#000000" font-family="sans-serif" font-size="14" lengthAdjust="spacing" textLength="103" x="1778.5" y="1249.5342">:MemberRepo</text><rect fill="#E2E2F0" height="30.2969" rx="2.5" ry="2.5" style="stroke:#181818;stroke-width:0.5;" width="109" x="1927.5" y="87.2969"/><text fill="#000000" font-family="sans-serif" font-size="14" lengthAdjust="spacing" textLength="95" x="1934.5" y="107.292">:MemberMap</text><rect fill="#E2E2F0" height="30.2969" rx="2.5" ry="2.5" style="stroke:#181818;stroke-width:0.5;" width="109" x="1927.5" y="1229.5391"/><text fill="#000000" font-family="sans-serif" font-size="14" lengthAdjust="spacing" textLength="95" x="1934.5" y="1249.5342">:MemberMap</text><rect fill="#E2E2F0" height="30.2969" rx="2.5" ry="2.5" style="stroke:#181818;stroke-width:0.5;" width="124" x="2046.5" y="87.2969"/><text fill="#000000" font-family="sans-serif" font-size="14" lengthAdjust="spacing" textLength="110" x="2053.5" y="107.292">:CommentText</text><rect fill="#E2E2F0" height="30.2969" rx="2.5" ry="2.5" style="stroke:#181818;stroke-width:0.5;" width="124" x="2046.5" y="1229.5391"/><text fill="#000000" font-family="sans-serif" font-size="14" lengthAdjust="spacing" textLength="110" x="2053.5" y="1249.5342">:CommentText</text><rect fill="#E2E2F0" height="30.2969" rx="2.5" ry="2.5" style="stroke:#181818;stroke-width:0.5;" width="91" x="2180.5" y="87.2969"/><text fill="#000000" font-family="sans-serif" font-size="14" lengthAdjust="spacing" textLength="77" x="2187.5" y="107.292">:Comment</text><rect fill="#E2E2F0" height="30.2969" rx="2.5" ry="2.5" style="stroke:#181818;stroke-width:0.5;" width="91" x="2180.5" y="1229.5391"/><text fill="#000000" font-family="sans-serif" font-size="14" lengthAdjust="spacing" textLength="77" x="2187.5" y="1249.5342">:Comment</text><rect fill="#E2E2F0" height="30.2969" rx="2.5" ry="2.5" style="stroke:#181818;stroke-width:0.5;" width="84" x="2281.5" y="87.2969"/><text fill="#000000" font-family="sans-serif" font-size="14" lengthAdjust="spacing" textLength="70" x="2288.5" y="107.292">post:Post</text><rect fill="#E2E2F0" height="30.2969" rx="2.5" ry="2.5" style="stroke:#181818;stroke-width:0.5;" width="84" x="2281.5" y="1229.5391"/><text fill="#000000" font-family="sans-serif" font-size="14" lengthAdjust="spacing" textLength="70" x="2288.5" y="1249.5342">post:Post</text><rect fill="#FFFFFF" height="1017.4141" style="stroke:#181818;stroke-width:1.0;" width="10" x="605.5" y="195.125"/><rect fill="#FFFFFF" height="997.2813" style="stroke:#181818;stroke-width:1.0;" width="10" x="853.5" y="224.2578"/><rect fill="#FFFFFF" height="922.0156" style="stroke:#181818;stroke-width:1.0;" width="10" x="858.5" y="261.3906"/><rect fill="#FFFFFF" height="817.4531" style="stroke:#181818;stroke-width:1.0;" width="10" x="1168" y="336.8203"/><rect fill="#FFFFFF" height="29.1328" style="stroke:#181818;stroke-width:1.0;" width="10" x="1395" y="365.9531"/><rect fill="#FFFFFF" height="29.1328" style="stroke:#181818;stroke-width:1.0;" width="10" x="1477.5" y="424.2188"/><rect fill="#FFFFFF" height="29.1328" style="stroke:#181818;stroke-width:1.0;" width="10" x="1477.5" y="540.75"/><rect fill="#FFFFFF" height="29.1328" style="stroke:#181818;stroke-width:1.0;" width="10" x="1477.5" y="745.5469"/><rect fill="#FFFFFF" height="29.1328" style="stroke:#181818;stroke-width:1.0;" width="10" x="1477.5" y="978.6094"/><rect fill="#FFFFFF" height="29.1328" style="stroke:#181818;stroke-width:1.0;" width="10" x="1564" y="482.4844"/><rect fill="#FFFFFF" height="59.1328" style="stroke:#181818;stroke-width:1.0;" width="10" x="1564" y="599.0156"/><rect fill="#FFFFFF" height="30" style="stroke:#181818;stroke-width:1.0;" width="10" x="1564" y="1095.1406"/><rect fill="#FFFFFF" height="117.3984" style="stroke:#181818;stroke-width:1.0;" width="10" x="1716" y="511.6172"/><rect fill="#FFFFFF" height="145.6641" style="stroke:#181818;stroke-width:1.0;" width="10" x="1825" y="687.2813"/><rect fill="#FFFFFF" height="87.3984" style="stroke:#181818;stroke-width:1.0;" width="10" x="1977" y="716.4141"/><rect fill="#FFFFFF" height="29.1328" style="stroke:#181818;stroke-width:1.0;" width="10" x="2103.5" y="862.0781"/><rect fill="#FFFFFF" height="29.1328" style="stroke:#181818;stroke-width:1.0;" width="10" x="2221" y="920.3438"/><rect fill="#FFFFFF" height="29.1328" style="stroke:#181818;stroke-width:1.0;" width="10" x="2318.5" y="1036.875"/><polygon fill="#181818" points="593.5,191.125,603.5,195.125,593.5,199.125,597.5,195.125" style="stroke:#181818;stroke-width:1.0;"/><line style="stroke:#181818;stroke-width:1.0;" x1="23.5" x2="599.5" y1="195.125" y2="195.125"/><text fill="#000000" font-family="sans-serif" font-size="13" font-weight="bold" lengthAdjust="spacing" textLength="9" x="30.5" y="167.3599">1</text><text fill="#000000" font-family="sans-serif" font-size="13" lengthAdjust="spacing" textLength="34" x="43.5" y="144.6606">POST</text><text fill="#000000" font-family="sans-serif" font-size="13" lengthAdjust="spacing" textLength="132" x="43.5" y="159.7935">("api/v1/comments")</text><text fill="#000000" font-family="sans-serif" font-size="13" lengthAdjust="spacing" textLength="546" x="47.5" y="174.9263">{"slug": "string", "userId": "string", "comment": "string", "parentCommentId": "string"}</text><text fill="#000000" font-family="sans-serif" font-size="13" lengthAdjust="spacing" textLength="4" x="43.5" y="190.0591">&#160;</text><polygon fill="#181818" points="841.5,220.2578,851.5,224.2578,841.5,228.2578,845.5,224.2578" style="stroke:#181818;stroke-width:1.0;"/><line style="stroke:#181818;stroke-width:1.0;" x1="615.5" x2="847.5" y1="224.2578" y2="224.2578"/><text fill="#000000" font-family="sans-serif" font-size="13" font-weight="bold" lengthAdjust="spacing" textLength="9" x="622.5" y="219.1919">2</text><text fill="#000000" font-family="sans-serif" font-size="13" lengthAdjust="spacing" textLength="111" x="635.5" y="219.1919">execute(req, res)</text><line style="stroke:#181818;stroke-width:1.0;" x1="863.5" x2="910.5" y1="248.3906" y2="248.3906"/><line style="stroke:#181818;stroke-width:1.0;" x1="910.5" x2="910.5" y1="248.3906" y2="261.3906"/><line style="stroke:#181818;stroke-width:1.0;" x1="869.5" x2="910.5" y1="261.3906" y2="261.3906"/><polygon fill="#181818" points="879.5,257.3906,869.5,261.3906,879.5,265.3906,875.5,261.3906" style="stroke:#181818;stroke-width:1.0;"/><text fill="#000000" font-family="sans-serif" font-size="13" font-weight="bold" lengthAdjust="spacing" textLength="8" x="875.5" y="243.3247">3</text><text fill="#000000" font-family="sans-serif" font-size="13" lengthAdjust="spacing" textLength="138" x="887.5" y="243.3247">executeImpl(req, res)</text><polygon fill="#181818" points="1028,291.5234,1038,295.5234,1028,299.5234,1032,295.5234" style="stroke:#181818;stroke-width:1.0;"/><line style="stroke:#181818;stroke-width:1.0;" x1="868.5" x2="1034" y1="295.5234" y2="295.5234"/><text fill="#000000" font-family="sans-serif" font-size="13" font-weight="bold" lengthAdjust="spacing" textLength="9" x="875.5" y="290.4575">4</text><text fill="#000000" font-family="sans-serif" font-size="13" lengthAdjust="spacing" textLength="4" x="888.5" y="290.4575">&#160;</text><rect fill="#E2E2F0" height="30.2969" rx="2.5" ry="2.5" style="stroke:#181818;stroke-width:0.5;" width="39" x="1040" y="274.3906"/><text fill="#000000" font-family="sans-serif" font-size="14" lengthAdjust="spacing" textLength="25" x="1047" y="294.3857">dto</text><polygon fill="#181818" points="1156,332.8203,1166,336.8203,1156,340.8203,1160,336.8203" style="stroke:#181818;stroke-width:1.0;"/><line style="stroke:#181818;stroke-width:1.0;" x1="868.5" x2="1162" y1="336.8203" y2="336.8203"/><text fill="#000000" font-family="sans-serif" font-size="13" font-weight="bold" lengthAdjust="spacing" textLength="9" x="875.5" y="331.7544">5</text><text fill="#000000" font-family="sans-serif" font-size="13" lengthAdjust="spacing" textLength="83" x="888.5" y="331.7544">execute(dto)</text><polygon fill="#181818" points="1383,361.9531,1393,365.9531,1383,369.9531,1387,365.9531" style="stroke:#181818;stroke-width:1.0;"/><line style="stroke:#181818;stroke-width:1.0;" x1="1178" x2="1389" y1="365.9531" y2="365.9531"/><text fill="#000000" font-family="sans-serif" font-size="13" font-weight="bold" lengthAdjust="spacing" textLength="9" x="1185" y="360.8872">6</text><text fill="#000000" font-family="sans-serif" font-size="13" lengthAdjust="spacing" textLength="185" x="1198" y="360.8872">createFromExisting(req.slug)</text><polygon fill="#181818" points="1189,391.0859,1179,395.0859,1189,399.0859,1185,395.0859" style="stroke:#181818;stroke-width:1.0;"/><line style="stroke:#181818;stroke-width:1.0;stroke-dasharray:2.0,2.0;" x1="1183" x2="1399" y1="395.0859" y2="395.0859"/><text fill="#000000" font-family="sans-serif" font-size="13" font-weight="bold" lengthAdjust="spacing" textLength="9" x="1195" y="390.02">7</text><text fill="#000000" font-family="sans-serif" font-size="13" lengthAdjust="spacing" textLength="134" x="1208" y="390.02">Result.ok&lt;PostSlug&gt;</text><polygon fill="#181818" points="1465.5,420.2188,1475.5,424.2188,1465.5,428.2188,1469.5,424.2188" style="stroke:#181818;stroke-width:1.0;"/><line style="stroke:#181818;stroke-width:1.0;" x1="1178" x2="1471.5" y1="424.2188" y2="424.2188"/><text fill="#000000" font-family="sans-serif" font-size="13" font-weight="bold" lengthAdjust="spacing" textLength="9" x="1185" y="419.1528">8</text><text fill="#000000" font-family="sans-serif" font-size="13" lengthAdjust="spacing" textLength="67" x="1198" y="419.1528">getValue()</text><polygon fill="#181818" points="1189,449.3516,1179,453.3516,1189,457.3516,1185,453.3516" style="stroke:#181818;stroke-width:1.0;"/><line style="stroke:#181818;stroke-width:1.0;stroke-dasharray:2.0,2.0;" x1="1183" x2="1481.5" y1="453.3516" y2="453.3516"/><text fill="#000000" font-family="sans-serif" font-size="13" font-weight="bold" lengthAdjust="spacing" textLength="9" x="1195" y="448.2856">9</text><text fill="#000000" font-family="sans-serif" font-size="13" lengthAdjust="spacing" textLength="35" x="1208" y="448.2856">value</text><polygon fill="#181818" points="1552,478.4844,1562,482.4844,1552,486.4844,1556,482.4844" style="stroke:#181818;stroke-width:1.0;"/><line style="stroke:#181818;stroke-width:1.0;" x1="1178" x2="1558" y1="482.4844" y2="482.4844"/><text fill="#000000" font-family="sans-serif" font-size="13" font-weight="bold" lengthAdjust="spacing" textLength="19" x="1185" y="477.4185">10</text><text fill="#000000" font-family="sans-serif" font-size="13" lengthAdjust="spacing" textLength="167" x="1208" y="477.4185">getPostBySlug(slug.value)</text><polygon fill="#181818" points="1704,507.6172,1714,511.6172,1704,515.6172,1708,511.6172" style="stroke:#181818;stroke-width:1.0;"/><line style="stroke:#181818;stroke-width:1.0;" x1="1569" x2="1710" y1="511.6172" y2="511.6172"/><text fill="#000000" font-family="sans-serif" font-size="13" font-weight="bold" lengthAdjust="spacing" textLength="18" x="1576" y="506.5513">11</text><text fill="#000000" font-family="sans-serif" font-size="13" lengthAdjust="spacing" textLength="101" x="1598" y="506.5513">toDomain(post)</text><polygon fill="#181818" points="1498.5,536.75,1488.5,540.75,1498.5,544.75,1494.5,540.75" style="stroke:#181818;stroke-width:1.0;"/><line style="stroke:#181818;stroke-width:1.0;" x1="1492.5" x2="1715" y1="540.75" y2="540.75"/><text fill="#000000" font-family="sans-serif" font-size="13" font-weight="bold" lengthAdjust="spacing" textLength="18" x="1504.5" y="535.6841">12</text><text fill="#000000" font-family="sans-serif" font-size="13" lengthAdjust="spacing" textLength="67" x="1526.5" y="535.6841">getValue()</text><polygon fill="#181818" points="1704,565.8828,1714,569.8828,1704,573.8828,1708,569.8828" style="stroke:#181818;stroke-width:1.0;"/><line style="stroke:#181818;stroke-width:1.0;stroke-dasharray:2.0,2.0;" x1="1482.5" x2="1710" y1="569.8828" y2="569.8828"/><text fill="#000000" font-family="sans-serif" font-size="13" font-weight="bold" lengthAdjust="spacing" textLength="17" x="1489.5" y="564.8169">13</text><text fill="#000000" font-family="sans-serif" font-size="13" lengthAdjust="spacing" textLength="35" x="1510.5" y="564.8169">value</text><polygon fill="#181818" points="1585,595.0156,1575,599.0156,1585,603.0156,1581,599.0156" style="stroke:#181818;stroke-width:1.0;"/><line style="stroke:#181818;stroke-width:1.0;stroke-dasharray:2.0,2.0;" x1="1579" x2="1715" y1="599.0156" y2="599.0156"/><text fill="#000000" font-family="sans-serif" font-size="13" font-weight="bold" lengthAdjust="spacing" textLength="18" x="1591" y="593.9497">14</text><text fill="#000000" font-family="sans-serif" font-size="13" lengthAdjust="spacing" textLength="35" x="1613" y="593.9497">value</text><polygon fill="#181818" points="1189,654.1484,1179,658.1484,1189,662.1484,1185,658.1484" style="stroke:#181818;stroke-width:1.0;"/><line style="stroke:#181818;stroke-width:1.0;stroke-dasharray:2.0,2.0;" x1="1183" x2="1568" y1="658.1484" y2="658.1484"/><text fill="#000000" font-family="sans-serif" font-size="13" font-weight="bold" lengthAdjust="spacing" textLength="18" x="1195" y="653.0825">15</text><text fill="#000000" font-family="sans-serif" font-size="13" lengthAdjust="spacing" textLength="35" x="1217" y="653.0825">value</text><polygon fill="#181818" points="1813,683.2813,1823,687.2813,1813,691.2813,1817,687.2813" style="stroke:#181818;stroke-width:1.0;"/><line style="stroke:#181818;stroke-width:1.0;" x1="1178" x2="1819" y1="687.2813" y2="687.2813"/><text fill="#000000" font-family="sans-serif" font-size="13" font-weight="bold" lengthAdjust="spacing" textLength="18" x="1185" y="682.2153">16</text><text fill="#000000" font-family="sans-serif" font-size="13" lengthAdjust="spacing" textLength="178" x="1207" y="682.2153">getMemberByUserId(userId)</text><polygon fill="#181818" points="1965,712.4141,1975,716.4141,1965,720.4141,1969,716.4141" style="stroke:#181818;stroke-width:1.0;"/><line style="stroke:#181818;stroke-width:1.0;" x1="1835" x2="1971" y1="716.4141" y2="716.4141"/><text fill="#000000" font-family="sans-serif" font-size="13" font-weight="bold" lengthAdjust="spacing" textLength="18" x="1842" y="711.3481">17</text><text fill="#000000" font-family="sans-serif" font-size="13" lengthAdjust="spacing" textLength="101" x="1864" y="711.3481">toDomain(post)</text><polygon fill="#181818" points="1498.5,741.5469,1488.5,745.5469,1498.5,749.5469,1494.5,745.5469" style="stroke:#181818;stroke-width:1.0;"/><line style="stroke:#181818;stroke-width:1.0;" x1="1492.5" x2="1976" y1="745.5469" y2="745.5469"/><text fill="#000000" font-family="sans-serif" font-size="13" font-weight="bold" lengthAdjust="spacing" textLength="18" x="1504.5" y="740.481">18</text><text fill="#000000" font-family="sans-serif" font-size="13" lengthAdjust="spacing" textLength="67" x="1526.5" y="740.481">getValue()</text><polygon fill="#181818" points="1965,770.6797,1975,774.6797,1965,778.6797,1969,774.6797" style="stroke:#181818;stroke-width:1.0;"/><line style="stroke:#181818;stroke-width:1.0;stroke-dasharray:2.0,2.0;" x1="1482.5" x2="1971" y1="774.6797" y2="774.6797"/><text fill="#000000" font-family="sans-serif" font-size="13" font-weight="bold" lengthAdjust="spacing" textLength="18" x="1489.5" y="769.6138">19</text><text fill="#000000" font-family="sans-serif" font-size="13" lengthAdjust="spacing" textLength="35" x="1511.5" y="769.6138">value</text><polygon fill="#181818" points="1846,799.8125,1836,803.8125,1846,807.8125,1842,803.8125" style="stroke:#181818;stroke-width:1.0;"/><line style="stroke:#181818;stroke-width:1.0;stroke-dasharray:2.0,2.0;" x1="1840" x2="1981" y1="803.8125" y2="803.8125"/><text fill="#000000" font-family="sans-serif" font-size="13" font-weight="bold" lengthAdjust="spacing" textLength="19" x="1852" y="798.7466">20</text><text fill="#000000" font-family="sans-serif" font-size="13" lengthAdjust="spacing" textLength="35" x="1875" y="798.7466">value</text><polygon fill="#181818" points="1189,828.9453,1179,832.9453,1189,836.9453,1185,832.9453" style="stroke:#181818;stroke-width:1.0;"/><line style="stroke:#181818;stroke-width:1.0;stroke-dasharray:2.0,2.0;" x1="1183" x2="1829" y1="832.9453" y2="832.9453"/><text fill="#000000" font-family="sans-serif" font-size="13" font-weight="bold" lengthAdjust="spacing" textLength="18" x="1195" y="827.8794">21</text><text fill="#000000" font-family="sans-serif" font-size="13" lengthAdjust="spacing" textLength="35" x="1217" y="827.8794">value</text><polygon fill="#181818" points="2091.5,858.0781,2101.5,862.0781,2091.5,866.0781,2095.5,862.0781" style="stroke:#181818;stroke-width:1.0;"/><line style="stroke:#181818;stroke-width:1.0;" x1="1178" x2="2097.5" y1="862.0781" y2="862.0781"/><text fill="#000000" font-family="sans-serif" font-size="13" font-weight="bold" lengthAdjust="spacing" textLength="18" x="1185" y="857.0122">22</text><text fill="#000000" font-family="sans-serif" font-size="13" lengthAdjust="spacing" textLength="200" x="1207" y="857.0122">create({value: req.comment})</text><polygon fill="#181818" points="1189,887.2109,1179,891.2109,1189,895.2109,1185,891.2109" style="stroke:#181818;stroke-width:1.0;"/><line style="stroke:#181818;stroke-width:1.0;stroke-dasharray:2.0,2.0;" x1="1183" x2="2107.5" y1="891.2109" y2="891.2109"/><text fill="#000000" font-family="sans-serif" font-size="13" font-weight="bold" lengthAdjust="spacing" textLength="17" x="1195" y="886.145">23</text><text fill="#000000" font-family="sans-serif" font-size="13" lengthAdjust="spacing" textLength="172" x="1216" y="886.145">Result.ok&lt;CommentText&gt;</text><polygon fill="#181818" points="2209,916.3438,2219,920.3438,2209,924.3438,2213,920.3438" style="stroke:#181818;stroke-width:1.0;"/><line style="stroke:#181818;stroke-width:1.0;" x1="1178" x2="2215" y1="920.3438" y2="920.3438"/><text fill="#000000" font-family="sans-serif" font-size="13" font-weight="bold" lengthAdjust="spacing" textLength="18" x="1185" y="915.2778">24</text><text fill="#000000" font-family="sans-serif" font-size="13" lengthAdjust="spacing" textLength="216" x="1207" y="915.2778">create({memberId, text, postId})</text><polygon fill="#181818" points="1189,945.4766,1179,949.4766,1189,953.4766,1185,949.4766" style="stroke:#181818;stroke-width:1.0;"/><line style="stroke:#181818;stroke-width:1.0;stroke-dasharray:2.0,2.0;" x1="1183" x2="2225" y1="949.4766" y2="949.4766"/><text fill="#000000" font-family="sans-serif" font-size="13" font-weight="bold" lengthAdjust="spacing" textLength="18" x="1195" y="944.4106">25</text><text fill="#000000" font-family="sans-serif" font-size="13" lengthAdjust="spacing" textLength="156" x="1217" y="944.4106">MemberId.create(this.id)</text><polygon fill="#181818" points="1465.5,974.6094,1475.5,978.6094,1465.5,982.6094,1469.5,978.6094" style="stroke:#181818;stroke-width:1.0;"/><line style="stroke:#181818;stroke-width:1.0;" x1="1178" x2="1471.5" y1="978.6094" y2="978.6094"/><text fill="#000000" font-family="sans-serif" font-size="13" font-weight="bold" lengthAdjust="spacing" textLength="18" x="1185" y="973.5435">26</text><text fill="#000000" font-family="sans-serif" font-size="13" lengthAdjust="spacing" textLength="67" x="1207" y="973.5435">getValue()</text><polygon fill="#181818" points="1189,1003.7422,1179,1007.7422,1189,1011.7422,1185,1007.7422" style="stroke:#181818;stroke-width:1.0;"/><line style="stroke:#181818;stroke-width:1.0;stroke-dasharray:2.0,2.0;" x1="1183" x2="1481.5" y1="1007.7422" y2="1007.7422"/><text fill="#000000" font-family="sans-serif" font-size="13" font-weight="bold" lengthAdjust="spacing" textLength="18" x="1195" y="1002.6763">27</text><text fill="#000000" font-family="sans-serif" font-size="13" lengthAdjust="spacing" textLength="35" x="1217" y="1002.6763">value</text><polygon fill="#181818" points="2306.5,1032.875,2316.5,1036.875,2306.5,1040.875,2310.5,1036.875" style="stroke:#181818;stroke-width:1.0;"/><line style="stroke:#181818;stroke-width:1.0;" x1="1178" x2="2312.5" y1="1036.875" y2="1036.875"/><text fill="#000000" font-family="sans-serif" font-size="13" font-weight="bold" lengthAdjust="spacing" textLength="18" x="1185" y="1031.8091">28</text><text fill="#000000" font-family="sans-serif" font-size="13" lengthAdjust="spacing" textLength="160" x="1207" y="1031.8091">addComment(comment)</text><polygon fill="#181818" points="1189,1062.0078,1179,1066.0078,1189,1070.0078,1185,1066.0078" style="stroke:#181818;stroke-width:1.0;"/><line style="stroke:#181818;stroke-width:1.0;stroke-dasharray:2.0,2.0;" x1="1183" x2="2322.5" y1="1066.0078" y2="1066.0078"/><text fill="#000000" font-family="sans-serif" font-size="13" font-weight="bold" lengthAdjust="spacing" textLength="18" x="1195" y="1060.9419">29</text><text fill="#000000" font-family="sans-serif" font-size="13" lengthAdjust="spacing" textLength="59" x="1217" y="1060.9419">Result.ok</text><polygon fill="#181818" points="1552,1091.1406,1562,1095.1406,1552,1099.1406,1556,1095.1406" style="stroke:#181818;stroke-width:1.0;"/><line style="stroke:#181818;stroke-width:1.0;" x1="1178" x2="1558" y1="1095.1406" y2="1095.1406"/><text fill="#000000" font-family="sans-serif" font-size="13" font-weight="bold" lengthAdjust="spacing" textLength="18" x="1185" y="1090.0747">30</text><text fill="#000000" font-family="sans-serif" font-size="13" lengthAdjust="spacing" textLength="69" x="1207" y="1090.0747">save(post)</text><polygon fill="#181818" points="879.5,1150.2734,869.5,1154.2734,879.5,1158.2734,875.5,1154.2734" style="stroke:#181818;stroke-width:1.0;"/><line style="stroke:#181818;stroke-width:1.0;stroke-dasharray:2.0,2.0;" x1="873.5" x2="1172" y1="1154.2734" y2="1154.2734"/><text fill="#000000" font-family="sans-serif" font-size="13" font-weight="bold" lengthAdjust="spacing" textLength="17" x="885.5" y="1149.2075">31</text><text fill="#000000" font-family="sans-serif" font-size="13" lengthAdjust="spacing" textLength="155" x="906.5" y="1149.2075">right(Result.ok&lt;void&gt;())</text><polygon fill="#181818" points="626.5,1179.4063,616.5,1183.4063,626.5,1187.4063,622.5,1183.4063" style="stroke:#181818;stroke-width:1.0;"/><line style="stroke:#181818;stroke-width:1.0;stroke-dasharray:2.0,2.0;" x1="620.5" x2="852.5" y1="1183.4063" y2="1183.4063"/><text fill="#000000" font-family="sans-serif" font-size="13" font-weight="bold" lengthAdjust="spacing" textLength="17" x="632.5" y="1178.3403">32</text><text fill="#000000" font-family="sans-serif" font-size="13" lengthAdjust="spacing" textLength="130" x="653.5" y="1178.3403">res.sendStatus(200)</text><polygon fill="#181818" points="34.5,1208.5391,24.5,1212.5391,34.5,1216.5391,30.5,1212.5391" style="stroke:#181818;stroke-width:1.0;"/><line style="stroke:#181818;stroke-width:1.0;stroke-dasharray:2.0,2.0;" x1="28.5" x2="609.5" y1="1212.5391" y2="1212.5391"/><text fill="#000000" font-family="sans-serif" font-size="13" font-weight="bold" lengthAdjust="spacing" textLength="16" x="40.5" y="1207.4731">33</text><text fill="#000000" font-family="sans-serif" font-size="13" lengthAdjust="spacing" textLength="115" x="60.5" y="1207.4731">comment created</text><!--SRC=[lLPDZvim4BtxLrYSY9JDfZtqWAeSDcsb7AAkyj5JBjvWPL41Kzj4YLRxtsiR0sDZakwb9sppvisROMQCp6HEyNwBv_Cl2Lwoeg2bnAp415TCI4HgoSgwUA4S8NAKZEDeBoYFC15OBr15kCoEMKMKMNHix3UibXRZdBXWJglykcFFoisIbPApFASysOHE3LKGxrAcaXceUhelQa6NH538Re1Wxnea-cYRroS3QpSUPaD5dRT4UXdWK1vOnw4t0SoQL1r4hJt4ckhqTppzDeXhkReTyc3s6-_efL4Ezc4aHBa8NI59bqkJH8HqLU27XVlb4_pySxixb754gkpn_EdHlXNHv53YjqZeJ2Su4f9dvIcQcY_6LwbxPetSGwL8dLbzZiNxeJH5cvs9f5ubEZijDroDc5xeKK5YJlzC5KPC06Eu88EdzpsiYYe7NkuuGKTEzLjTwACERxu4bTz7gIo0QzWS286TjczR8i6Db1-S5TylcP0gypgEcVwaWAnheNQ17tmLJG_DsE-lBMQ1KZfa66Xf31Dyel8NoMiQEq6OncmUGvzdZOTUB3uOhsuwuqLldgvQJAp3d1aMBrZJeQXTjHIg8HCisJTMaAoCTGDD_1YDeNDYkjWkFXvlvtOqrexQYRE13wLvSZjnJPXt4zpdnaznFzbCQCtswRetao1k1WA850n2rAzxeb2gFMEZlLj-FBN0qMXo0RqNuy1a8EeVKmepuISLZFUsLUCtmv1WtQPs4Bw3EE6D0DQt6XR0d9w5L2FAUbM52MELJh5K-Adv0Lcb0MMjgg6YjQMOMKxvcebPbau2clxB50aCaGIJDBKQOfjzRtIW1Z-QRh-TRaqhGSxKB_wnLcugoA4QlxTuTdgLSLy2PvQbYtWoSTC0Rf2HgsZugw0km9cWPRgLHDOY_ZoVEwGZDw9_fIjUFJcIbjsMMGgf79E_]--></g></svg>