<?xml version="1.0" encoding="us-ascii" standalone="no"?><svg xmlns="http://www.w3.org/2000/svg" xmlns:xlink="http://www.w3.org/1999/xlink" contentStyleType="text/css" height="394px" preserveAspectRatio="none" style="width:577px;height:394px;background:#FFFFFF;" version="1.1" viewBox="0 0 577 394" width="577px" zoomAndPan="magnify"><defs/><g><text fill="#000000" font-family="sans-serif" font-size="14" font-weight="bold" lengthAdjust="spacing" textLength="549" x="10" y="27.9951">US003: Create A Post - System Sequence Diagram - Alternative Two</text><rect fill="#FFFFFF" height="175.7969" style="stroke:#181818;stroke-width:1.0;" width="10" x="84.25" y="128.5938"/><rect fill="#FFFFFF" height="29.1328" style="stroke:#181818;stroke-width:1.0;" width="10" x="414.25" y="149.7266"/><rect fill="#FFFFFF" height="29.1328" style="stroke:#181818;stroke-width:1.0;" width="10" x="414.25" y="207.9922"/><rect fill="#FFFFFF" height="29.1328" style="stroke:#181818;stroke-width:1.0;" width="10" x="414.25" y="266.2578"/><line style="stroke:#181818;stroke-width:0.5;stroke-dasharray:5.0,5.0;" x1="88.75" x2="88.75" y1="118.5938" y2="313.3906"/><line style="stroke:#181818;stroke-width:0.5;stroke-dasharray:5.0,5.0;" x1="419.25" x2="419.25" y1="118.5938" y2="313.3906"/><text fill="#000000" font-family="sans-serif" font-size="14" lengthAdjust="spacing" textLength="31" x="70.75" y="115.292">User</text><ellipse cx="89.25" cy="50.7969" fill="#E2E2F0" rx="8" ry="8" style="stroke:#181818;stroke-width:0.5;"/><path d="M89.25,58.7969 L89.25,85.7969 M76.25,66.7969 L102.25,66.7969 M89.25,85.7969 L76.25,100.7969 M89.25,85.7969 L102.25,100.7969 " fill="none" style="stroke:#181818;stroke-width:0.5;"/><text fill="#000000" font-family="sans-serif" font-size="14" lengthAdjust="spacing" textLength="31" x="70.75" y="325.3857">User</text><ellipse cx="89.25" cy="337.1875" fill="#E2E2F0" rx="8" ry="8" style="stroke:#181818;stroke-width:0.5;"/><path d="M89.25,345.1875 L89.25,372.1875 M76.25,353.1875 L102.25,353.1875 M89.25,372.1875 L76.25,387.1875 M89.25,372.1875 L102.25,387.1875 " fill="none" style="stroke:#181818;stroke-width:0.5;"/><rect fill="#E2E2F0" height="30.2969" rx="2.5" ry="2.5" style="stroke:#181818;stroke-width:0.5;" width="160" x="339.25" y="87.2969"/><text fill="#000000" font-family="sans-serif" font-size="14" lengthAdjust="spacing" textLength="146" x="346.25" y="107.292">DDD Forum Website</text><rect fill="#E2E2F0" height="30.2969" rx="2.5" ry="2.5" style="stroke:#181818;stroke-width:0.5;" width="160" x="339.25" y="312.3906"/><text fill="#000000" font-family="sans-serif" font-size="14" lengthAdjust="spacing" textLength="146" x="346.25" y="332.3857">DDD Forum Website</text><rect fill="#FFFFFF" height="175.7969" style="stroke:#181818;stroke-width:1.0;" width="10" x="84.25" y="128.5938"/><rect fill="#FFFFFF" height="29.1328" style="stroke:#181818;stroke-width:1.0;" width="10" x="414.25" y="149.7266"/><rect fill="#FFFFFF" height="29.1328" style="stroke:#181818;stroke-width:1.0;" width="10" x="414.25" y="207.9922"/><rect fill="#FFFFFF" height="29.1328" style="stroke:#181818;stroke-width:1.0;" width="10" x="414.25" y="266.2578"/><polygon fill="#181818" points="402.25,145.7266,412.25,149.7266,402.25,153.7266,406.25,149.7266" style="stroke:#181818;stroke-width:1.0;"/><line style="stroke:#181818;stroke-width:1.0;" x1="94.25" x2="408.25" y1="149.7266" y2="149.7266"/><text fill="#000000" font-family="sans-serif" font-size="13" font-weight="bold" lengthAdjust="spacing" textLength="9" x="101.25" y="144.6606">1</text><text fill="#000000" font-family="sans-serif" font-size="13" lengthAdjust="spacing" textLength="162" x="114.25" y="144.6606">chooses to submit a post</text><polygon fill="#181818" points="105.25,174.8594,95.25,178.8594,105.25,182.8594,101.25,178.8594" style="stroke:#181818;stroke-width:1.0;"/><line style="stroke:#181818;stroke-width:1.0;stroke-dasharray:2.0,2.0;" x1="99.25" x2="418.25" y1="178.8594" y2="178.8594"/><text fill="#000000" font-family="sans-serif" font-size="13" font-weight="bold" lengthAdjust="spacing" textLength="9" x="111.25" y="173.7935">2</text><text fill="#000000" font-family="sans-serif" font-size="13" lengthAdjust="spacing" textLength="240" x="124.25" y="173.7935">displays post page and requests post</text><polygon fill="#181818" points="402.25,203.9922,412.25,207.9922,402.25,211.9922,406.25,207.9922" style="stroke:#181818;stroke-width:1.0;"/><line style="stroke:#181818;stroke-width:1.0;" x1="94.25" x2="408.25" y1="207.9922" y2="207.9922"/><text fill="#000000" font-family="sans-serif" font-size="13" font-weight="bold" lengthAdjust="spacing" textLength="8" x="101.25" y="202.9263">3</text><text fill="#000000" font-family="sans-serif" font-size="13" lengthAdjust="spacing" textLength="149" x="113.25" y="202.9263">selects post type "Link"</text><polygon fill="#181818" points="105.25,233.125,95.25,237.125,105.25,241.125,101.25,237.125" style="stroke:#181818;stroke-width:1.0;"/><line style="stroke:#181818;stroke-width:1.0;stroke-dasharray:2.0,2.0;" x1="99.25" x2="418.25" y1="237.125" y2="237.125"/><text fill="#000000" font-family="sans-serif" font-size="13" font-weight="bold" lengthAdjust="spacing" textLength="9" x="111.25" y="232.0591">4</text><text fill="#000000" font-family="sans-serif" font-size="13" lengthAdjust="spacing" textLength="108" x="124.25" y="232.0591">displays link field</text><polygon fill="#181818" points="402.25,262.2578,412.25,266.2578,402.25,270.2578,406.25,266.2578" style="stroke:#181818;stroke-width:1.0;"/><line style="stroke:#181818;stroke-width:1.0;" x1="94.25" x2="408.25" y1="266.2578" y2="266.2578"/><text fill="#000000" font-family="sans-serif" font-size="13" font-weight="bold" lengthAdjust="spacing" textLength="9" x="101.25" y="261.1919">5</text><text fill="#000000" font-family="sans-serif" font-size="13" lengthAdjust="spacing" textLength="288" x="114.25" y="261.1919">types and submits requested data (title, link)</text><polygon fill="#181818" points="105.25,291.3906,95.25,295.3906,105.25,299.3906,101.25,295.3906" style="stroke:#181818;stroke-width:1.0;"/><line style="stroke:#181818;stroke-width:1.0;stroke-dasharray:2.0,2.0;" x1="99.25" x2="418.25" y1="295.3906" y2="295.3906"/><text fill="#000000" font-family="sans-serif" font-size="13" font-weight="bold" lengthAdjust="spacing" textLength="9" x="111.25" y="290.3247">6</text><text fill="#000000" font-family="sans-serif" font-size="13" lengthAdjust="spacing" textLength="182" x="124.25" y="290.3247">displays success notification</text><!--SRC=[hLB1IiD04BtdAnuvALWeUEj1A0PF7eHQF4ysqpgOxCQTIQL_x-vQ5GBgmSxfyNRslJV3c5ZFs6wMo-iLRYEJCTPu26fOO7DKum4RVftOEqOZj8yqf9TrRnmzcHmOZs-XgcYouAUXvPYmin1HRvLZ3L9aK8qKJPoCv0rrqpIu2t4QyCIjYd7fIsmXJrmHaaDEL1GgfCe8YvjvxmhkEGHbXGNer0vY88nfZFBhIsXkWLFDU2oIHRPQeHCTUpfg4SD8UmRv3Z7lH4s_FJh-qUNtvCezkvCIx3WowdlnB_NPalT93JlXliF_akPmMiR_MB5-he4xT6I42yldT5KSBy-MNoVdM1K-cEp4fQiB_ez1tW40]--></g></svg>