<?xml version="1.0" encoding="us-ascii" standalone="no"?><svg xmlns="http://www.w3.org/2000/svg" xmlns:xlink="http://www.w3.org/1999/xlink" contentStyleType="text/css" height="394px" preserveAspectRatio="none" style="width:574px;height:394px;background:#FFFFFF;" version="1.1" viewBox="0 0 574 394" width="574px" zoomAndPan="magnify"><defs/><g><text fill="#000000" font-family="sans-serif" font-size="14" font-weight="bold" lengthAdjust="spacing" textLength="546" x="10" y="27.9951">US003: Create A Post - System Sequence Diagram - Alternative One</text><rect fill="#FFFFFF" height="175.7969" style="stroke:#181818;stroke-width:1.0;" width="10" x="80.25" y="128.5938"/><rect fill="#FFFFFF" height="29.1328" style="stroke:#181818;stroke-width:1.0;" width="10" x="415.25" y="149.7266"/><rect fill="#FFFFFF" height="29.1328" style="stroke:#181818;stroke-width:1.0;" width="10" x="415.25" y="207.9922"/><rect fill="#FFFFFF" height="29.1328" style="stroke:#181818;stroke-width:1.0;" width="10" x="415.25" y="266.2578"/><line style="stroke:#181818;stroke-width:0.5;stroke-dasharray:5.0,5.0;" x1="84.75" x2="84.75" y1="118.5938" y2="313.3906"/><line style="stroke:#181818;stroke-width:0.5;stroke-dasharray:5.0,5.0;" x1="420.25" x2="420.25" y1="118.5938" y2="313.3906"/><text fill="#000000" font-family="sans-serif" font-size="14" lengthAdjust="spacing" textLength="31" x="66.75" y="115.292">User</text><ellipse cx="85.25" cy="50.7969" fill="#E2E2F0" rx="8" ry="8" style="stroke:#181818;stroke-width:0.5;"/><path d="M85.25,58.7969 L85.25,85.7969 M72.25,66.7969 L98.25,66.7969 M85.25,85.7969 L72.25,100.7969 M85.25,85.7969 L98.25,100.7969 " fill="none" style="stroke:#181818;stroke-width:0.5;"/><text fill="#000000" font-family="sans-serif" font-size="14" lengthAdjust="spacing" textLength="31" x="66.75" y="325.3857">User</text><ellipse cx="85.25" cy="337.1875" fill="#E2E2F0" rx="8" ry="8" style="stroke:#181818;stroke-width:0.5;"/><path d="M85.25,345.1875 L85.25,372.1875 M72.25,353.1875 L98.25,353.1875 M85.25,372.1875 L72.25,387.1875 M85.25,372.1875 L98.25,387.1875 " fill="none" style="stroke:#181818;stroke-width:0.5;"/><rect fill="#E2E2F0" height="30.2969" rx="2.5" ry="2.5" style="stroke:#181818;stroke-width:0.5;" width="160" x="340.25" y="87.2969"/><text fill="#000000" font-family="sans-serif" font-size="14" lengthAdjust="spacing" textLength="146" x="347.25" y="107.292">DDD Forum Website</text><rect fill="#E2E2F0" height="30.2969" rx="2.5" ry="2.5" style="stroke:#181818;stroke-width:0.5;" width="160" x="340.25" y="312.3906"/><text fill="#000000" font-family="sans-serif" font-size="14" lengthAdjust="spacing" textLength="146" x="347.25" y="332.3857">DDD Forum Website</text><rect fill="#FFFFFF" height="175.7969" style="stroke:#181818;stroke-width:1.0;" width="10" x="80.25" y="128.5938"/><rect fill="#FFFFFF" height="29.1328" style="stroke:#181818;stroke-width:1.0;" width="10" x="415.25" y="149.7266"/><rect fill="#FFFFFF" height="29.1328" style="stroke:#181818;stroke-width:1.0;" width="10" x="415.25" y="207.9922"/><rect fill="#FFFFFF" height="29.1328" style="stroke:#181818;stroke-width:1.0;" width="10" x="415.25" y="266.2578"/><polygon fill="#181818" points="403.25,145.7266,413.25,149.7266,403.25,153.7266,407.25,149.7266" style="stroke:#181818;stroke-width:1.0;"/><line style="stroke:#181818;stroke-width:1.0;" x1="90.25" x2="409.25" y1="149.7266" y2="149.7266"/><text fill="#000000" font-family="sans-serif" font-size="13" font-weight="bold" lengthAdjust="spacing" textLength="9" x="97.25" y="144.6606">1</text><text fill="#000000" font-family="sans-serif" font-size="13" lengthAdjust="spacing" textLength="162" x="110.25" y="144.6606">chooses to submit a post</text><polygon fill="#181818" points="101.25,174.8594,91.25,178.8594,101.25,182.8594,97.25,178.8594" style="stroke:#181818;stroke-width:1.0;"/><line style="stroke:#181818;stroke-width:1.0;stroke-dasharray:2.0,2.0;" x1="95.25" x2="419.25" y1="178.8594" y2="178.8594"/><text fill="#000000" font-family="sans-serif" font-size="13" font-weight="bold" lengthAdjust="spacing" textLength="9" x="107.25" y="173.7935">2</text><text fill="#000000" font-family="sans-serif" font-size="13" lengthAdjust="spacing" textLength="240" x="120.25" y="173.7935">displays post page and requests post</text><polygon fill="#181818" points="403.25,203.9922,413.25,207.9922,403.25,211.9922,407.25,207.9922" style="stroke:#181818;stroke-width:1.0;"/><line style="stroke:#181818;stroke-width:1.0;" x1="90.25" x2="409.25" y1="207.9922" y2="207.9922"/><text fill="#000000" font-family="sans-serif" font-size="13" font-weight="bold" lengthAdjust="spacing" textLength="8" x="97.25" y="202.9263">3</text><text fill="#000000" font-family="sans-serif" font-size="13" lengthAdjust="spacing" textLength="153" x="109.25" y="202.9263">selects post type "Text"</text><polygon fill="#181818" points="101.25,233.125,91.25,237.125,101.25,241.125,97.25,237.125" style="stroke:#181818;stroke-width:1.0;"/><line style="stroke:#181818;stroke-width:1.0;stroke-dasharray:2.0,2.0;" x1="95.25" x2="419.25" y1="237.125" y2="237.125"/><text fill="#000000" font-family="sans-serif" font-size="13" font-weight="bold" lengthAdjust="spacing" textLength="9" x="107.25" y="232.0591">4</text><text fill="#000000" font-family="sans-serif" font-size="13" lengthAdjust="spacing" textLength="113" x="120.25" y="232.0591">displays text field</text><polygon fill="#181818" points="403.25,262.2578,413.25,266.2578,403.25,270.2578,407.25,266.2578" style="stroke:#181818;stroke-width:1.0;"/><line style="stroke:#181818;stroke-width:1.0;" x1="90.25" x2="409.25" y1="266.2578" y2="266.2578"/><text fill="#000000" font-family="sans-serif" font-size="13" font-weight="bold" lengthAdjust="spacing" textLength="9" x="97.25" y="261.1919">5</text><text fill="#000000" font-family="sans-serif" font-size="13" lengthAdjust="spacing" textLength="293" x="110.25" y="261.1919">types and submits requested data (title, text)</text><polygon fill="#181818" points="101.25,291.3906,91.25,295.3906,101.25,299.3906,97.25,295.3906" style="stroke:#181818;stroke-width:1.0;"/><line style="stroke:#181818;stroke-width:1.0;stroke-dasharray:2.0,2.0;" x1="95.25" x2="419.25" y1="295.3906" y2="295.3906"/><text fill="#000000" font-family="sans-serif" font-size="13" font-weight="bold" lengthAdjust="spacing" textLength="9" x="107.25" y="290.3247">6</text><text fill="#000000" font-family="sans-serif" font-size="13" lengthAdjust="spacing" textLength="182" x="120.25" y="290.3247">displays success notification</text><!--SRC=[hLB1IiGm4BttAnuzARYmuAq7OR5uNQ4kdgVfx1feavgPBlRlJM9LAAW7TqwFbybxRuPHgptZq6otjnNk0vCoTdZqejYWcKLvGCEl4pl3g2sT0WtnPTSh1qTgpuozuwAWIRsRXfP3n4PzG7aG3YL8a40nKb1hx4XEKTPrZGSVfW7Ft8fLpdsHpUJ2PI5xJecoGe5O2M5pj-wjO5wy5nQeXqpjO1M4COwHVtq9hIsmr8h79beagmgTbR6dMR8OHZeno7K8QIUYyktHyOykloSNxjaiIj1vP9HF_ARbnP9hLCFHSj_XVqbJECdZVwnOFjV07JfImfMcSxh9ZjSNoo-JCIm2vzKUhObNvzqVWxm3]--></g></svg>