<?xml version="1.0" encoding="us-ascii" standalone="no"?><svg xmlns="http://www.w3.org/2000/svg" xmlns:xlink="http://www.w3.org/1999/xlink" contentStyleType="text/css" height="394px" preserveAspectRatio="none" style="width:484px;height:394px;background:#FFFFFF;" version="1.1" viewBox="0 0 484 394" width="484px" zoomAndPan="magnify"><defs/><g><text fill="#000000" font-family="sans-serif" font-size="14" font-weight="bold" lengthAdjust="spacing" textLength="456" x="10" y="27.9951">US005 - Vote on a comment - System Sequence Diagram</text><rect fill="#FFFFFF" height="175.7969" style="stroke:#181818;stroke-width:1.0;" width="10" x="72.75" y="128.5938"/><rect fill="#FFFFFF" height="29.1328" style="stroke:#181818;stroke-width:1.0;" width="10" x="332.75" y="149.7266"/><rect fill="#FFFFFF" height="29.1328" style="stroke:#181818;stroke-width:1.0;" width="10" x="332.75" y="207.9922"/><rect fill="#FFFFFF" height="29.1328" style="stroke:#181818;stroke-width:1.0;" width="10" x="332.75" y="266.2578"/><line style="stroke:#181818;stroke-width:0.5;stroke-dasharray:5.0,5.0;" x1="77.25" x2="77.25" y1="118.5938" y2="313.3906"/><line style="stroke:#181818;stroke-width:0.5;stroke-dasharray:5.0,5.0;" x1="337.75" x2="337.75" y1="118.5938" y2="313.3906"/><text fill="#000000" font-family="sans-serif" font-size="14" lengthAdjust="spacing" textLength="31" x="59.25" y="115.292">User</text><ellipse cx="77.75" cy="50.7969" fill="#E3E3E3" rx="8" ry="8" style="stroke:#181818;stroke-width:0.5;"/><path d="M77.75,58.7969 L77.75,85.7969 M64.75,66.7969 L90.75,66.7969 M77.75,85.7969 L64.75,100.7969 M77.75,85.7969 L90.75,100.7969 " fill="none" style="stroke:#181818;stroke-width:0.5;"/><text fill="#000000" font-family="sans-serif" font-size="14" lengthAdjust="spacing" textLength="31" x="59.25" y="325.3857">User</text><ellipse cx="77.75" cy="337.1875" fill="#E3E3E3" rx="8" ry="8" style="stroke:#181818;stroke-width:0.5;"/><path d="M77.75,345.1875 L77.75,372.1875 M64.75,353.1875 L90.75,353.1875 M77.75,372.1875 L64.75,387.1875 M77.75,372.1875 L90.75,387.1875 " fill="none" style="stroke:#181818;stroke-width:0.5;"/><rect fill="#E3E3E3" height="30.2969" rx="2.5" ry="2.5" style="stroke:#181818;stroke-width:0.5;" width="160" x="257.75" y="87.2969"/><text fill="#000000" font-family="sans-serif" font-size="14" lengthAdjust="spacing" textLength="146" x="264.75" y="107.292">DDD Forum Website</text><rect fill="#E3E3E3" height="30.2969" rx="2.5" ry="2.5" style="stroke:#181818;stroke-width:0.5;" width="160" x="257.75" y="312.3906"/><text fill="#000000" font-family="sans-serif" font-size="14" lengthAdjust="spacing" textLength="146" x="264.75" y="332.3857">DDD Forum Website</text><rect fill="#FFFFFF" height="175.7969" style="stroke:#181818;stroke-width:1.0;" width="10" x="72.75" y="128.5938"/><rect fill="#FFFFFF" height="29.1328" style="stroke:#181818;stroke-width:1.0;" width="10" x="332.75" y="149.7266"/><rect fill="#FFFFFF" height="29.1328" style="stroke:#181818;stroke-width:1.0;" width="10" x="332.75" y="207.9922"/><rect fill="#FFFFFF" height="29.1328" style="stroke:#181818;stroke-width:1.0;" width="10" x="332.75" y="266.2578"/><polygon fill="#181818" points="320.75,145.7266,330.75,149.7266,320.75,153.7266,324.75,149.7266" style="stroke:#181818;stroke-width:1.0;"/><line style="stroke:#181818;stroke-width:1.0;" x1="82.75" x2="326.75" y1="149.7266" y2="149.7266"/><text fill="#000000" font-family="sans-serif" font-size="13" font-weight="bold" lengthAdjust="spacing" textLength="9" x="89.75" y="144.6606">1</text><text fill="#000000" font-family="sans-serif" font-size="13" lengthAdjust="spacing" textLength="193" x="102.75" y="144.6606">selects a post with comments</text><polygon fill="#181818" points="93.75,174.8594,83.75,178.8594,93.75,182.8594,89.75,178.8594" style="stroke:#181818;stroke-width:1.0;"/><line style="stroke:#181818;stroke-width:1.0;stroke-dasharray:2.0,2.0;" x1="87.75" x2="336.75" y1="178.8594" y2="178.8594"/><text fill="#000000" font-family="sans-serif" font-size="13" font-weight="bold" lengthAdjust="spacing" textLength="9" x="99.75" y="173.7935">2</text><text fill="#000000" font-family="sans-serif" font-size="13" lengthAdjust="spacing" textLength="213" x="112.75" y="173.7935">displays the post with comments</text><polygon fill="#181818" points="320.75,203.9922,330.75,207.9922,320.75,211.9922,324.75,207.9922" style="stroke:#181818;stroke-width:1.0;"/><line style="stroke:#181818;stroke-width:1.0;" x1="82.75" x2="326.75" y1="207.9922" y2="207.9922"/><text fill="#000000" font-family="sans-serif" font-size="13" font-weight="bold" lengthAdjust="spacing" textLength="8" x="89.75" y="202.9263">3</text><text fill="#000000" font-family="sans-serif" font-size="13" lengthAdjust="spacing" textLength="147" x="101.75" y="202.9263">votes on the comment</text><polygon fill="#181818" points="93.75,233.125,83.75,237.125,93.75,241.125,89.75,237.125" style="stroke:#181818;stroke-width:1.0;"/><line style="stroke:#181818;stroke-width:1.0;stroke-dasharray:2.0,2.0;" x1="87.75" x2="336.75" y1="237.125" y2="237.125"/><text fill="#000000" font-family="sans-serif" font-size="13" font-weight="bold" lengthAdjust="spacing" textLength="9" x="99.75" y="232.0591">4</text><text fill="#000000" font-family="sans-serif" font-size="13" lengthAdjust="spacing" textLength="201" x="112.75" y="232.0591">returns the updated vote count</text><polygon fill="#181818" points="320.75,262.2578,330.75,266.2578,320.75,270.2578,324.75,266.2578" style="stroke:#181818;stroke-width:1.0;"/><line style="stroke:#181818;stroke-width:1.0;" x1="82.75" x2="326.75" y1="266.2578" y2="266.2578"/><text fill="#000000" font-family="sans-serif" font-size="13" font-weight="bold" lengthAdjust="spacing" textLength="9" x="89.75" y="261.1919">5</text><text fill="#000000" font-family="sans-serif" font-size="13" lengthAdjust="spacing" textLength="104" x="102.75" y="261.1919">reverts the vote</text><polygon fill="#181818" points="93.75,291.3906,83.75,295.3906,93.75,299.3906,89.75,295.3906" style="stroke:#181818;stroke-width:1.0;"/><line style="stroke:#181818;stroke-width:1.0;stroke-dasharray:2.0,2.0;" x1="87.75" x2="336.75" y1="295.3906" y2="295.3906"/><text fill="#000000" font-family="sans-serif" font-size="13" font-weight="bold" lengthAdjust="spacing" textLength="9" x="99.75" y="290.3247">6</text><text fill="#000000" font-family="sans-serif" font-size="13" lengthAdjust="spacing" textLength="201" x="112.75" y="290.3247">returns the updated vote count</text><!--SRC=[dP2zSeCm381tFuKkU-woTCcGYVO5kBIpObJm1V_KafFZxIiWS1rWgIPRbZvz5jzTI9ZHWuyXsYv7Jo2vaE7r9Q6zOqkr33r19YiOslvl0NVOnASBBNnZpsICED7IQtqwlS4HFgCGn008DdfFGJHN3opaeQQVGi4IL0vRHHc3HM8e_aPPprPYXiELAHy06TvzwkD0P7IiEEiIAkjGLHLyn5myVD6DdT1KEm-O6Ew1Ah0s6z1ORd2yB2vdOEhrTwoYARB0qqctAFFKjS8MEhpYXJWgRIMVeN6SUXmOfACzP4ERq4s_XowInqsEl1TbqslCcNslJ59ocBLAQhIncTZAB3DnmsfVAzE3iiou4RE_gl_gR6_g5m00]--></g></svg>