<?xml version="1.0" encoding="us-ascii" standalone="no"?><svg xmlns="http://www.w3.org/2000/svg" xmlns:xlink="http://www.w3.org/1999/xlink" contentStyleType="text/css" height="277px" preserveAspectRatio="none" style="width:416px;height:277px;background:#FFFFFF;" version="1.1" viewBox="0 0 416 277" width="416px" zoomAndPan="magnify"><defs/><g><text fill="#000000" font-family="sans-serif" font-size="14" font-weight="bold" lengthAdjust="spacing" textLength="388" x="10" y="27.9951">US 012: Delete user - System Sequence Diagram</text><rect fill="#FFFFFF" height="59.2656" style="stroke:#181818;stroke-width:1.0;" width="10" x="60.25" y="128.5938"/><rect fill="#FFFFFF" height="29.1328" style="stroke:#181818;stroke-width:1.0;" width="10" x="277.25" y="149.7266"/><line style="stroke:#181818;stroke-width:0.5;stroke-dasharray:5.0,5.0;" x1="64.75" x2="64.75" y1="118.5938" y2="196.8594"/><line style="stroke:#181818;stroke-width:0.5;stroke-dasharray:5.0,5.0;" x1="282.25" x2="282.25" y1="118.5938" y2="196.8594"/><text fill="#000000" font-family="sans-serif" font-size="14" lengthAdjust="spacing" textLength="31" x="46.75" y="115.292">User</text><ellipse cx="65.25" cy="50.7969" fill="#E3E3E3" rx="8" ry="8" style="stroke:#181818;stroke-width:0.5;"/><path d="M65.25,58.7969 L65.25,85.7969 M52.25,66.7969 L78.25,66.7969 M65.25,85.7969 L52.25,100.7969 M65.25,85.7969 L78.25,100.7969 " fill="none" style="stroke:#181818;stroke-width:0.5;"/><text fill="#000000" font-family="sans-serif" font-size="14" lengthAdjust="spacing" textLength="31" x="46.75" y="208.8545">User</text><ellipse cx="65.25" cy="220.6563" fill="#E3E3E3" rx="8" ry="8" style="stroke:#181818;stroke-width:0.5;"/><path d="M65.25,228.6563 L65.25,255.6563 M52.25,236.6563 L78.25,236.6563 M65.25,255.6563 L52.25,270.6563 M65.25,255.6563 L78.25,270.6563 " fill="none" style="stroke:#181818;stroke-width:0.5;"/><rect fill="#E3E3E3" height="30.2969" rx="2.5" ry="2.5" style="stroke:#181818;stroke-width:0.5;" width="160" x="202.25" y="87.2969"/><text fill="#000000" font-family="sans-serif" font-size="14" lengthAdjust="spacing" textLength="146" x="209.25" y="107.292">DDD Forum Website</text><rect fill="#E3E3E3" height="30.2969" rx="2.5" ry="2.5" style="stroke:#181818;stroke-width:0.5;" width="160" x="202.25" y="195.8594"/><text fill="#000000" font-family="sans-serif" font-size="14" lengthAdjust="spacing" textLength="146" x="209.25" y="215.8545">DDD Forum Website</text><rect fill="#FFFFFF" height="59.2656" style="stroke:#181818;stroke-width:1.0;" width="10" x="60.25" y="128.5938"/><rect fill="#FFFFFF" height="29.1328" style="stroke:#181818;stroke-width:1.0;" width="10" x="277.25" y="149.7266"/><polygon fill="#181818" points="265.25,145.7266,275.25,149.7266,265.25,153.7266,269.25,149.7266" style="stroke:#181818;stroke-width:1.0;"/><line style="stroke:#181818;stroke-width:1.0;" x1="70.25" x2="271.25" y1="149.7266" y2="149.7266"/><text fill="#000000" font-family="sans-serif" font-size="13" font-weight="bold" lengthAdjust="spacing" textLength="9" x="77.25" y="144.6606">1</text><text fill="#000000" font-family="sans-serif" font-size="13" lengthAdjust="spacing" textLength="175" x="90.25" y="144.6606">selects "delete user" option</text><polygon fill="#181818" points="81.25,174.8594,71.25,178.8594,81.25,182.8594,77.25,178.8594" style="stroke:#181818;stroke-width:1.0;"/><line style="stroke:#181818;stroke-width:1.0;stroke-dasharray:2.0,2.0;" x1="75.25" x2="281.25" y1="178.8594" y2="178.8594"/><text fill="#000000" font-family="sans-serif" font-size="13" font-weight="bold" lengthAdjust="spacing" textLength="9" x="87.25" y="173.7935">2</text><text fill="#000000" font-family="sans-serif" font-size="13" lengthAdjust="spacing" textLength="102" x="100.25" y="173.7935">deletes account</text><!--SRC=[TOx1JiCm44Jl_egHxv60OuKuMVn0577UEjlKQcm7xnhKlyTr4KL5t4Qpisz6JY5jL2WYvfJziUJ8q5BPoCzb8t-YXKSzhup2NYajw- -076dEdo4jED0gR8m6RT5fnCFZqmwELrP65IuOC9v5EMBazyh9CroWfK6C8Q-vm4ujPa62Yp2jG8CF6oM5TSxXDPSQySPx2SezrznkVdiT53weDNQ2eQevrRY_Q3Fr4I_tJpj86-bLOEVRMekyQSZfHhplGk_0yp3y9Lv10l8-rwHcvlymNm00]--></g></svg>