<?xml version="1.0" encoding="us-ascii" standalone="no"?><svg xmlns="http://www.w3.org/2000/svg" xmlns:xlink="http://www.w3.org/1999/xlink" contentStyleType="text/css" height="1031px" preserveAspectRatio="none" style="width:2310px;height:1031px;background:#FFFFFF;" version="1.1" viewBox="0 0 2310 1031" width="2310px" zoomAndPan="magnify"><defs/><g><text fill="#000000" font-family="sans-serif" font-size="14" font-weight="bold" lengthAdjust="spacing" textLength="230" x="1039.25" y="27.9951">US 007: Reply to a comment</text><rect fill="#FFFFFF" height="791.6172" style="stroke:#181818;stroke-width:1.0;" width="10" x="113.5" y="149.7266"/><rect fill="#FFFFFF" height="762.4844" style="stroke:#181818;stroke-width:1.0;" width="10" x="401.5" y="178.8594"/><rect fill="#FFFFFF" height="716.3516" style="stroke:#181818;stroke-width:1.0;" width="10" x="406.5" y="215.9922"/><rect fill="#FFFFFF" height="649.9219" style="stroke:#181818;stroke-width:1.0;" width="10" x="776" y="291.4219"/><rect fill="#FFFFFF" height="29.1328" style="stroke:#181818;stroke-width:1.0;" width="10" x="1003" y="320.5547"/><rect fill="#FFFFFF" height="87.3984" style="stroke:#181818;stroke-width:1.0;" width="10" x="1098" y="437.0859"/><rect fill="#FFFFFF" height="29.1328" style="stroke:#181818;stroke-width:1.0;" width="10" x="1182" y="378.8203"/><rect fill="#FFFFFF" height="29.1328" style="stroke:#181818;stroke-width:1.0;" width="10" x="1259.5" y="466.2188"/><rect fill="#FFFFFF" height="87.3984" style="stroke:#181818;stroke-width:1.0;" width="10" x="1363.5" y="553.6172"/><rect fill="#FFFFFF" height="29.1328" style="stroke:#181818;stroke-width:1.0;" width="10" x="1542.5" y="582.75"/><rect fill="#FFFFFF" height="87.3984" style="stroke:#181818;stroke-width:1.0;" width="10" x="1666.5" y="670.1484"/><rect fill="#FFFFFF" height="29.1328" style="stroke:#181818;stroke-width:1.0;" width="10" x="1852.5" y="699.2813"/><rect fill="#FFFFFF" height="29.1328" style="stroke:#181818;stroke-width:1.0;" width="10" x="1980" y="786.6797"/><rect fill="#FFFFFF" height="29.1328" style="stroke:#181818;stroke-width:1.0;" width="10" x="2099" y="844.9453"/><line style="stroke:#181818;stroke-width:0.5;stroke-dasharray:5.0,5.0;" x1="23" x2="23" y1="118.5938" y2="950.3438"/><line style="stroke:#181818;stroke-width:0.5;stroke-dasharray:5.0,5.0;" x1="118" x2="118" y1="118.5938" y2="950.3438"/><line style="stroke:#181818;stroke-width:0.5;stroke-dasharray:5.0,5.0;" x1="406" x2="406" y1="118.5938" y2="950.3438"/><line style="stroke:#181818;stroke-width:0.5;stroke-dasharray:5.0,5.0;" x1="647" x2="647" y1="259.6406" y2="950.3438"/><line style="stroke:#181818;stroke-width:0.5;stroke-dasharray:5.0,5.0;" x1="781" x2="781" y1="118.5938" y2="950.3438"/><line style="stroke:#181818;stroke-width:0.5;stroke-dasharray:5.0,5.0;" x1="1007.5" x2="1007.5" y1="118.5938" y2="950.3438"/><line style="stroke:#181818;stroke-width:0.5;stroke-dasharray:5.0,5.0;" x1="1102.5" x2="1102.5" y1="118.5938" y2="950.3438"/><line style="stroke:#181818;stroke-width:0.5;stroke-dasharray:5.0,5.0;" x1="1186.5" x2="1186.5" y1="118.5938" y2="950.3438"/><line style="stroke:#181818;stroke-width:0.5;stroke-dasharray:5.0,5.0;" x1="1264.5" x2="1264.5" y1="118.5938" y2="950.3438"/><line style="stroke:#181818;stroke-width:0.5;stroke-dasharray:5.0,5.0;" x1="1368.5" x2="1368.5" y1="118.5938" y2="950.3438"/><line style="stroke:#181818;stroke-width:0.5;stroke-dasharray:5.0,5.0;" x1="1547.5" x2="1547.5" y1="118.5938" y2="950.3438"/><line style="stroke:#181818;stroke-width:0.5;stroke-dasharray:5.0,5.0;" x1="1671.5" x2="1671.5" y1="118.5938" y2="950.3438"/><line style="stroke:#181818;stroke-width:0.5;stroke-dasharray:5.0,5.0;" x1="1857.5" x2="1857.5" y1="118.5938" y2="950.3438"/><line style="stroke:#181818;stroke-width:0.5;stroke-dasharray:5.0,5.0;" x1="1984.5" x2="1984.5" y1="118.5938" y2="950.3438"/><line style="stroke:#181818;stroke-width:0.5;stroke-dasharray:5.0,5.0;" x1="2103.5" x2="2103.5" y1="118.5938" y2="950.3438"/><line style="stroke:#181818;stroke-width:0.5;stroke-dasharray:5.0,5.0;" x1="2233.5" x2="2233.5" y1="118.5938" y2="950.3438"/><text fill="#000000" font-family="sans-serif" font-size="14" lengthAdjust="spacing" textLength="31" x="5" y="115.292">User</text><ellipse cx="23.5" cy="50.7969" fill="#E2E2F0" rx="8" ry="8" style="stroke:#181818;stroke-width:0.5;"/><path d="M23.5,58.7969 L23.5,85.7969 M10.5,66.7969 L36.5,66.7969 M23.5,85.7969 L10.5,100.7969 M23.5,85.7969 L36.5,100.7969 " fill="none" style="stroke:#181818;stroke-width:0.5;"/><text fill="#000000" font-family="sans-serif" font-size="14" lengthAdjust="spacing" textLength="31" x="5" y="962.3389">User</text><ellipse cx="23.5" cy="974.1406" fill="#E2E2F0" rx="8" ry="8" style="stroke:#181818;stroke-width:0.5;"/><path d="M23.5,982.1406 L23.5,1009.1406 M10.5,990.1406 L36.5,990.1406 M23.5,1009.1406 L10.5,1024.1406 M23.5,1009.1406 L36.5,1024.1406 " fill="none" style="stroke:#181818;stroke-width:0.5;"/><rect fill="#E2E2F0" height="30.2969" rx="2.5" ry="2.5" style="stroke:#181818;stroke-width:0.5;" width="133" x="52" y="87.2969"/><text fill="#000000" font-family="sans-serif" font-size="14" lengthAdjust="spacing" textLength="119" x="59" y="107.292">commentRouter</text><rect fill="#E2E2F0" height="30.2969" rx="2.5" ry="2.5" style="stroke:#181818;stroke-width:0.5;" width="133" x="52" y="949.3438"/><text fill="#000000" font-family="sans-serif" font-size="14" lengthAdjust="spacing" textLength="119" x="59" y="969.3389">commentRouter</text><rect fill="#E2E2F0" height="30.2969" rx="2.5" ry="2.5" style="stroke:#181818;stroke-width:0.5;" width="423" x="195" y="87.2969"/><text fill="#000000" font-family="sans-serif" font-size="14" lengthAdjust="spacing" textLength="409" x="202" y="107.292">replyToCommentController:ReplyToCommentController</text><rect fill="#E2E2F0" height="30.2969" rx="2.5" ry="2.5" style="stroke:#181818;stroke-width:0.5;" width="423" x="195" y="949.3438"/><text fill="#000000" font-family="sans-serif" font-size="14" lengthAdjust="spacing" textLength="409" x="202" y="969.3389">replyToCommentController:ReplyToCommentController</text><rect fill="#E2E2F0" height="30.2969" rx="2.5" ry="2.5" style="stroke:#181818;stroke-width:0.5;" width="39" x="628" y="949.3438"/><text fill="#000000" font-family="sans-serif" font-size="14" lengthAdjust="spacing" textLength="25" x="635" y="969.3389">dto</text><rect fill="#E2E2F0" height="30.2969" rx="2.5" ry="2.5" style="stroke:#181818;stroke-width:0.5;" width="208" x="677" y="87.2969"/><text fill="#000000" font-family="sans-serif" font-size="14" lengthAdjust="spacing" textLength="194" x="684" y="107.292">useCase:ReplyToComment</text><rect fill="#E2E2F0" height="30.2969" rx="2.5" ry="2.5" style="stroke:#181818;stroke-width:0.5;" width="208" x="677" y="949.3438"/><text fill="#000000" font-family="sans-serif" font-size="14" lengthAdjust="spacing" textLength="194" x="684" y="969.3389">useCase:ReplyToComment</text><rect fill="#E2E2F0" height="30.2969" rx="2.5" ry="2.5" style="stroke:#181818;stroke-width:0.5;" width="81" x="967.5" y="87.2969"/><text fill="#000000" font-family="sans-serif" font-size="14" lengthAdjust="spacing" textLength="67" x="974.5" y="107.292">:PostSlug</text><rect fill="#E2E2F0" height="30.2969" rx="2.5" ry="2.5" style="stroke:#181818;stroke-width:0.5;" width="81" x="967.5" y="949.3438"/><text fill="#000000" font-family="sans-serif" font-size="14" lengthAdjust="spacing" textLength="67" x="974.5" y="969.3389">:PostSlug</text><rect fill="#E2E2F0" height="30.2969" rx="2.5" ry="2.5" style="stroke:#181818;stroke-width:0.5;" width="89" x="1058.5" y="87.2969"/><text fill="#000000" font-family="sans-serif" font-size="14" lengthAdjust="spacing" textLength="75" x="1065.5" y="107.292">:PostRepo</text><rect fill="#E2E2F0" height="30.2969" rx="2.5" ry="2.5" style="stroke:#181818;stroke-width:0.5;" width="89" x="1058.5" y="949.3438"/><text fill="#000000" font-family="sans-serif" font-size="14" lengthAdjust="spacing" textLength="75" x="1065.5" y="969.3389">:PostRepo</text><rect fill="#E2E2F0" height="30.2969" rx="2.5" ry="2.5" style="stroke:#181818;stroke-width:0.5;" width="59" x="1157.5" y="87.2969"/><text fill="#000000" font-family="sans-serif" font-size="14" lengthAdjust="spacing" textLength="45" x="1164.5" y="107.292">Result</text><rect fill="#E2E2F0" height="30.2969" rx="2.5" ry="2.5" style="stroke:#181818;stroke-width:0.5;" width="59" x="1157.5" y="949.3438"/><text fill="#000000" font-family="sans-serif" font-size="14" lengthAdjust="spacing" textLength="45" x="1164.5" y="969.3389">Result</text><rect fill="#E2E2F0" height="30.2969" rx="2.5" ry="2.5" style="stroke:#181818;stroke-width:0.5;" width="76" x="1226.5" y="87.2969"/><text fill="#000000" font-family="sans-serif" font-size="14" lengthAdjust="spacing" textLength="62" x="1233.5" y="107.292">PostMap</text><rect fill="#E2E2F0" height="30.2969" rx="2.5" ry="2.5" style="stroke:#181818;stroke-width:0.5;" width="76" x="1226.5" y="949.3438"/><text fill="#000000" font-family="sans-serif" font-size="14" lengthAdjust="spacing" textLength="62" x="1233.5" y="969.3389">PostMap</text><rect fill="#E2E2F0" height="30.2969" rx="2.5" ry="2.5" style="stroke:#181818;stroke-width:0.5;" width="112" x="1312.5" y="87.2969"/><text fill="#000000" font-family="sans-serif" font-size="14" lengthAdjust="spacing" textLength="98" x="1319.5" y="107.292">MemberRepo</text><rect fill="#E2E2F0" height="30.2969" rx="2.5" ry="2.5" style="stroke:#181818;stroke-width:0.5;" width="112" x="1312.5" y="949.3438"/><text fill="#000000" font-family="sans-serif" font-size="14" lengthAdjust="spacing" textLength="98" x="1319.5" y="969.3389">MemberRepo</text><rect fill="#E2E2F0" height="30.2969" rx="2.5" ry="2.5" style="stroke:#181818;stroke-width:0.5;" width="104" x="1495.5" y="87.2969"/><text fill="#000000" font-family="sans-serif" font-size="14" lengthAdjust="spacing" textLength="90" x="1502.5" y="107.292">MemberMap</text><rect fill="#E2E2F0" height="30.2969" rx="2.5" ry="2.5" style="stroke:#181818;stroke-width:0.5;" width="104" x="1495.5" y="949.3438"/><text fill="#000000" font-family="sans-serif" font-size="14" lengthAdjust="spacing" textLength="90" x="1502.5" y="969.3389">MemberMap</text><rect fill="#E2E2F0" height="30.2969" rx="2.5" ry="2.5" style="stroke:#181818;stroke-width:0.5;" width="124" x="1609.5" y="87.2969"/><text fill="#000000" font-family="sans-serif" font-size="14" lengthAdjust="spacing" textLength="110" x="1616.5" y="107.292">CommentRepo</text><rect fill="#E2E2F0" height="30.2969" rx="2.5" ry="2.5" style="stroke:#181818;stroke-width:0.5;" width="124" x="1609.5" y="949.3438"/><text fill="#000000" font-family="sans-serif" font-size="14" lengthAdjust="spacing" textLength="110" x="1616.5" y="969.3389">CommentRepo</text><rect fill="#E2E2F0" height="30.2969" rx="2.5" ry="2.5" style="stroke:#181818;stroke-width:0.5;" width="116" x="1799.5" y="87.2969"/><text fill="#000000" font-family="sans-serif" font-size="14" lengthAdjust="spacing" textLength="102" x="1806.5" y="107.292">CommentMap</text><rect fill="#E2E2F0" height="30.2969" rx="2.5" ry="2.5" style="stroke:#181818;stroke-width:0.5;" width="116" x="1799.5" y="949.3438"/><text fill="#000000" font-family="sans-serif" font-size="14" lengthAdjust="spacing" textLength="102" x="1806.5" y="969.3389">CommentMap</text><rect fill="#E2E2F0" height="30.2969" rx="2.5" ry="2.5" style="stroke:#181818;stroke-width:0.5;" width="119" x="1925.5" y="87.2969"/><text fill="#000000" font-family="sans-serif" font-size="14" lengthAdjust="spacing" textLength="105" x="1932.5" y="107.292">CommentText</text><rect fill="#E2E2F0" height="30.2969" rx="2.5" ry="2.5" style="stroke:#181818;stroke-width:0.5;" width="119" x="1925.5" y="949.3438"/><text fill="#000000" font-family="sans-serif" font-size="14" lengthAdjust="spacing" textLength="105" x="1932.5" y="969.3389">CommentText</text><rect fill="#E2E2F0" height="30.2969" rx="2.5" ry="2.5" style="stroke:#181818;stroke-width:0.5;" width="99" x="2054.5" y="87.2969"/><text fill="#000000" font-family="sans-serif" font-size="14" lengthAdjust="spacing" textLength="85" x="2061.5" y="107.292">PostService</text><rect fill="#E2E2F0" height="30.2969" rx="2.5" ry="2.5" style="stroke:#181818;stroke-width:0.5;" width="99" x="2054.5" y="949.3438"/><text fill="#000000" font-family="sans-serif" font-size="14" lengthAdjust="spacing" textLength="85" x="2061.5" y="969.3389">PostService</text><rect fill="#E2E2F0" height="30.2969" rx="2.5" ry="2.5" style="stroke:#181818;stroke-width:0.5;" width="141" x="2163.5" y="87.2969"/><text fill="#000000" font-family="sans-serif" font-size="14" lengthAdjust="spacing" textLength="127" x="2170.5" y="107.292">replyToComment</text><rect fill="#E2E2F0" height="30.2969" rx="2.5" ry="2.5" style="stroke:#181818;stroke-width:0.5;" width="141" x="2163.5" y="949.3438"/><text fill="#000000" font-family="sans-serif" font-size="14" lengthAdjust="spacing" textLength="127" x="2170.5" y="969.3389">replyToComment</text><rect fill="#FFFFFF" height="791.6172" style="stroke:#181818;stroke-width:1.0;" width="10" x="113.5" y="149.7266"/><rect fill="#FFFFFF" height="762.4844" style="stroke:#181818;stroke-width:1.0;" width="10" x="401.5" y="178.8594"/><rect fill="#FFFFFF" height="716.3516" style="stroke:#181818;stroke-width:1.0;" width="10" x="406.5" y="215.9922"/><rect fill="#FFFFFF" height="649.9219" style="stroke:#181818;stroke-width:1.0;" width="10" x="776" y="291.4219"/><rect fill="#FFFFFF" height="29.1328" style="stroke:#181818;stroke-width:1.0;" width="10" x="1003" y="320.5547"/><rect fill="#FFFFFF" height="87.3984" style="stroke:#181818;stroke-width:1.0;" width="10" x="1098" y="437.0859"/><rect fill="#FFFFFF" height="29.1328" style="stroke:#181818;stroke-width:1.0;" width="10" x="1182" y="378.8203"/><rect fill="#FFFFFF" height="29.1328" style="stroke:#181818;stroke-width:1.0;" width="10" x="1259.5" y="466.2188"/><rect fill="#FFFFFF" height="87.3984" style="stroke:#181818;stroke-width:1.0;" width="10" x="1363.5" y="553.6172"/><rect fill="#FFFFFF" height="29.1328" style="stroke:#181818;stroke-width:1.0;" width="10" x="1542.5" y="582.75"/><rect fill="#FFFFFF" height="87.3984" style="stroke:#181818;stroke-width:1.0;" width="10" x="1666.5" y="670.1484"/><rect fill="#FFFFFF" height="29.1328" style="stroke:#181818;stroke-width:1.0;" width="10" x="1852.5" y="699.2813"/><rect fill="#FFFFFF" height="29.1328" style="stroke:#181818;stroke-width:1.0;" width="10" x="1980" y="786.6797"/><rect fill="#FFFFFF" height="29.1328" style="stroke:#181818;stroke-width:1.0;" width="10" x="2099" y="844.9453"/><polygon fill="#181818" points="101.5,145.7266,111.5,149.7266,101.5,153.7266,105.5,149.7266" style="stroke:#181818;stroke-width:1.0;"/><line style="stroke:#181818;stroke-width:1.0;" x1="23.5" x2="107.5" y1="149.7266" y2="149.7266"/><text fill="#000000" font-family="sans-serif" font-size="13" font-weight="bold" lengthAdjust="spacing" textLength="9" x="30.5" y="144.6606">1</text><text fill="#000000" font-family="sans-serif" font-size="13" lengthAdjust="spacing" textLength="28" x="43.5" y="144.6606">post</text><polygon fill="#181818" points="389.5,174.8594,399.5,178.8594,389.5,182.8594,393.5,178.8594" style="stroke:#181818;stroke-width:1.0;"/><line style="stroke:#181818;stroke-width:1.0;" x1="123.5" x2="395.5" y1="178.8594" y2="178.8594"/><text fill="#000000" font-family="sans-serif" font-size="13" font-weight="bold" lengthAdjust="spacing" textLength="9" x="130.5" y="173.7935">2</text><text fill="#000000" font-family="sans-serif" font-size="13" lengthAdjust="spacing" textLength="111" x="143.5" y="173.7935">execute(req, res)</text><line style="stroke:#181818;stroke-width:1.0;" x1="411.5" x2="458.5" y1="202.9922" y2="202.9922"/><line style="stroke:#181818;stroke-width:1.0;" x1="458.5" x2="458.5" y1="202.9922" y2="215.9922"/><line style="stroke:#181818;stroke-width:1.0;" x1="417.5" x2="458.5" y1="215.9922" y2="215.9922"/><polygon fill="#181818" points="427.5,211.9922,417.5,215.9922,427.5,219.9922,423.5,215.9922" style="stroke:#181818;stroke-width:1.0;"/><text fill="#000000" font-family="sans-serif" font-size="13" font-weight="bold" lengthAdjust="spacing" textLength="8" x="423.5" y="197.9263">3</text><text fill="#000000" font-family="sans-serif" font-size="13" lengthAdjust="spacing" textLength="138" x="435.5" y="197.9263">executeImpl(req, res)</text><polygon fill="#181818" points="616,246.125,626,250.125,616,254.125,620,250.125" style="stroke:#181818;stroke-width:1.0;"/><line style="stroke:#181818;stroke-width:1.0;" x1="416.5" x2="622" y1="250.125" y2="250.125"/><text fill="#000000" font-family="sans-serif" font-size="13" font-weight="bold" lengthAdjust="spacing" textLength="9" x="423.5" y="245.0591">4</text><text fill="#000000" font-family="sans-serif" font-size="13" lengthAdjust="spacing" textLength="4" x="436.5" y="245.0591">&#160;</text><rect fill="#E2E2F0" height="30.2969" rx="2.5" ry="2.5" style="stroke:#181818;stroke-width:0.5;" width="39" x="628" y="228.9922"/><text fill="#000000" font-family="sans-serif" font-size="14" lengthAdjust="spacing" textLength="25" x="635" y="248.9873">dto</text><polygon fill="#181818" points="764,287.4219,774,291.4219,764,295.4219,768,291.4219" style="stroke:#181818;stroke-width:1.0;"/><line style="stroke:#181818;stroke-width:1.0;" x1="416.5" x2="770" y1="291.4219" y2="291.4219"/><text fill="#000000" font-family="sans-serif" font-size="13" font-weight="bold" lengthAdjust="spacing" textLength="9" x="423.5" y="286.356">5</text><text fill="#000000" font-family="sans-serif" font-size="13" lengthAdjust="spacing" textLength="83" x="436.5" y="286.356">execute(dto)</text><polygon fill="#181818" points="991,316.5547,1001,320.5547,991,324.5547,995,320.5547" style="stroke:#181818;stroke-width:1.0;"/><line style="stroke:#181818;stroke-width:1.0;" x1="786" x2="997" y1="320.5547" y2="320.5547"/><text fill="#000000" font-family="sans-serif" font-size="13" font-weight="bold" lengthAdjust="spacing" textLength="9" x="793" y="315.4888">6</text><text fill="#000000" font-family="sans-serif" font-size="13" lengthAdjust="spacing" textLength="185" x="806" y="315.4888">createFromExisting(req.slug)</text><polygon fill="#181818" points="797,345.6875,787,349.6875,797,353.6875,793,349.6875" style="stroke:#181818;stroke-width:1.0;"/><line style="stroke:#181818;stroke-width:1.0;stroke-dasharray:2.0,2.0;" x1="791" x2="1007" y1="349.6875" y2="349.6875"/><text fill="#000000" font-family="sans-serif" font-size="13" font-weight="bold" lengthAdjust="spacing" textLength="9" x="803" y="344.6216">7</text><text fill="#000000" font-family="sans-serif" font-size="13" lengthAdjust="spacing" textLength="134" x="816" y="344.6216">Result.ok&lt;PostSlug&gt;</text><polygon fill="#181818" points="1170,374.8203,1180,378.8203,1170,382.8203,1174,378.8203" style="stroke:#181818;stroke-width:1.0;"/><line style="stroke:#181818;stroke-width:1.0;" x1="786" x2="1176" y1="378.8203" y2="378.8203"/><text fill="#000000" font-family="sans-serif" font-size="13" font-weight="bold" lengthAdjust="spacing" textLength="9" x="793" y="373.7544">8</text><text fill="#000000" font-family="sans-serif" font-size="13" lengthAdjust="spacing" textLength="67" x="806" y="373.7544">getValue()</text><polygon fill="#181818" points="797,403.9531,787,407.9531,797,411.9531,793,407.9531" style="stroke:#181818;stroke-width:1.0;"/><line style="stroke:#181818;stroke-width:1.0;stroke-dasharray:2.0,2.0;" x1="791" x2="1186" y1="407.9531" y2="407.9531"/><text fill="#000000" font-family="sans-serif" font-size="13" font-weight="bold" lengthAdjust="spacing" textLength="9" x="803" y="402.8872">9</text><text fill="#000000" font-family="sans-serif" font-size="13" lengthAdjust="spacing" textLength="35" x="816" y="402.8872">value</text><polygon fill="#181818" points="1086,433.0859,1096,437.0859,1086,441.0859,1090,437.0859" style="stroke:#181818;stroke-width:1.0;"/><line style="stroke:#181818;stroke-width:1.0;" x1="786" x2="1092" y1="437.0859" y2="437.0859"/><text fill="#000000" font-family="sans-serif" font-size="13" font-weight="bold" lengthAdjust="spacing" textLength="19" x="793" y="432.02">10</text><text fill="#000000" font-family="sans-serif" font-size="13" lengthAdjust="spacing" textLength="167" x="816" y="432.02">getPostBySlug(slug.value)</text><polygon fill="#181818" points="1247.5,462.2188,1257.5,466.2188,1247.5,470.2188,1251.5,466.2188" style="stroke:#181818;stroke-width:1.0;"/><line style="stroke:#181818;stroke-width:1.0;" x1="1108" x2="1253.5" y1="466.2188" y2="466.2188"/><text fill="#000000" font-family="sans-serif" font-size="13" font-weight="bold" lengthAdjust="spacing" textLength="18" x="1115" y="461.1528">11</text><text fill="#000000" font-family="sans-serif" font-size="13" lengthAdjust="spacing" textLength="101" x="1137" y="461.1528">toDomain(post)</text><polygon fill="#181818" points="1119,491.3516,1109,495.3516,1119,499.3516,1115,495.3516" style="stroke:#181818;stroke-width:1.0;"/><line style="stroke:#181818;stroke-width:1.0;stroke-dasharray:2.0,2.0;" x1="1113" x2="1263.5" y1="495.3516" y2="495.3516"/><text fill="#000000" font-family="sans-serif" font-size="13" font-weight="bold" lengthAdjust="spacing" textLength="18" x="1125" y="490.2856">12</text><text fill="#000000" font-family="sans-serif" font-size="13" lengthAdjust="spacing" textLength="28" x="1147" y="490.2856">post</text><polygon fill="#181818" points="797,520.4844,787,524.4844,797,528.4844,793,524.4844" style="stroke:#181818;stroke-width:1.0;"/><line style="stroke:#181818;stroke-width:1.0;stroke-dasharray:2.0,2.0;" x1="791" x2="1102" y1="524.4844" y2="524.4844"/><text fill="#000000" font-family="sans-serif" font-size="13" font-weight="bold" lengthAdjust="spacing" textLength="17" x="803" y="519.4185">13</text><text fill="#000000" font-family="sans-serif" font-size="13" lengthAdjust="spacing" textLength="28" x="824" y="519.4185">post</text><polygon fill="#181818" points="1351.5,549.6172,1361.5,553.6172,1351.5,557.6172,1355.5,553.6172" style="stroke:#181818;stroke-width:1.0;"/><line style="stroke:#181818;stroke-width:1.0;" x1="786" x2="1357.5" y1="553.6172" y2="553.6172"/><text fill="#000000" font-family="sans-serif" font-size="13" font-weight="bold" lengthAdjust="spacing" textLength="18" x="793" y="548.5513">14</text><text fill="#000000" font-family="sans-serif" font-size="13" lengthAdjust="spacing" textLength="178" x="815" y="548.5513">getMemberByUserId(userId)</text><polygon fill="#181818" points="1530.5,578.75,1540.5,582.75,1530.5,586.75,1534.5,582.75" style="stroke:#181818;stroke-width:1.0;"/><line style="stroke:#181818;stroke-width:1.0;" x1="1373.5" x2="1536.5" y1="582.75" y2="582.75"/><text fill="#000000" font-family="sans-serif" font-size="13" font-weight="bold" lengthAdjust="spacing" textLength="18" x="1380.5" y="577.6841">15</text><text fill="#000000" font-family="sans-serif" font-size="13" lengthAdjust="spacing" textLength="128" x="1402.5" y="577.6841">toDomain(member)</text><polygon fill="#181818" points="1384.5,607.8828,1374.5,611.8828,1384.5,615.8828,1380.5,611.8828" style="stroke:#181818;stroke-width:1.0;"/><line style="stroke:#181818;stroke-width:1.0;stroke-dasharray:2.0,2.0;" x1="1378.5" x2="1546.5" y1="611.8828" y2="611.8828"/><text fill="#000000" font-family="sans-serif" font-size="13" font-weight="bold" lengthAdjust="spacing" textLength="18" x="1390.5" y="606.8169">16</text><text fill="#000000" font-family="sans-serif" font-size="13" lengthAdjust="spacing" textLength="55" x="1412.5" y="606.8169">member</text><polygon fill="#181818" points="797,637.0156,787,641.0156,797,645.0156,793,641.0156" style="stroke:#181818;stroke-width:1.0;"/><line style="stroke:#181818;stroke-width:1.0;stroke-dasharray:2.0,2.0;" x1="791" x2="1367.5" y1="641.0156" y2="641.0156"/><text fill="#000000" font-family="sans-serif" font-size="13" font-weight="bold" lengthAdjust="spacing" textLength="18" x="803" y="635.9497">17</text><text fill="#000000" font-family="sans-serif" font-size="13" lengthAdjust="spacing" textLength="28" x="825" y="635.9497">post</text><polygon fill="#181818" points="1654.5,666.1484,1664.5,670.1484,1654.5,674.1484,1658.5,670.1484" style="stroke:#181818;stroke-width:1.0;"/><line style="stroke:#181818;stroke-width:1.0;" x1="786" x2="1660.5" y1="670.1484" y2="670.1484"/><text fill="#000000" font-family="sans-serif" font-size="13" font-weight="bold" lengthAdjust="spacing" textLength="18" x="793" y="665.0825">18</text><text fill="#000000" font-family="sans-serif" font-size="13" lengthAdjust="spacing" textLength="259" x="815" y="665.0825">getCommentByCommentId(commentId)</text><polygon fill="#181818" points="1840.5,695.2813,1850.5,699.2813,1840.5,703.2813,1844.5,699.2813" style="stroke:#181818;stroke-width:1.0;"/><line style="stroke:#181818;stroke-width:1.0;" x1="1676.5" x2="1846.5" y1="699.2813" y2="699.2813"/><text fill="#000000" font-family="sans-serif" font-size="13" font-weight="bold" lengthAdjust="spacing" textLength="18" x="1683.5" y="694.2153">19</text><text fill="#000000" font-family="sans-serif" font-size="13" lengthAdjust="spacing" textLength="135" x="1705.5" y="694.2153">toDomain(comment)</text><polygon fill="#181818" points="1687.5,724.4141,1677.5,728.4141,1687.5,732.4141,1683.5,728.4141" style="stroke:#181818;stroke-width:1.0;"/><line style="stroke:#181818;stroke-width:1.0;stroke-dasharray:2.0,2.0;" x1="1681.5" x2="1856.5" y1="728.4141" y2="728.4141"/><text fill="#000000" font-family="sans-serif" font-size="13" font-weight="bold" lengthAdjust="spacing" textLength="19" x="1693.5" y="723.3481">20</text><text fill="#000000" font-family="sans-serif" font-size="13" lengthAdjust="spacing" textLength="62" x="1716.5" y="723.3481">comment</text><polygon fill="#181818" points="797,753.5469,787,757.5469,797,761.5469,793,757.5469" style="stroke:#181818;stroke-width:1.0;"/><line style="stroke:#181818;stroke-width:1.0;stroke-dasharray:2.0,2.0;" x1="791" x2="1670.5" y1="757.5469" y2="757.5469"/><text fill="#000000" font-family="sans-serif" font-size="13" font-weight="bold" lengthAdjust="spacing" textLength="18" x="803" y="752.481">21</text><text fill="#000000" font-family="sans-serif" font-size="13" lengthAdjust="spacing" textLength="62" x="825" y="752.481">comment</text><polygon fill="#181818" points="1968,782.6797,1978,786.6797,1968,790.6797,1972,786.6797" style="stroke:#181818;stroke-width:1.0;"/><line style="stroke:#181818;stroke-width:1.0;" x1="786" x2="1974" y1="786.6797" y2="786.6797"/><text fill="#000000" font-family="sans-serif" font-size="13" font-weight="bold" lengthAdjust="spacing" textLength="18" x="793" y="781.6138">22</text><text fill="#000000" font-family="sans-serif" font-size="13" lengthAdjust="spacing" textLength="55" x="815" y="781.6138">create ()</text><polygon fill="#181818" points="797,811.8125,787,815.8125,797,819.8125,793,815.8125" style="stroke:#181818;stroke-width:1.0;"/><line style="stroke:#181818;stroke-width:1.0;stroke-dasharray:2.0,2.0;" x1="791" x2="1984" y1="815.8125" y2="815.8125"/><text fill="#000000" font-family="sans-serif" font-size="13" font-weight="bold" lengthAdjust="spacing" textLength="17" x="803" y="810.7466">23</text><text fill="#000000" font-family="sans-serif" font-size="13" lengthAdjust="spacing" textLength="155" x="824" y="810.7466">right(Result.ok&lt;void&gt;())</text><polygon fill="#181818" points="2087,840.9453,2097,844.9453,2087,848.9453,2091,844.9453" style="stroke:#181818;stroke-width:1.0;"/><line style="stroke:#181818;stroke-width:1.0;" x1="786" x2="2093" y1="844.9453" y2="844.9453"/><text fill="#000000" font-family="sans-serif" font-size="13" font-weight="bold" lengthAdjust="spacing" textLength="18" x="793" y="839.8794">24</text><text fill="#000000" font-family="sans-serif" font-size="13" lengthAdjust="spacing" textLength="426" x="815" y="839.8794">replyToComment(post, member, parentComment, commentText)</text><polygon fill="#181818" points="797,870.0781,787,874.0781,797,878.0781,793,874.0781" style="stroke:#181818;stroke-width:1.0;"/><line style="stroke:#181818;stroke-width:1.0;stroke-dasharray:2.0,2.0;" x1="791" x2="2103" y1="874.0781" y2="874.0781"/><text fill="#000000" font-family="sans-serif" font-size="13" font-weight="bold" lengthAdjust="spacing" textLength="18" x="803" y="869.0122">25</text><text fill="#000000" font-family="sans-serif" font-size="13" lengthAdjust="spacing" textLength="155" x="825" y="869.0122">right(Result.ok&lt;void&gt;())</text><polygon fill="#181818" points="427.5,899.2109,417.5,903.2109,427.5,907.2109,423.5,903.2109" style="stroke:#181818;stroke-width:1.0;"/><line style="stroke:#181818;stroke-width:1.0;stroke-dasharray:2.0,2.0;" x1="421.5" x2="775" y1="903.2109" y2="903.2109"/><text fill="#000000" font-family="sans-serif" font-size="13" font-weight="bold" lengthAdjust="spacing" textLength="18" x="433.5" y="898.145">26</text><text fill="#000000" font-family="sans-serif" font-size="13" lengthAdjust="spacing" textLength="155" x="455.5" y="898.145">right(Result.ok&lt;void&gt;())</text><polygon fill="#181818" points="134.5,928.3438,124.5,932.3438,134.5,936.3438,130.5,932.3438" style="stroke:#181818;stroke-width:1.0;"/><line style="stroke:#181818;stroke-width:1.0;stroke-dasharray:2.0,2.0;" x1="128.5" x2="400.5" y1="932.3438" y2="932.3438"/><text fill="#000000" font-family="sans-serif" font-size="13" font-weight="bold" lengthAdjust="spacing" textLength="18" x="140.5" y="927.2778">27</text><text fill="#000000" font-family="sans-serif" font-size="13" lengthAdjust="spacing" textLength="45" x="162.5" y="927.2778">ok(res)</text><!--SRC=[dLN1ZjiW4Btp5QES72aRxQsILUMGj9NsiD8gkzixTKOfMjjuCOwIlo-3JGpOf6bF7c3Uc_S635he4k7z5HuVl-ImnwQyW9R0eP1LXRLclDEoxgfVg1ZZXPOA5kyjgWNm5YXW3LTQ5ABXjOR5WDhBJWyvmKoOhAZQczpr6JjPQoNB4bM-JonOmXGgu3ve6TRgMjpn5YDgInXEXR3yHRRwjUoEDjCDPd8CYRpcq80nwWuyRC8EvD2O1EgaE76DKNjOC2HmiaU0PonCLgRmSsNIskL8ccnHQk6kIazLK_vJjK8XhTDUt2hyj_LmVqRZ1kUfY7QHiN22YDpsvT0h-w5azVqiMYtg8nbRjsRHexnkjmlWOKRE7jkkr6lvyTMbRTW1foHpYdfi3aVKFtdPOHOOeZNMVsOhdmZYrneWAUzqB6qj6cmlf2eZosjB51ctPzW5Zk6PDxcv7hx9YeiwevCSeKm26xvMybZM7lkeBowxBp7ZS0vaXKqDFYFTKLUB_N1xeP_mwP1rzkE97TFP68uyeT7ApatG9FyQMVs-Y1xaguzHTzlsn4wD3-7L-J3UNeR0k2zSv5dmOCoBFSQm1mF7b87yZA7r4qXo3uddPufCjYADljsEDpnhzvz3DbLDwyoBPuihSVoji_47Fqbns6JBvOmQovUuSb2TH85vT57QtsSr79CLc2V5tdnsRULy4sry8_Lqp8l_MxpF5uk_-IJSGnwYRrpnyHi9ESYFp3uoIReH_mS0]--></g></svg>