<?xml version="1.0" encoding="us-ascii" standalone="no"?><svg xmlns="http://www.w3.org/2000/svg" xmlns:xlink="http://www.w3.org/1999/xlink" contentStyleType="text/css" height="841px" preserveAspectRatio="none" style="width:1521px;height:841px;background:#FFFFFF;" version="1.1" viewBox="0 0 1521 841" width="1521px" zoomAndPan="magnify"><defs/><g><text fill="#000000" font-family="sans-serif" font-size="14" font-weight="bold" lengthAdjust="spacing" textLength="291" x="614" y="27.9951">US 001: Sort the posts - Less-Voted</text><rect fill="#FFFFFF" height="592.5234" style="stroke:#181818;stroke-width:1.0;" width="10" x="258.5" y="149.7266"/><rect fill="#FFFFFF" height="572.3906" style="stroke:#181818;stroke-width:1.0;" width="10" x="454.5" y="178.8594"/><rect fill="#FFFFFF" height="69.2656" style="stroke:#181818;stroke-width:1.0;" width="10" x="459.5" y="215.9922"/><rect fill="#FFFFFF" height="354.5938" style="stroke:#181818;stroke-width:1.0;" width="10" x="459.5" y="358.5234"/><rect fill="#FFFFFF" height="71.2656" style="stroke:#181818;stroke-width:1.0;" width="10" x="699.5" y="250.125"/><rect fill="#FFFFFF" height="291.3281" style="stroke:#181818;stroke-width:1.0;" width="10" x="901" y="392.6563"/><rect fill="#FFFFFF" height="29.1328" style="stroke:#181818;stroke-width:1.0;" width="10" x="1208" y="421.7891"/><rect fill="#FFFFFF" height="29.1328" style="stroke:#181818;stroke-width:1.0;" width="10" x="1208" y="480.0547"/><rect fill="#FFFFFF" height="29.1328" style="stroke:#181818;stroke-width:1.0;" width="10" x="1362.5" y="538.3203"/><line style="stroke:#181818;stroke-width:0.5;stroke-dasharray:5.0,5.0;" x1="23" x2="23" y1="118.5938" y2="760.25"/><line style="stroke:#181818;stroke-width:0.5;stroke-dasharray:5.0,5.0;" x1="263" x2="263" y1="118.5938" y2="760.25"/><line style="stroke:#181818;stroke-width:0.5;stroke-dasharray:5.0,5.0;" x1="459" x2="459" y1="118.5938" y2="760.25"/><line style="stroke:#181818;stroke-width:0.5;stroke-dasharray:5.0,5.0;" x1="704.5" x2="704.5" y1="118.5938" y2="760.25"/><line style="stroke:#181818;stroke-width:0.5;stroke-dasharray:5.0,5.0;" x1="905.5" x2="905.5" y1="118.5938" y2="760.25"/><line style="stroke:#181818;stroke-width:0.5;stroke-dasharray:5.0,5.0;" x1="1212.5" x2="1212.5" y1="118.5938" y2="760.25"/><line style="stroke:#181818;stroke-width:0.5;stroke-dasharray:5.0,5.0;" x1="1367.5" x2="1367.5" y1="118.5938" y2="760.25"/><line style="stroke:#181818;stroke-width:0.5;stroke-dasharray:5.0,5.0;" x1="1485" x2="1485" y1="118.5938" y2="760.25"/><text fill="#000000" font-family="sans-serif" font-size="14" lengthAdjust="spacing" textLength="31" x="5" y="115.292">User</text><ellipse cx="23.5" cy="50.7969" fill="#E2E2F0" rx="8" ry="8" style="stroke:#181818;stroke-width:0.5;"/><path d="M23.5,58.7969 L23.5,85.7969 M10.5,66.7969 L36.5,66.7969 M23.5,85.7969 L10.5,100.7969 M23.5,85.7969 L36.5,100.7969 " fill="none" style="stroke:#181818;stroke-width:0.5;"/><text fill="#000000" font-family="sans-serif" font-size="14" lengthAdjust="spacing" textLength="31" x="5" y="772.2451">User</text><ellipse cx="23.5" cy="784.0469" fill="#E2E2F0" rx="8" ry="8" style="stroke:#181818;stroke-width:0.5;"/><path d="M23.5,792.0469 L23.5,819.0469 M10.5,800.0469 L36.5,800.0469 M23.5,819.0469 L10.5,834.0469 M23.5,819.0469 L36.5,834.0469 " fill="none" style="stroke:#181818;stroke-width:0.5;"/><rect fill="#E2E2F0" height="30.2969" rx="2.5" ry="2.5" style="stroke:#181818;stroke-width:0.5;" width="95" x="216" y="87.2969"/><text fill="#000000" font-family="sans-serif" font-size="14" lengthAdjust="spacing" textLength="81" x="223" y="107.292">PostRouter</text><rect fill="#E2E2F0" height="30.2969" rx="2.5" ry="2.5" style="stroke:#181818;stroke-width:0.5;" width="95" x="216" y="759.25"/><text fill="#000000" font-family="sans-serif" font-size="14" lengthAdjust="spacing" textLength="81" x="223" y="779.2451">PostRouter</text><rect fill="#E2E2F0" height="46.5938" rx="2.5" ry="2.5" style="stroke:#181818;stroke-width:0.5;" width="193" x="363" y="71"/><text fill="#000000" font-family="sans-serif" font-size="14" lengthAdjust="spacing" textLength="178" x="370.5" y="90.9951">getLessVotedController:</text><text fill="#000000" font-family="sans-serif" font-size="14" lengthAdjust="spacing" textLength="175" x="374" y="107.292">GetLessVotedController</text><rect fill="#E2E2F0" height="46.5938" rx="2.5" ry="2.5" style="stroke:#181818;stroke-width:0.5;" width="193" x="363" y="759.25"/><text fill="#000000" font-family="sans-serif" font-size="14" lengthAdjust="spacing" textLength="178" x="370.5" y="779.2451">getLessVotedController:</text><text fill="#000000" font-family="sans-serif" font-size="14" lengthAdjust="spacing" textLength="175" x="374" y="795.542">GetLessVotedController</text><rect fill="#E2E2F0" height="30.2969" rx="2.5" ry="2.5" style="stroke:#181818;stroke-width:0.5;" width="206" x="601.5" y="87.2969"/><text fill="#000000" font-family="sans-serif" font-size="14" lengthAdjust="spacing" textLength="192" x="608.5" y="107.292">GetLessVotedRequestDTO</text><rect fill="#E2E2F0" height="30.2969" rx="2.5" ry="2.5" style="stroke:#181818;stroke-width:0.5;" width="206" x="601.5" y="759.25"/><text fill="#000000" font-family="sans-serif" font-size="14" lengthAdjust="spacing" textLength="192" x="608.5" y="779.2451">GetLessVotedRequestDTO</text><rect fill="#E2E2F0" height="30.2969" rx="2.5" ry="2.5" style="stroke:#181818;stroke-width:0.5;" width="177" x="817.5" y="87.2969"/><text fill="#000000" font-family="sans-serif" font-size="14" lengthAdjust="spacing" textLength="163" x="824.5" y="107.292">usecase:GetLessVoted</text><rect fill="#E2E2F0" height="30.2969" rx="2.5" ry="2.5" style="stroke:#181818;stroke-width:0.5;" width="177" x="817.5" y="759.25"/><text fill="#000000" font-family="sans-serif" font-size="14" lengthAdjust="spacing" textLength="163" x="824.5" y="779.2451">usecase:GetLessVoted</text><rect fill="#E2E2F0" height="30.2969" rx="2.5" ry="2.5" style="stroke:#181818;stroke-width:0.5;" width="163" x="1131.5" y="87.2969"/><text fill="#000000" font-family="sans-serif" font-size="14" lengthAdjust="spacing" textLength="149" x="1138.5" y="107.292">PostRepo: PostRepo</text><rect fill="#E2E2F0" height="30.2969" rx="2.5" ry="2.5" style="stroke:#181818;stroke-width:0.5;" width="163" x="1131.5" y="759.25"/><text fill="#000000" font-family="sans-serif" font-size="14" lengthAdjust="spacing" textLength="149" x="1138.5" y="779.2451">PostRepo: PostRepo</text><rect fill="#E2E2F0" height="30.2969" rx="2.5" ry="2.5" style="stroke:#181818;stroke-width:0.5;" width="126" x="1304.5" y="87.2969"/><text fill="#000000" font-family="sans-serif" font-size="14" lengthAdjust="spacing" textLength="112" x="1311.5" y="107.292">PostDetailsMap</text><rect fill="#E2E2F0" height="30.2969" rx="2.5" ry="2.5" style="stroke:#181818;stroke-width:0.5;" width="126" x="1304.5" y="759.25"/><text fill="#000000" font-family="sans-serif" font-size="14" lengthAdjust="spacing" textLength="112" x="1311.5" y="779.2451">PostDetailsMap</text><rect fill="#E2E2F0" height="30.2969" rx="2.5" ry="2.5" style="stroke:#181818;stroke-width:0.5;" width="59" x="1456" y="87.2969"/><text fill="#000000" font-family="sans-serif" font-size="14" lengthAdjust="spacing" textLength="45" x="1463" y="107.292">Result</text><rect fill="#E2E2F0" height="30.2969" rx="2.5" ry="2.5" style="stroke:#181818;stroke-width:0.5;" width="59" x="1456" y="759.25"/><text fill="#000000" font-family="sans-serif" font-size="14" lengthAdjust="spacing" textLength="45" x="1463" y="779.2451">Result</text><rect fill="#FFFFFF" height="592.5234" style="stroke:#181818;stroke-width:1.0;" width="10" x="258.5" y="149.7266"/><rect fill="#FFFFFF" height="572.3906" style="stroke:#181818;stroke-width:1.0;" width="10" x="454.5" y="178.8594"/><rect fill="#FFFFFF" height="69.2656" style="stroke:#181818;stroke-width:1.0;" width="10" x="459.5" y="215.9922"/><rect fill="#FFFFFF" height="354.5938" style="stroke:#181818;stroke-width:1.0;" width="10" x="459.5" y="358.5234"/><rect fill="#FFFFFF" height="71.2656" style="stroke:#181818;stroke-width:1.0;" width="10" x="699.5" y="250.125"/><rect fill="#FFFFFF" height="291.3281" style="stroke:#181818;stroke-width:1.0;" width="10" x="901" y="392.6563"/><rect fill="#FFFFFF" height="29.1328" style="stroke:#181818;stroke-width:1.0;" width="10" x="1208" y="421.7891"/><rect fill="#FFFFFF" height="29.1328" style="stroke:#181818;stroke-width:1.0;" width="10" x="1208" y="480.0547"/><rect fill="#FFFFFF" height="29.1328" style="stroke:#181818;stroke-width:1.0;" width="10" x="1362.5" y="538.3203"/><polygon fill="#181818" points="246.5,145.7266,256.5,149.7266,246.5,153.7266,250.5,149.7266" style="stroke:#181818;stroke-width:1.0;"/><line style="stroke:#181818;stroke-width:1.0;" x1="23.5" x2="252.5" y1="149.7266" y2="149.7266"/><text fill="#000000" font-family="sans-serif" font-size="13" font-weight="bold" lengthAdjust="spacing" textLength="9" x="30.5" y="144.6606">1</text><text fill="#000000" font-family="sans-serif" font-size="13" lengthAdjust="spacing" textLength="203" x="43.5" y="144.6606">GET ("/api/v1/posts/less-voted")</text><polygon fill="#181818" points="442.5,174.8594,452.5,178.8594,442.5,182.8594,446.5,178.8594" style="stroke:#181818;stroke-width:1.0;"/><line style="stroke:#181818;stroke-width:1.0;" x1="268.5" x2="448.5" y1="178.8594" y2="178.8594"/><text fill="#000000" font-family="sans-serif" font-size="13" font-weight="bold" lengthAdjust="spacing" textLength="9" x="275.5" y="173.7935">2</text><text fill="#000000" font-family="sans-serif" font-size="13" lengthAdjust="spacing" textLength="111" x="288.5" y="173.7935">execute(req, res)</text><line style="stroke:#181818;stroke-width:1.0;" x1="464.5" x2="511.5" y1="202.9922" y2="202.9922"/><line style="stroke:#181818;stroke-width:1.0;" x1="511.5" x2="511.5" y1="202.9922" y2="215.9922"/><line style="stroke:#181818;stroke-width:1.0;" x1="470.5" x2="511.5" y1="215.9922" y2="215.9922"/><polygon fill="#181818" points="480.5,211.9922,470.5,215.9922,480.5,219.9922,476.5,215.9922" style="stroke:#181818;stroke-width:1.0;"/><text fill="#000000" font-family="sans-serif" font-size="13" font-weight="bold" lengthAdjust="spacing" textLength="8" x="476.5" y="197.9263">3</text><text fill="#000000" font-family="sans-serif" font-size="13" lengthAdjust="spacing" textLength="138" x="488.5" y="197.9263">executeImpl(req, res)</text><polygon fill="#181818" points="687.5,246.125,697.5,250.125,687.5,254.125,691.5,250.125" style="stroke:#181818;stroke-width:1.0;"/><line style="stroke:#181818;stroke-width:1.0;" x1="469.5" x2="693.5" y1="250.125" y2="250.125"/><text fill="#000000" font-family="sans-serif" font-size="13" font-weight="bold" lengthAdjust="spacing" textLength="9" x="476.5" y="245.0591">4</text><text fill="#000000" font-family="sans-serif" font-size="13" lengthAdjust="spacing" textLength="198" x="489.5" y="245.0591">Cria DTO a partir da solicita&#231;&#227;o</text><line style="stroke:#181818;stroke-width:1.0;" x1="469.5" x2="511.5" y1="284.2578" y2="284.2578"/><line style="stroke:#181818;stroke-width:1.0;" x1="511.5" x2="511.5" y1="284.2578" y2="297.2578"/><line style="stroke:#181818;stroke-width:1.0;" x1="464.5" x2="511.5" y1="297.2578" y2="297.2578"/><polygon fill="#181818" points="474.5,293.2578,464.5,297.2578,474.5,301.2578,470.5,297.2578" style="stroke:#181818;stroke-width:1.0;"/><text fill="#000000" font-family="sans-serif" font-size="13" font-weight="bold" lengthAdjust="spacing" textLength="9" x="476.5" y="279.1919">5</text><text fill="#000000" font-family="sans-serif" font-size="13" lengthAdjust="spacing" textLength="138" x="489.5" y="279.1919">executeImpl(req, res)</text><polygon fill="#181818" points="475.5,317.3906,465.5,321.3906,475.5,325.3906,471.5,321.3906" style="stroke:#181818;stroke-width:1.0;"/><line style="stroke:#181818;stroke-width:1.0;stroke-dasharray:2.0,2.0;" x1="469.5" x2="703.5" y1="321.3906" y2="321.3906"/><text fill="#000000" font-family="sans-serif" font-size="13" font-weight="bold" lengthAdjust="spacing" textLength="9" x="481.5" y="316.3247">6</text><text fill="#000000" font-family="sans-serif" font-size="13" lengthAdjust="spacing" textLength="95" x="494.5" y="316.3247">Retorna o DTO</text><line style="stroke:#181818;stroke-width:1.0;" x1="464.5" x2="511.5" y1="345.5234" y2="345.5234"/><line style="stroke:#181818;stroke-width:1.0;" x1="511.5" x2="511.5" y1="345.5234" y2="358.5234"/><line style="stroke:#181818;stroke-width:1.0;" x1="470.5" x2="511.5" y1="358.5234" y2="358.5234"/><polygon fill="#181818" points="480.5,354.5234,470.5,358.5234,480.5,362.5234,476.5,358.5234" style="stroke:#181818;stroke-width:1.0;"/><text fill="#000000" font-family="sans-serif" font-size="13" font-weight="bold" lengthAdjust="spacing" textLength="9" x="476.5" y="340.4575">7</text><text fill="#000000" font-family="sans-serif" font-size="13" lengthAdjust="spacing" textLength="90" x="489.5" y="340.4575">GetLessVoted</text><polygon fill="#181818" points="889,388.6563,899,392.6563,889,396.6563,893,392.6563" style="stroke:#181818;stroke-width:1.0;"/><line style="stroke:#181818;stroke-width:1.0;" x1="469.5" x2="895" y1="392.6563" y2="392.6563"/><text fill="#000000" font-family="sans-serif" font-size="13" font-weight="bold" lengthAdjust="spacing" textLength="9" x="476.5" y="387.5903">8</text><text fill="#000000" font-family="sans-serif" font-size="13" lengthAdjust="spacing" textLength="139" x="489.5" y="387.5903">Chama o caso de uso</text><polygon fill="#181818" points="1196,417.7891,1206,421.7891,1196,425.7891,1200,421.7891" style="stroke:#181818;stroke-width:1.0;"/><line style="stroke:#181818;stroke-width:1.0;" x1="911" x2="1202" y1="421.7891" y2="421.7891"/><text fill="#000000" font-family="sans-serif" font-size="13" font-weight="bold" lengthAdjust="spacing" textLength="9" x="918" y="416.7231">9</text><text fill="#000000" font-family="sans-serif" font-size="13" lengthAdjust="spacing" textLength="205" x="931" y="416.7231">Obt&#233;m dados da base de dados</text><polygon fill="#181818" points="922,446.9219,912,450.9219,922,454.9219,918,450.9219" style="stroke:#181818;stroke-width:1.0;"/><line style="stroke:#181818;stroke-width:1.0;stroke-dasharray:2.0,2.0;" x1="916" x2="1212" y1="450.9219" y2="450.9219"/><text fill="#000000" font-family="sans-serif" font-size="13" font-weight="bold" lengthAdjust="spacing" textLength="19" x="928" y="445.856">10</text><text fill="#000000" font-family="sans-serif" font-size="13" lengthAdjust="spacing" textLength="94" x="951" y="445.856">Retorna dados</text><polygon fill="#181818" points="1196,476.0547,1206,480.0547,1196,484.0547,1200,480.0547" style="stroke:#181818;stroke-width:1.0;"/><line style="stroke:#181818;stroke-width:1.0;" x1="911" x2="1202" y1="480.0547" y2="480.0547"/><text fill="#000000" font-family="sans-serif" font-size="13" font-weight="bold" lengthAdjust="spacing" textLength="18" x="918" y="474.9888">11</text><text fill="#000000" font-family="sans-serif" font-size="13" lengthAdjust="spacing" textLength="169" x="940" y="474.9888">Obt&#233;m detalhes dos posts</text><polygon fill="#181818" points="922,505.1875,912,509.1875,922,513.1875,918,509.1875" style="stroke:#181818;stroke-width:1.0;"/><line style="stroke:#181818;stroke-width:1.0;stroke-dasharray:2.0,2.0;" x1="916" x2="1212" y1="509.1875" y2="509.1875"/><text fill="#000000" font-family="sans-serif" font-size="13" font-weight="bold" lengthAdjust="spacing" textLength="18" x="928" y="504.1216">12</text><text fill="#000000" font-family="sans-serif" font-size="13" lengthAdjust="spacing" textLength="176" x="950" y="504.1216">Retorna detalhes dos posts</text><polygon fill="#181818" points="1350.5,534.3203,1360.5,538.3203,1350.5,542.3203,1354.5,538.3203" style="stroke:#181818;stroke-width:1.0;"/><line style="stroke:#181818;stroke-width:1.0;" x1="911" x2="1356.5" y1="538.3203" y2="538.3203"/><text fill="#000000" font-family="sans-serif" font-size="13" font-weight="bold" lengthAdjust="spacing" textLength="17" x="918" y="533.2544">13</text><text fill="#000000" font-family="sans-serif" font-size="13" lengthAdjust="spacing" textLength="170" x="939" y="533.2544">Mapeia detalhes dos posts</text><polygon fill="#181818" points="1473.5,563.4531,1483.5,567.4531,1473.5,571.4531,1477.5,567.4531" style="stroke:#181818;stroke-width:1.0;"/><line style="stroke:#181818;stroke-width:1.0;stroke-dasharray:2.0,2.0;" x1="1367.5" x2="1479.5" y1="567.4531" y2="567.4531"/><text fill="#000000" font-family="sans-serif" font-size="13" font-weight="bold" lengthAdjust="spacing" textLength="18" x="1374.5" y="562.3872">14</text><text fill="#000000" font-family="sans-serif" font-size="13" lengthAdjust="spacing" textLength="67" x="1396.5" y="562.3872">getValue()</text><polygon fill="#181818" points="1378.5,592.5859,1368.5,596.5859,1378.5,600.5859,1374.5,596.5859" style="stroke:#181818;stroke-width:1.0;"/><line style="stroke:#181818;stroke-width:1.0;stroke-dasharray:2.0,2.0;" x1="1372.5" x2="1484.5" y1="596.5859" y2="596.5859"/><text fill="#000000" font-family="sans-serif" font-size="13" font-weight="bold" lengthAdjust="spacing" textLength="18" x="1384.5" y="591.52">15</text><text fill="#000000" font-family="sans-serif" font-size="13" lengthAdjust="spacing" textLength="35" x="1406.5" y="591.52">value</text><polygon fill="#181818" points="1224,621.7188,1214,625.7188,1224,629.7188,1220,625.7188" style="stroke:#181818;stroke-width:1.0;"/><line style="stroke:#181818;stroke-width:1.0;" x1="1218" x2="1366.5" y1="625.7188" y2="625.7188"/><text fill="#000000" font-family="sans-serif" font-size="13" font-weight="bold" lengthAdjust="spacing" textLength="18" x="1230" y="620.6528">16</text><text fill="#000000" font-family="sans-serif" font-size="13" lengthAdjust="spacing" textLength="35" x="1252" y="620.6528">value</text><polygon fill="#181818" points="922,650.8516,912,654.8516,922,658.8516,918,654.8516" style="stroke:#181818;stroke-width:1.0;"/><line style="stroke:#181818;stroke-width:1.0;" x1="916" x2="1212" y1="654.8516" y2="654.8516"/><text fill="#000000" font-family="sans-serif" font-size="13" font-weight="bold" lengthAdjust="spacing" textLength="18" x="928" y="649.7856">17</text><text fill="#000000" font-family="sans-serif" font-size="13" lengthAdjust="spacing" textLength="256" x="950" y="649.7856">result.ok&lt;GetLessVotedResponseDTO&gt;</text><polygon fill="#181818" points="480.5,679.9844,470.5,683.9844,480.5,687.9844,476.5,683.9844" style="stroke:#181818;stroke-width:1.0;"/><line style="stroke:#181818;stroke-width:1.0;stroke-dasharray:2.0,2.0;" x1="474.5" x2="905" y1="683.9844" y2="683.9844"/><text fill="#000000" font-family="sans-serif" font-size="13" font-weight="bold" lengthAdjust="spacing" textLength="18" x="486.5" y="678.9185">18</text><text fill="#000000" font-family="sans-serif" font-size="13" lengthAdjust="spacing" textLength="216" x="508.5" y="678.9185">ok&lt;GetLessVotedResponseDTO&gt;</text><polygon fill="#181818" points="279.5,709.1172,269.5,713.1172,279.5,717.1172,275.5,713.1172" style="stroke:#181818;stroke-width:1.0;"/><line style="stroke:#181818;stroke-width:1.0;stroke-dasharray:2.0,2.0;" x1="273.5" x2="453.5" y1="713.1172" y2="713.1172"/><text fill="#000000" font-family="sans-serif" font-size="13" font-weight="bold" lengthAdjust="spacing" textLength="18" x="285.5" y="708.0513">19</text><text fill="#000000" font-family="sans-serif" font-size="13" lengthAdjust="spacing" textLength="140" x="307.5" y="708.0513">Resposta HTTP criada</text><polygon fill="#181818" points="34.5,738.25,24.5,742.25,34.5,746.25,30.5,742.25" style="stroke:#181818;stroke-width:1.0;"/><line style="stroke:#181818;stroke-width:1.0;stroke-dasharray:2.0,2.0;" x1="28.5" x2="262.5" y1="742.25" y2="742.25"/><text fill="#000000" font-family="sans-serif" font-size="13" font-weight="bold" lengthAdjust="spacing" textLength="19" x="40.5" y="737.1841">20</text><text fill="#000000" font-family="sans-serif" font-size="13" lengthAdjust="spacing" textLength="152" x="63.5" y="737.1841">Resposta HTTP enviada</text><!--SRC=[jLNBJXj14Bpp5IsVZ1J7S1r5N20YaK0WOpZbqjvjnIl6EyjCxuh_uH3bE_nZwHdBtjcNOmkuM3kFhgwkTlLmnfhWyG7EpiuLF1ZBm4k2mZXsC84RScxoP9ZI4pW1BDdavMf1DgmIDXOUdLyLQ3bBiW9pXdk9dPcIs_kZtyGUBy1TcfojqPgi-fN3TU_92D0D73MHupipUYd9yTNyhfMzT9IW8nLVxcHenOHIg30AjbyXOhlerdr5Z9bsjrWqpsRaIirUjI0OJ2uYcHHSVv_3U3J58fjMvzCW_bHxwQl0ybJ2HEsiGgQ6lB8VhJrglrmAw9KIkJEszF85B3aFMMCEYUmlzPyTaEldgj2Vbgzkiu9Bco785-16SmifWZDQn6TS_rc_cS7ayR_bWujDwUXoQpOmsPDoHcAy7C50u3sOwlt5DQtneGsKjYrnvOiGLnef0KettASkyiv2mPvt2rx_NKdVK-DyznVYT8yPDXgejNTtvf5LH-zQvHr4f78JvF-qP2he9GapOHVS_KvAlNX7yQi7bGBveGmFOHcFjotNUYymtamw1JBidr2ND3xjuTR6sGI5-3QvoeEq8A9fsg4GozyNErJ6HlAsuZPa-cgUlpMDvGgJEn9dNHoX_1wZ7PvWlojYlxNUc83f6E77V7uFYSpC58-OK_4p8yZ-5MjZKbxrWCRlLUF0G_m3]--></g></svg>