<?xml version="1.0" encoding="us-ascii" standalone="no"?><svg xmlns="http://www.w3.org/2000/svg" xmlns:xlink="http://www.w3.org/1999/xlink" contentStyleType="text/css" height="652px" preserveAspectRatio="none" style="width:1551px;height:652px;background:#FFFFFF;" version="1.1" viewBox="0 0 1551 652" width="1551px" zoomAndPan="magnify"><defs/><g><text fill="#000000" font-family="sans-serif" font-size="14" font-weight="bold" lengthAdjust="spacing" textLength="185" x="682" y="27.9951">US 001: Sort the posts</text><rect fill="#FFFFFF" height="412.8906" style="stroke:#181818;stroke-width:1.0;" width="10" x="232.5" y="149.7266"/><rect fill="#FFFFFF" height="345.625" style="stroke:#181818;stroke-width:1.0;" width="10" x="491.5" y="178.8594"/><rect fill="#FFFFFF" height="279.3594" style="stroke:#181818;stroke-width:1.0;" width="10" x="496.5" y="215.9922"/><rect fill="#FFFFFF" height="203.9297" style="stroke:#181818;stroke-width:1.0;" width="10" x="1032.5" y="291.4219"/><rect fill="#FFFFFF" height="145.6641" style="stroke:#181818;stroke-width:1.0;" width="10" x="1248.5" y="320.5547"/><rect fill="#FFFFFF" height="87.3984" style="stroke:#181818;stroke-width:1.0;" width="10" x="1401.5" y="349.6875"/><rect fill="#FFFFFF" height="29.1328" style="stroke:#181818;stroke-width:1.0;" width="10" x="1510.5" y="378.8203"/><line style="stroke:#181818;stroke-width:0.5;stroke-dasharray:5.0,5.0;" x1="23" x2="23" y1="118.5938" y2="571.6172"/><line style="stroke:#181818;stroke-width:0.5;stroke-dasharray:5.0,5.0;" x1="237" x2="237" y1="118.5938" y2="571.6172"/><line style="stroke:#181818;stroke-width:0.5;stroke-dasharray:5.0,5.0;" x1="496" x2="496" y1="118.5938" y2="571.6172"/><line style="stroke:#181818;stroke-width:0.5;stroke-dasharray:5.0,5.0;" x1="819" x2="819" y1="259.6406" y2="571.6172"/><line style="stroke:#181818;stroke-width:0.5;stroke-dasharray:5.0,5.0;" x1="1037" x2="1037" y1="118.5938" y2="571.6172"/><line style="stroke:#181818;stroke-width:0.5;stroke-dasharray:5.0,5.0;" x1="1253.5" x2="1253.5" y1="118.5938" y2="571.6172"/><line style="stroke:#181818;stroke-width:0.5;stroke-dasharray:5.0,5.0;" x1="1406.5" x2="1406.5" y1="118.5938" y2="571.6172"/><line style="stroke:#181818;stroke-width:0.5;stroke-dasharray:5.0,5.0;" x1="1515" x2="1515" y1="118.5938" y2="571.6172"/><text fill="#000000" font-family="sans-serif" font-size="14" lengthAdjust="spacing" textLength="31" x="5" y="115.292">User</text><ellipse cx="23.5" cy="50.7969" fill="#E2E2F0" rx="8" ry="8" style="stroke:#181818;stroke-width:0.5;"/><path d="M23.5,58.7969 L23.5,85.7969 M10.5,66.7969 L36.5,66.7969 M23.5,85.7969 L10.5,100.7969 M23.5,85.7969 L36.5,100.7969 " fill="none" style="stroke:#181818;stroke-width:0.5;"/><text fill="#000000" font-family="sans-serif" font-size="14" lengthAdjust="spacing" textLength="31" x="5" y="583.6123">User</text><ellipse cx="23.5" cy="595.4141" fill="#E2E2F0" rx="8" ry="8" style="stroke:#181818;stroke-width:0.5;"/><path d="M23.5,603.4141 L23.5,630.4141 M10.5,611.4141 L36.5,611.4141 M23.5,630.4141 L10.5,645.4141 M23.5,630.4141 L36.5,645.4141 " fill="none" style="stroke:#181818;stroke-width:0.5;"/><rect fill="#E2E2F0" height="30.2969" rx="2.5" ry="2.5" style="stroke:#181818;stroke-width:0.5;" width="95" x="190" y="87.2969"/><text fill="#000000" font-family="sans-serif" font-size="14" lengthAdjust="spacing" textLength="81" x="197" y="107.292">PostRouter</text><rect fill="#E2E2F0" height="30.2969" rx="2.5" ry="2.5" style="stroke:#181818;stroke-width:0.5;" width="95" x="190" y="570.6172"/><text fill="#000000" font-family="sans-serif" font-size="14" lengthAdjust="spacing" textLength="81" x="197" y="590.6123">PostRouter</text><rect fill="#E2E2F0" height="30.2969" rx="2.5" ry="2.5" style="stroke:#181818;stroke-width:0.5;" width="403" x="295" y="87.2969"/><text fill="#000000" font-family="sans-serif" font-size="14" lengthAdjust="spacing" textLength="389" x="302" y="107.292">getRecentPostsController: GetRecentPostsController</text><rect fill="#E2E2F0" height="30.2969" rx="2.5" ry="2.5" style="stroke:#181818;stroke-width:0.5;" width="403" x="295" y="570.6172"/><text fill="#000000" font-family="sans-serif" font-size="14" lengthAdjust="spacing" textLength="389" x="302" y="590.6123">getRecentPostsController: GetRecentPostsController</text><rect fill="#E2E2F0" height="30.2969" rx="2.5" ry="2.5" style="stroke:#181818;stroke-width:0.5;" width="222" x="708" y="570.6172"/><text fill="#000000" font-family="sans-serif" font-size="14" lengthAdjust="spacing" textLength="208" x="715" y="590.6123">GetRecentPostsRequestDTO</text><rect fill="#E2E2F0" height="30.2969" rx="2.5" ry="2.5" style="stroke:#181818;stroke-width:0.5;" width="195" x="940" y="87.2969"/><text fill="#000000" font-family="sans-serif" font-size="14" lengthAdjust="spacing" textLength="181" x="947" y="107.292">useCase:GetRecentPosts</text><rect fill="#E2E2F0" height="30.2969" rx="2.5" ry="2.5" style="stroke:#181818;stroke-width:0.5;" width="195" x="940" y="570.6172"/><text fill="#000000" font-family="sans-serif" font-size="14" lengthAdjust="spacing" textLength="181" x="947" y="590.6123">useCase:GetRecentPosts</text><rect fill="#E2E2F0" height="30.2969" rx="2.5" ry="2.5" style="stroke:#181818;stroke-width:0.5;" width="160" x="1173.5" y="87.2969"/><text fill="#000000" font-family="sans-serif" font-size="14" lengthAdjust="spacing" textLength="146" x="1180.5" y="107.292">postRepo:PostRepo</text><rect fill="#E2E2F0" height="30.2969" rx="2.5" ry="2.5" style="stroke:#181818;stroke-width:0.5;" width="160" x="1173.5" y="570.6172"/><text fill="#000000" font-family="sans-serif" font-size="14" lengthAdjust="spacing" textLength="146" x="1180.5" y="590.6123">postRepo:PostRepo</text><rect fill="#E2E2F0" height="30.2969" rx="2.5" ry="2.5" style="stroke:#181818;stroke-width:0.5;" width="126" x="1343.5" y="87.2969"/><text fill="#000000" font-family="sans-serif" font-size="14" lengthAdjust="spacing" textLength="112" x="1350.5" y="107.292">PostDetailsMap</text><rect fill="#E2E2F0" height="30.2969" rx="2.5" ry="2.5" style="stroke:#181818;stroke-width:0.5;" width="126" x="1343.5" y="570.6172"/><text fill="#000000" font-family="sans-serif" font-size="14" lengthAdjust="spacing" textLength="112" x="1350.5" y="590.6123">PostDetailsMap</text><rect fill="#E2E2F0" height="30.2969" rx="2.5" ry="2.5" style="stroke:#181818;stroke-width:0.5;" width="59" x="1486" y="87.2969"/><text fill="#000000" font-family="sans-serif" font-size="14" lengthAdjust="spacing" textLength="45" x="1493" y="107.292">Result</text><rect fill="#E2E2F0" height="30.2969" rx="2.5" ry="2.5" style="stroke:#181818;stroke-width:0.5;" width="59" x="1486" y="570.6172"/><text fill="#000000" font-family="sans-serif" font-size="14" lengthAdjust="spacing" textLength="45" x="1493" y="590.6123">Result</text><rect fill="#FFFFFF" height="412.8906" style="stroke:#181818;stroke-width:1.0;" width="10" x="232.5" y="149.7266"/><rect fill="#FFFFFF" height="345.625" style="stroke:#181818;stroke-width:1.0;" width="10" x="491.5" y="178.8594"/><rect fill="#FFFFFF" height="279.3594" style="stroke:#181818;stroke-width:1.0;" width="10" x="496.5" y="215.9922"/><rect fill="#FFFFFF" height="203.9297" style="stroke:#181818;stroke-width:1.0;" width="10" x="1032.5" y="291.4219"/><rect fill="#FFFFFF" height="145.6641" style="stroke:#181818;stroke-width:1.0;" width="10" x="1248.5" y="320.5547"/><rect fill="#FFFFFF" height="87.3984" style="stroke:#181818;stroke-width:1.0;" width="10" x="1401.5" y="349.6875"/><rect fill="#FFFFFF" height="29.1328" style="stroke:#181818;stroke-width:1.0;" width="10" x="1510.5" y="378.8203"/><polygon fill="#181818" points="220.5,145.7266,230.5,149.7266,220.5,153.7266,224.5,149.7266" style="stroke:#181818;stroke-width:1.0;"/><line style="stroke:#181818;stroke-width:1.0;" x1="23.5" x2="226.5" y1="149.7266" y2="149.7266"/><text fill="#000000" font-family="sans-serif" font-size="13" font-weight="bold" lengthAdjust="spacing" textLength="9" x="30.5" y="144.6606">1</text><text fill="#000000" font-family="sans-serif" font-size="13" lengthAdjust="spacing" textLength="177" x="43.5" y="144.6606">GET ("/api/v1/posts/recent")</text><polygon fill="#181818" points="479.5,174.8594,489.5,178.8594,479.5,182.8594,483.5,178.8594" style="stroke:#181818;stroke-width:1.0;"/><line style="stroke:#181818;stroke-width:1.0;" x1="242.5" x2="485.5" y1="178.8594" y2="178.8594"/><text fill="#000000" font-family="sans-serif" font-size="13" font-weight="bold" lengthAdjust="spacing" textLength="9" x="249.5" y="173.7935">2</text><text fill="#000000" font-family="sans-serif" font-size="13" lengthAdjust="spacing" textLength="111" x="262.5" y="173.7935">execute(req, res)</text><line style="stroke:#181818;stroke-width:1.0;" x1="501.5" x2="548.5" y1="202.9922" y2="202.9922"/><line style="stroke:#181818;stroke-width:1.0;" x1="548.5" x2="548.5" y1="202.9922" y2="215.9922"/><line style="stroke:#181818;stroke-width:1.0;" x1="507.5" x2="548.5" y1="215.9922" y2="215.9922"/><polygon fill="#181818" points="517.5,211.9922,507.5,215.9922,517.5,219.9922,513.5,215.9922" style="stroke:#181818;stroke-width:1.0;"/><text fill="#000000" font-family="sans-serif" font-size="13" font-weight="bold" lengthAdjust="spacing" textLength="8" x="513.5" y="197.9263">3</text><text fill="#000000" font-family="sans-serif" font-size="13" lengthAdjust="spacing" textLength="134" x="525.5" y="197.9263">executeImpl(req,res)</text><polygon fill="#181818" points="696,246.125,706,250.125,696,254.125,700,250.125" style="stroke:#181818;stroke-width:1.0;"/><line style="stroke:#181818;stroke-width:1.0;" x1="506.5" x2="702" y1="250.125" y2="250.125"/><text fill="#000000" font-family="sans-serif" font-size="13" font-weight="bold" lengthAdjust="spacing" textLength="9" x="513.5" y="245.0591">4</text><text fill="#000000" font-family="sans-serif" font-size="13" lengthAdjust="spacing" textLength="95" x="526.5" y="245.0591">(offset, userId)</text><rect fill="#E2E2F0" height="30.2969" rx="2.5" ry="2.5" style="stroke:#181818;stroke-width:0.5;" width="222" x="708" y="228.9922"/><text fill="#000000" font-family="sans-serif" font-size="14" lengthAdjust="spacing" textLength="208" x="715" y="248.9873">GetRecentPostsRequestDTO</text><polygon fill="#181818" points="1020.5,287.4219,1030.5,291.4219,1020.5,295.4219,1024.5,291.4219" style="stroke:#181818;stroke-width:1.0;"/><line style="stroke:#181818;stroke-width:1.0;" x1="506.5" x2="1026.5" y1="291.4219" y2="291.4219"/><text fill="#000000" font-family="sans-serif" font-size="13" font-weight="bold" lengthAdjust="spacing" textLength="9" x="513.5" y="286.356">5</text><text fill="#000000" font-family="sans-serif" font-size="13" lengthAdjust="spacing" textLength="83" x="526.5" y="286.356">execute(dto)</text><polygon fill="#181818" points="1236.5,316.5547,1246.5,320.5547,1236.5,324.5547,1240.5,320.5547" style="stroke:#181818;stroke-width:1.0;"/><line style="stroke:#181818;stroke-width:1.0;" x1="1042.5" x2="1242.5" y1="320.5547" y2="320.5547"/><text fill="#000000" font-family="sans-serif" font-size="13" font-weight="bold" lengthAdjust="spacing" textLength="9" x="1049.5" y="315.4888">6</text><text fill="#000000" font-family="sans-serif" font-size="13" lengthAdjust="spacing" textLength="174" x="1062.5" y="315.4888">getRecentPosts(req.offset)</text><polygon fill="#181818" points="1389.5,345.6875,1399.5,349.6875,1389.5,353.6875,1393.5,349.6875" style="stroke:#181818;stroke-width:1.0;"/><line style="stroke:#181818;stroke-width:1.0;" x1="1258.5" x2="1395.5" y1="349.6875" y2="349.6875"/><text fill="#000000" font-family="sans-serif" font-size="13" font-weight="bold" lengthAdjust="spacing" textLength="9" x="1265.5" y="344.6216">7</text><text fill="#000000" font-family="sans-serif" font-size="13" lengthAdjust="spacing" textLength="81" x="1278.5" y="344.6216">toDomain(p)</text><polygon fill="#181818" points="1498.5,374.8203,1508.5,378.8203,1498.5,382.8203,1502.5,378.8203" style="stroke:#181818;stroke-width:1.0;"/><line style="stroke:#181818;stroke-width:1.0;" x1="1411.5" x2="1504.5" y1="378.8203" y2="378.8203"/><text fill="#000000" font-family="sans-serif" font-size="13" font-weight="bold" lengthAdjust="spacing" textLength="9" x="1418.5" y="373.7544">8</text><text fill="#000000" font-family="sans-serif" font-size="13" lengthAdjust="spacing" textLength="67" x="1431.5" y="373.7544">getValue()</text><polygon fill="#181818" points="1422.5,403.9531,1412.5,407.9531,1422.5,411.9531,1418.5,407.9531" style="stroke:#181818;stroke-width:1.0;"/><line style="stroke:#181818;stroke-width:1.0;" x1="1416.5" x2="1514.5" y1="407.9531" y2="407.9531"/><text fill="#000000" font-family="sans-serif" font-size="13" font-weight="bold" lengthAdjust="spacing" textLength="9" x="1428.5" y="402.8872">9</text><text fill="#000000" font-family="sans-serif" font-size="13" lengthAdjust="spacing" textLength="35" x="1441.5" y="402.8872">value</text><polygon fill="#181818" points="1269.5,433.0859,1259.5,437.0859,1269.5,441.0859,1265.5,437.0859" style="stroke:#181818;stroke-width:1.0;"/><line style="stroke:#181818;stroke-width:1.0;" x1="1263.5" x2="1405.5" y1="437.0859" y2="437.0859"/><text fill="#000000" font-family="sans-serif" font-size="13" font-weight="bold" lengthAdjust="spacing" textLength="19" x="1275.5" y="432.02">10</text><text fill="#000000" font-family="sans-serif" font-size="13" lengthAdjust="spacing" textLength="35" x="1298.5" y="432.02">value</text><polygon fill="#181818" points="1053.5,462.2188,1043.5,466.2188,1053.5,470.2188,1049.5,466.2188" style="stroke:#181818;stroke-width:1.0;"/><line style="stroke:#181818;stroke-width:1.0;" x1="1047.5" x2="1252.5" y1="466.2188" y2="466.2188"/><text fill="#000000" font-family="sans-serif" font-size="13" font-weight="bold" lengthAdjust="spacing" textLength="18" x="1059.5" y="461.1528">11</text><text fill="#000000" font-family="sans-serif" font-size="13" lengthAdjust="spacing" textLength="147" x="1081.5" y="461.1528">result.ok&lt;PostDetails&gt;</text><polygon fill="#181818" points="512.5,491.3516,502.5,495.3516,512.5,499.3516,508.5,495.3516" style="stroke:#181818;stroke-width:1.0;"/><line style="stroke:#181818;stroke-width:1.0;" x1="506.5" x2="1036.5" y1="495.3516" y2="495.3516"/><text fill="#000000" font-family="sans-serif" font-size="13" font-weight="bold" lengthAdjust="spacing" textLength="18" x="518.5" y="490.2856">12</text><text fill="#000000" font-family="sans-serif" font-size="13" lengthAdjust="spacing" textLength="229" x="540.5" y="490.2856">ok&lt;GetRecentPostsResponseDTO&gt;</text><polygon fill="#181818" points="253.5,520.4844,243.5,524.4844,253.5,528.4844,249.5,524.4844" style="stroke:#181818;stroke-width:1.0;"/><line style="stroke:#181818;stroke-width:1.0;stroke-dasharray:2.0,2.0;" x1="247.5" x2="495.5" y1="524.4844" y2="524.4844"/><text fill="#000000" font-family="sans-serif" font-size="13" font-weight="bold" lengthAdjust="spacing" textLength="17" x="259.5" y="519.4185">13</text><text fill="#000000" font-family="sans-serif" font-size="13" lengthAdjust="spacing" textLength="130" x="280.5" y="519.4185">res.sendStatus(200)</text><polygon fill="#181818" points="34.5,549.6172,24.5,553.6172,34.5,557.6172,30.5,553.6172" style="stroke:#181818;stroke-width:1.0;"/><line style="stroke:#181818;stroke-width:1.0;" x1="28.5" x2="231.5" y1="553.6172" y2="553.6172"/><text fill="#000000" font-family="sans-serif" font-size="13" font-weight="bold" lengthAdjust="spacing" textLength="18" x="40.5" y="548.5513">14</text><text fill="#000000" font-family="sans-serif" font-size="13" lengthAdjust="spacing" textLength="80" x="62.5" y="548.5513">posts sorted</text><!--SRC=[hLJ1Re904Btp5HDFO5h17adZHHlZeQb1xNqBOqkAxBepc7v-5qI15HARbDF2pBmty-Qnd7A6iDj044n3s4ZDm5y8IXAJuuY2PLuSFb2RSynImuxCMGdDQPmgaJEiJMOa2xO-ZpwH8umnvpA1vZ9dBRCCTGZBWSW810q6E-3Tf0YF1H8ljc_T3Wh2kI0CkzazBDsoSlG8bGpNzQ6gkBpSpBv05cb6hq9rGX5IaR7Zb7ezpbegcVbVjk2EVA5I_pJrAwLzNNKpyagLqvDWRElgD6SmMCj1PV47OvFbQZm-W4Rod0PlKDYXm5rKguFAAhgAxJ_9cgt2U0mXk7A_9-G7C6lLgyJx0nGqoYGiXqMn8E6oDxDs0z4rT3dqvDnI6_1gasjX3TBOn42nNCY3I7DNUM0Lj-nKFbQf0JiRwzpFkyWATDlyjUtgf3xkKrdZ96YNz52rXh-fidjjptkZlgue9lBxkLKsi-4gtNfsCBZeq03QfY4bSqBZcWwyjUV1o5rEjNvdCzo4C4ysBBWWzoa8lBi8hB-wl2YCLDLr06JkOKn-0G00]--></g></svg>