<?xml version="1.0" encoding="us-ascii" standalone="no"?><svg xmlns="http://www.w3.org/2000/svg" xmlns:xlink="http://www.w3.org/1999/xlink" contentStyleType="text/css" height="841px" preserveAspectRatio="none" style="width:1486px;height:841px;background:#FFFFFF;" version="1.1" viewBox="0 0 1486 841" width="1486px" zoomAndPan="magnify"><defs/><g><text fill="#000000" font-family="sans-serif" font-size="14" font-weight="bold" lengthAdjust="spacing" textLength="291" x="596.75" y="27.9951">US 001: Sort the posts - Less-Voted</text><rect fill="#FFFFFF" height="592.5234" style="stroke:#181818;stroke-width:1.0;" width="10" x="18.5" y="149.7266"/><rect fill="#FFFFFF" height="592.5234" style="stroke:#181818;stroke-width:1.0;" width="10" x="258.5" y="149.7266"/><rect fill="#FFFFFF" height="572.3906" style="stroke:#181818;stroke-width:1.0;" width="10" x="454.5" y="178.8594"/><rect fill="#FFFFFF" height="69.2656" style="stroke:#181818;stroke-width:1.0;" width="10" x="459.5" y="215.9922"/><rect fill="#FFFFFF" height="354.5938" style="stroke:#181818;stroke-width:1.0;" width="10" x="459.5" y="358.5234"/><rect fill="#FFFFFF" height="71.2656" style="stroke:#181818;stroke-width:1.0;" width="10" x="665.5" y="250.125"/><rect fill="#FFFFFF" height="291.3281" style="stroke:#181818;stroke-width:1.0;" width="10" x="868" y="392.6563"/><rect fill="#FFFFFF" height="29.1328" style="stroke:#181818;stroke-width:1.0;" width="10" x="1175" y="421.7891"/><rect fill="#FFFFFF" height="29.1328" style="stroke:#181818;stroke-width:1.0;" width="10" x="1175" y="480.0547"/><rect fill="#FFFFFF" height="29.1328" style="stroke:#181818;stroke-width:1.0;" width="10" x="1328" y="538.3203"/><line style="stroke:#181818;stroke-width:0.5;stroke-dasharray:5.0,5.0;" x1="23" x2="23" y1="118.5938" y2="760.25"/><line style="stroke:#181818;stroke-width:0.5;stroke-dasharray:5.0,5.0;" x1="263" x2="263" y1="118.5938" y2="760.25"/><line style="stroke:#181818;stroke-width:0.5;stroke-dasharray:5.0,5.0;" x1="459.5" x2="459.5" y1="118.5938" y2="760.25"/><line style="stroke:#181818;stroke-width:0.5;stroke-dasharray:5.0,5.0;" x1="670.5" x2="670.5" y1="118.5938" y2="760.25"/><line style="stroke:#181818;stroke-width:0.5;stroke-dasharray:5.0,5.0;" x1="872.5" x2="872.5" y1="118.5938" y2="760.25"/><line style="stroke:#181818;stroke-width:0.5;stroke-dasharray:5.0,5.0;" x1="1180" x2="1180" y1="118.5938" y2="760.25"/><line style="stroke:#181818;stroke-width:0.5;stroke-dasharray:5.0,5.0;" x1="1333" x2="1333" y1="118.5938" y2="760.25"/><line style="stroke:#181818;stroke-width:0.5;stroke-dasharray:5.0,5.0;" x1="1450.5" x2="1450.5" y1="118.5938" y2="760.25"/><text fill="#000000" font-family="sans-serif" font-size="14" lengthAdjust="spacing" textLength="31" x="5" y="115.292">User</text><ellipse cx="23.5" cy="50.7969" fill="#E2E2F0" rx="8" ry="8" style="stroke:#181818;stroke-width:0.5;"/><path d="M23.5,58.7969 L23.5,85.7969 M10.5,66.7969 L36.5,66.7969 M23.5,85.7969 L10.5,100.7969 M23.5,85.7969 L36.5,100.7969 " fill="none" style="stroke:#181818;stroke-width:0.5;"/><text fill="#000000" font-family="sans-serif" font-size="14" lengthAdjust="spacing" textLength="31" x="5" y="772.2451">User</text><ellipse cx="23.5" cy="784.0469" fill="#E2E2F0" rx="8" ry="8" style="stroke:#181818;stroke-width:0.5;"/><path d="M23.5,792.0469 L23.5,819.0469 M10.5,800.0469 L36.5,800.0469 M23.5,819.0469 L10.5,834.0469 M23.5,819.0469 L36.5,834.0469 " fill="none" style="stroke:#181818;stroke-width:0.5;"/><rect fill="#E2E2F0" height="30.2969" rx="2.5" ry="2.5" style="stroke:#181818;stroke-width:0.5;" width="95" x="216" y="87.2969"/><text fill="#000000" font-family="sans-serif" font-size="14" lengthAdjust="spacing" textLength="81" x="223" y="107.292">PostRouter</text><rect fill="#E2E2F0" height="30.2969" rx="2.5" ry="2.5" style="stroke:#181818;stroke-width:0.5;" width="95" x="216" y="759.25"/><text fill="#000000" font-family="sans-serif" font-size="14" lengthAdjust="spacing" textLength="81" x="223" y="779.2451">PostRouter</text><rect fill="#E2E2F0" height="46.5938" rx="2.5" ry="2.5" style="stroke:#181818;stroke-width:0.5;" width="196" x="361.5" y="71"/><text fill="#000000" font-family="sans-serif" font-size="14" lengthAdjust="spacing" textLength="178" x="368.5" y="90.9951">getLessVotedController:</text><text fill="#000000" font-family="sans-serif" font-size="14" lengthAdjust="spacing" textLength="175" x="374" y="107.292">GetLessVotedController</text><rect fill="#E2E2F0" height="46.5938" rx="2.5" ry="2.5" style="stroke:#181818;stroke-width:0.5;" width="196" x="361.5" y="759.25"/><text fill="#000000" font-family="sans-serif" font-size="14" lengthAdjust="spacing" textLength="178" x="368.5" y="779.2451">getLessVotedController:</text><text fill="#000000" font-family="sans-serif" font-size="14" lengthAdjust="spacing" textLength="175" x="374" y="795.542">GetLessVotedController</text><rect fill="#E2E2F0" height="30.2969" rx="2.5" ry="2.5" style="stroke:#181818;stroke-width:0.5;" width="206" x="567.5" y="87.2969"/><text fill="#000000" font-family="sans-serif" font-size="14" lengthAdjust="spacing" textLength="192" x="574.5" y="107.292">GetLessVotedRequestDTO</text><rect fill="#E2E2F0" height="30.2969" rx="2.5" ry="2.5" style="stroke:#181818;stroke-width:0.5;" width="206" x="567.5" y="759.25"/><text fill="#000000" font-family="sans-serif" font-size="14" lengthAdjust="spacing" textLength="192" x="574.5" y="779.2451">GetLessVotedRequestDTO</text><rect fill="#E2E2F0" height="30.2969" rx="2.5" ry="2.5" style="stroke:#181818;stroke-width:0.5;" width="179" x="783.5" y="87.2969"/><text fill="#000000" font-family="sans-serif" font-size="14" lengthAdjust="spacing" textLength="165" x="790.5" y="107.292">useCase:GetLessVoted</text><rect fill="#E2E2F0" height="30.2969" rx="2.5" ry="2.5" style="stroke:#181818;stroke-width:0.5;" width="179" x="783.5" y="759.25"/><text fill="#000000" font-family="sans-serif" font-size="14" lengthAdjust="spacing" textLength="165" x="790.5" y="779.2451">useCase:GetLessVoted</text><rect fill="#E2E2F0" height="30.2969" rx="2.5" ry="2.5" style="stroke:#181818;stroke-width:0.5;" width="160" x="1100" y="87.2969"/><text fill="#000000" font-family="sans-serif" font-size="14" lengthAdjust="spacing" textLength="146" x="1107" y="107.292">postRepo:PostRepo</text><rect fill="#E2E2F0" height="30.2969" rx="2.5" ry="2.5" style="stroke:#181818;stroke-width:0.5;" width="160" x="1100" y="759.25"/><text fill="#000000" font-family="sans-serif" font-size="14" lengthAdjust="spacing" textLength="146" x="1107" y="779.2451">postRepo:PostRepo</text><rect fill="#E2E2F0" height="30.2969" rx="2.5" ry="2.5" style="stroke:#181818;stroke-width:0.5;" width="126" x="1270" y="87.2969"/><text fill="#000000" font-family="sans-serif" font-size="14" lengthAdjust="spacing" textLength="112" x="1277" y="107.292">PostDetailsMap</text><rect fill="#E2E2F0" height="30.2969" rx="2.5" ry="2.5" style="stroke:#181818;stroke-width:0.5;" width="126" x="1270" y="759.25"/><text fill="#000000" font-family="sans-serif" font-size="14" lengthAdjust="spacing" textLength="112" x="1277" y="779.2451">PostDetailsMap</text><rect fill="#E2E2F0" height="30.2969" rx="2.5" ry="2.5" style="stroke:#181818;stroke-width:0.5;" width="59" x="1421.5" y="87.2969"/><text fill="#000000" font-family="sans-serif" font-size="14" lengthAdjust="spacing" textLength="45" x="1428.5" y="107.292">Result</text><rect fill="#E2E2F0" height="30.2969" rx="2.5" ry="2.5" style="stroke:#181818;stroke-width:0.5;" width="59" x="1421.5" y="759.25"/><text fill="#000000" font-family="sans-serif" font-size="14" lengthAdjust="spacing" textLength="45" x="1428.5" y="779.2451">Result</text><rect fill="#FFFFFF" height="592.5234" style="stroke:#181818;stroke-width:1.0;" width="10" x="18.5" y="149.7266"/><rect fill="#FFFFFF" height="592.5234" style="stroke:#181818;stroke-width:1.0;" width="10" x="258.5" y="149.7266"/><rect fill="#FFFFFF" height="572.3906" style="stroke:#181818;stroke-width:1.0;" width="10" x="454.5" y="178.8594"/><rect fill="#FFFFFF" height="69.2656" style="stroke:#181818;stroke-width:1.0;" width="10" x="459.5" y="215.9922"/><rect fill="#FFFFFF" height="354.5938" style="stroke:#181818;stroke-width:1.0;" width="10" x="459.5" y="358.5234"/><rect fill="#FFFFFF" height="71.2656" style="stroke:#181818;stroke-width:1.0;" width="10" x="665.5" y="250.125"/><rect fill="#FFFFFF" height="291.3281" style="stroke:#181818;stroke-width:1.0;" width="10" x="868" y="392.6563"/><rect fill="#FFFFFF" height="29.1328" style="stroke:#181818;stroke-width:1.0;" width="10" x="1175" y="421.7891"/><rect fill="#FFFFFF" height="29.1328" style="stroke:#181818;stroke-width:1.0;" width="10" x="1175" y="480.0547"/><rect fill="#FFFFFF" height="29.1328" style="stroke:#181818;stroke-width:1.0;" width="10" x="1328" y="538.3203"/><polygon fill="#181818" points="246.5,145.7266,256.5,149.7266,246.5,153.7266,250.5,149.7266" style="stroke:#181818;stroke-width:1.0;"/><line style="stroke:#181818;stroke-width:1.0;" x1="28.5" x2="252.5" y1="149.7266" y2="149.7266"/><text fill="#000000" font-family="sans-serif" font-size="13" font-weight="bold" lengthAdjust="spacing" textLength="9" x="35.5" y="144.6606">1</text><text fill="#000000" font-family="sans-serif" font-size="13" lengthAdjust="spacing" textLength="203" x="48.5" y="144.6606">GET ("/api/v1/posts/less-voted")</text><polygon fill="#181818" points="442.5,174.8594,452.5,178.8594,442.5,182.8594,446.5,178.8594" style="stroke:#181818;stroke-width:1.0;"/><line style="stroke:#181818;stroke-width:1.0;" x1="268.5" x2="448.5" y1="178.8594" y2="178.8594"/><text fill="#000000" font-family="sans-serif" font-size="13" font-weight="bold" lengthAdjust="spacing" textLength="9" x="275.5" y="173.7935">2</text><text fill="#000000" font-family="sans-serif" font-size="13" lengthAdjust="spacing" textLength="111" x="288.5" y="173.7935">execute(req, res)</text><line style="stroke:#181818;stroke-width:1.0;" x1="464.5" x2="511.5" y1="202.9922" y2="202.9922"/><line style="stroke:#181818;stroke-width:1.0;" x1="511.5" x2="511.5" y1="202.9922" y2="215.9922"/><line style="stroke:#181818;stroke-width:1.0;" x1="470.5" x2="511.5" y1="215.9922" y2="215.9922"/><polygon fill="#181818" points="480.5,211.9922,470.5,215.9922,480.5,219.9922,476.5,215.9922" style="stroke:#181818;stroke-width:1.0;"/><text fill="#000000" font-family="sans-serif" font-size="13" font-weight="bold" lengthAdjust="spacing" textLength="8" x="476.5" y="197.9263">3</text><text fill="#000000" font-family="sans-serif" font-size="13" lengthAdjust="spacing" textLength="138" x="488.5" y="197.9263">executeImpl(req, res)</text><polygon fill="#181818" points="653.5,246.125,663.5,250.125,653.5,254.125,657.5,250.125" style="stroke:#181818;stroke-width:1.0;"/><line style="stroke:#181818;stroke-width:1.0;" x1="469.5" x2="659.5" y1="250.125" y2="250.125"/><text fill="#000000" font-family="sans-serif" font-size="13" font-weight="bold" lengthAdjust="spacing" textLength="9" x="476.5" y="245.0591">4</text><text fill="#000000" font-family="sans-serif" font-size="13" lengthAdjust="spacing" textLength="4" x="489.5" y="245.0591">&#160;</text><line style="stroke:#181818;stroke-width:1.0;" x1="469.5" x2="511.5" y1="284.2578" y2="284.2578"/><line style="stroke:#181818;stroke-width:1.0;" x1="511.5" x2="511.5" y1="284.2578" y2="297.2578"/><line style="stroke:#181818;stroke-width:1.0;" x1="464.5" x2="511.5" y1="297.2578" y2="297.2578"/><polygon fill="#181818" points="474.5,293.2578,464.5,297.2578,474.5,301.2578,470.5,297.2578" style="stroke:#181818;stroke-width:1.0;"/><text fill="#000000" font-family="sans-serif" font-size="13" font-weight="bold" lengthAdjust="spacing" textLength="9" x="476.5" y="279.1919">5</text><text fill="#000000" font-family="sans-serif" font-size="13" lengthAdjust="spacing" textLength="138" x="489.5" y="279.1919">executeImpl(req, res)</text><polygon fill="#181818" points="475.5,317.3906,465.5,321.3906,475.5,325.3906,471.5,321.3906" style="stroke:#181818;stroke-width:1.0;"/><line style="stroke:#181818;stroke-width:1.0;stroke-dasharray:2.0,2.0;" x1="469.5" x2="669.5" y1="321.3906" y2="321.3906"/><text fill="#000000" font-family="sans-serif" font-size="13" font-weight="bold" lengthAdjust="spacing" textLength="9" x="481.5" y="316.3247">6</text><text fill="#000000" font-family="sans-serif" font-size="13" lengthAdjust="spacing" textLength="4" x="494.5" y="316.3247">&#160;</text><line style="stroke:#181818;stroke-width:1.0;" x1="464.5" x2="511.5" y1="345.5234" y2="345.5234"/><line style="stroke:#181818;stroke-width:1.0;" x1="511.5" x2="511.5" y1="345.5234" y2="358.5234"/><line style="stroke:#181818;stroke-width:1.0;" x1="470.5" x2="511.5" y1="358.5234" y2="358.5234"/><polygon fill="#181818" points="480.5,354.5234,470.5,358.5234,480.5,362.5234,476.5,358.5234" style="stroke:#181818;stroke-width:1.0;"/><text fill="#000000" font-family="sans-serif" font-size="13" font-weight="bold" lengthAdjust="spacing" textLength="9" x="476.5" y="340.4575">7</text><text fill="#000000" font-family="sans-serif" font-size="13" lengthAdjust="spacing" textLength="4" x="489.5" y="340.4575">&#160;</text><polygon fill="#181818" points="856,388.6563,866,392.6563,856,396.6563,860,392.6563" style="stroke:#181818;stroke-width:1.0;"/><line style="stroke:#181818;stroke-width:1.0;" x1="469.5" x2="862" y1="392.6563" y2="392.6563"/><text fill="#000000" font-family="sans-serif" font-size="13" font-weight="bold" lengthAdjust="spacing" textLength="9" x="476.5" y="387.5903">8</text><text fill="#000000" font-family="sans-serif" font-size="13" lengthAdjust="spacing" textLength="4" x="489.5" y="387.5903">&#160;</text><polygon fill="#181818" points="1163,417.7891,1173,421.7891,1163,425.7891,1167,421.7891" style="stroke:#181818;stroke-width:1.0;"/><line style="stroke:#181818;stroke-width:1.0;" x1="878" x2="1169" y1="421.7891" y2="421.7891"/><text fill="#000000" font-family="sans-serif" font-size="13" font-weight="bold" lengthAdjust="spacing" textLength="9" x="885" y="416.7231">9</text><text fill="#000000" font-family="sans-serif" font-size="13" lengthAdjust="spacing" textLength="4" x="898" y="416.7231">&#160;</text><polygon fill="#181818" points="889,446.9219,879,450.9219,889,454.9219,885,450.9219" style="stroke:#181818;stroke-width:1.0;"/><line style="stroke:#181818;stroke-width:1.0;stroke-dasharray:2.0,2.0;" x1="883" x2="1179" y1="450.9219" y2="450.9219"/><text fill="#000000" font-family="sans-serif" font-size="13" font-weight="bold" lengthAdjust="spacing" textLength="19" x="895" y="445.856">10</text><text fill="#000000" font-family="sans-serif" font-size="13" lengthAdjust="spacing" textLength="4" x="918" y="445.856">&#160;</text><polygon fill="#181818" points="1163,476.0547,1173,480.0547,1163,484.0547,1167,480.0547" style="stroke:#181818;stroke-width:1.0;"/><line style="stroke:#181818;stroke-width:1.0;" x1="878" x2="1169" y1="480.0547" y2="480.0547"/><text fill="#000000" font-family="sans-serif" font-size="13" font-weight="bold" lengthAdjust="spacing" textLength="18" x="885" y="474.9888">11</text><text fill="#000000" font-family="sans-serif" font-size="13" lengthAdjust="spacing" textLength="4" x="907" y="474.9888">&#160;</text><polygon fill="#181818" points="889,505.1875,879,509.1875,889,513.1875,885,509.1875" style="stroke:#181818;stroke-width:1.0;"/><line style="stroke:#181818;stroke-width:1.0;stroke-dasharray:2.0,2.0;" x1="883" x2="1179" y1="509.1875" y2="509.1875"/><text fill="#000000" font-family="sans-serif" font-size="13" font-weight="bold" lengthAdjust="spacing" textLength="18" x="895" y="504.1216">12</text><text fill="#000000" font-family="sans-serif" font-size="13" lengthAdjust="spacing" textLength="4" x="917" y="504.1216">&#160;</text><polygon fill="#181818" points="1316,534.3203,1326,538.3203,1316,542.3203,1320,538.3203" style="stroke:#181818;stroke-width:1.0;"/><line style="stroke:#181818;stroke-width:1.0;" x1="878" x2="1322" y1="538.3203" y2="538.3203"/><text fill="#000000" font-family="sans-serif" font-size="13" font-weight="bold" lengthAdjust="spacing" textLength="17" x="885" y="533.2544">13</text><text fill="#000000" font-family="sans-serif" font-size="13" lengthAdjust="spacing" textLength="4" x="906" y="533.2544">&#160;</text><polygon fill="#181818" points="1439,563.4531,1449,567.4531,1439,571.4531,1443,567.4531" style="stroke:#181818;stroke-width:1.0;"/><line style="stroke:#181818;stroke-width:1.0;stroke-dasharray:2.0,2.0;" x1="1333" x2="1445" y1="567.4531" y2="567.4531"/><text fill="#000000" font-family="sans-serif" font-size="13" font-weight="bold" lengthAdjust="spacing" textLength="18" x="1340" y="562.3872">14</text><text fill="#000000" font-family="sans-serif" font-size="13" lengthAdjust="spacing" textLength="67" x="1362" y="562.3872">getValue()</text><polygon fill="#181818" points="1344,592.5859,1334,596.5859,1344,600.5859,1340,596.5859" style="stroke:#181818;stroke-width:1.0;"/><line style="stroke:#181818;stroke-width:1.0;stroke-dasharray:2.0,2.0;" x1="1338" x2="1450" y1="596.5859" y2="596.5859"/><text fill="#000000" font-family="sans-serif" font-size="13" font-weight="bold" lengthAdjust="spacing" textLength="18" x="1350" y="591.52">15</text><text fill="#000000" font-family="sans-serif" font-size="13" lengthAdjust="spacing" textLength="35" x="1372" y="591.52">value</text><polygon fill="#181818" points="1191,621.7188,1181,625.7188,1191,629.7188,1187,625.7188" style="stroke:#181818;stroke-width:1.0;"/><line style="stroke:#181818;stroke-width:1.0;" x1="1185" x2="1332" y1="625.7188" y2="625.7188"/><text fill="#000000" font-family="sans-serif" font-size="13" font-weight="bold" lengthAdjust="spacing" textLength="18" x="1197" y="620.6528">16</text><text fill="#000000" font-family="sans-serif" font-size="13" lengthAdjust="spacing" textLength="35" x="1219" y="620.6528">value</text><polygon fill="#181818" points="889,650.8516,879,654.8516,889,658.8516,885,654.8516" style="stroke:#181818;stroke-width:1.0;"/><line style="stroke:#181818;stroke-width:1.0;" x1="883" x2="1179" y1="654.8516" y2="654.8516"/><text fill="#000000" font-family="sans-serif" font-size="13" font-weight="bold" lengthAdjust="spacing" textLength="18" x="895" y="649.7856">17</text><text fill="#000000" font-family="sans-serif" font-size="13" lengthAdjust="spacing" textLength="256" x="917" y="649.7856">result.ok&lt;GetLessVotedResponseDTO&gt;</text><polygon fill="#181818" points="480.5,679.9844,470.5,683.9844,480.5,687.9844,476.5,683.9844" style="stroke:#181818;stroke-width:1.0;"/><line style="stroke:#181818;stroke-width:1.0;stroke-dasharray:2.0,2.0;" x1="474.5" x2="872" y1="683.9844" y2="683.9844"/><text fill="#000000" font-family="sans-serif" font-size="13" font-weight="bold" lengthAdjust="spacing" textLength="18" x="486.5" y="678.9185">18</text><text fill="#000000" font-family="sans-serif" font-size="13" lengthAdjust="spacing" textLength="216" x="508.5" y="678.9185">ok&lt;GetLessVotedResponseDTO&gt;</text><polygon fill="#181818" points="279.5,709.1172,269.5,713.1172,279.5,717.1172,275.5,713.1172" style="stroke:#181818;stroke-width:1.0;"/><line style="stroke:#181818;stroke-width:1.0;stroke-dasharray:2.0,2.0;" x1="273.5" x2="453.5" y1="713.1172" y2="713.1172"/><text fill="#000000" font-family="sans-serif" font-size="13" font-weight="bold" lengthAdjust="spacing" textLength="18" x="285.5" y="708.0513">19</text><text fill="#000000" font-family="sans-serif" font-size="13" lengthAdjust="spacing" textLength="140" x="307.5" y="708.0513">Resposta HTTP criada</text><polygon fill="#181818" points="34.5,738.25,24.5,742.25,34.5,746.25,30.5,742.25" style="stroke:#181818;stroke-width:1.0;"/><line style="stroke:#181818;stroke-width:1.0;stroke-dasharray:2.0,2.0;" x1="28.5" x2="262.5" y1="742.25" y2="742.25"/><text fill="#000000" font-family="sans-serif" font-size="13" font-weight="bold" lengthAdjust="spacing" textLength="19" x="40.5" y="737.1841">20</text><text fill="#000000" font-family="sans-serif" font-size="13" lengthAdjust="spacing" textLength="152" x="63.5" y="737.1841">Resposta HTTP enviada</text><!--SRC=[lPHDJuD048Rl-oicdDh4IdibfXThged6XjAUlAnqeaJARdS7ui-N1LjsAHYCZRVT-NXcU9aTIYX5sAnXEfq5i1QAWDuHfD2aOGAFgFLaAmXtZF6SH9RlNr6LvvY40c-ZKNd0DPW3arnH4YUIPmIh4X2Ad5fcxmt9C2lahSX8YJH55S1B1ijELuNlTZbaEoJ4GuwQ5j6pMppNUCir1dRi6TzDCKA4A4Mm-ZvKySVBsISla7YIwYSk7LU8Ea-9CICJJEQMEW4ixo8OUJwNYL_C_4fuFpMo5rLxOwDrKd32MkJJpLAODMT3N_PeZ9yObp4ZXOShKAWjT8_0hDi-eCZ3NgQNBsJzs4wYvRzOwplyLVDD2p3fhTK7_Kl_bzAuc-DcdsROl05t8es57Kzd4jWVteJ_Czfwf4w6PMVklIfMF-80oXMsvMcEet6xf0seewj4rnL0ORBjtEDwQ1TjbEX8wkgu5iRL9J1ZNEAlnSUDEsjQYanZEMpp8Thzy706alldoPx6rdgiO9eut4VH2cALy1qVyYRjbLWYpUvimp0hsZHhgLfMa_m5]--></g></svg>