<?xml version="1.0" encoding="us-ascii" standalone="no"?><svg xmlns="http://www.w3.org/2000/svg" xmlns:xlink="http://www.w3.org/1999/xlink" contentStyleType="text/css" height="1739px" preserveAspectRatio="none" style="width:3051px;height:1739px;background:#FFFFFF;" version="1.1" viewBox="0 0 3051 1739" width="3051px" zoomAndPan="magnify"><defs/><g><text fill="#000000" font-family="sans-serif" font-size="14" font-weight="bold" lengthAdjust="spacing" textLength="421" x="1314.25" y="27.9951">US004: Vote on a post (upvote) - Sequence Diagram</text><rect fill="#FFFFFF" height="1521.2969" style="stroke:#181818;stroke-width:1.0;" width="10" x="18.5" y="128.5938"/><rect fill="#FFFFFF" height="1469.8984" style="stroke:#181818;stroke-width:1.0;" width="10" x="292.5" y="179.9922"/><rect fill="#FFFFFF" height="1440.7656" style="stroke:#181818;stroke-width:1.0;" width="10" x="518.5" y="209.125"/><rect fill="#FFFFFF" height="1365.5" style="stroke:#181818;stroke-width:1.0;" width="10" x="523.5" y="246.2578"/><rect fill="#FFFFFF" height="1260.9375" style="stroke:#181818;stroke-width:1.0;" width="10" x="964.5" y="321.6875"/><rect fill="#FFFFFF" height="245.2266" style="stroke:#181818;stroke-width:1.0;" width="10" x="1269.5" y="350.8203"/><rect fill="#FFFFFF" height="29.1328" style="stroke:#181818;stroke-width:1.0;" width="10" x="1462.5" y="957.8047"/><rect fill="#FFFFFF" height="145.6641" style="stroke:#181818;stroke-width:1.0;" width="10" x="1599.5" y="421.25"/><rect fill="#FFFFFF" height="29.1328" style="stroke:#181818;stroke-width:1.0;" width="10" x="1718.5" y="450.3828"/><rect fill="#FFFFFF" height="29.1328" style="stroke:#181818;stroke-width:1.0;" width="10" x="1718.5" y="508.6484"/><rect fill="#FFFFFF" height="29.1328" style="stroke:#181818;stroke-width:1.0;" width="10" x="1718.5" y="724.7422"/><rect fill="#FFFFFF" height="29.1328" style="stroke:#181818;stroke-width:1.0;" width="10" x="1718.5" y="783.0078"/><rect fill="#FFFFFF" height="29.1328" style="stroke:#181818;stroke-width:1.0;" width="10" x="1718.5" y="1115.6328"/><rect fill="#FFFFFF" height="29.1328" style="stroke:#181818;stroke-width:1.0;" width="10" x="1718.5" y="1173.8984"/><rect fill="#FFFFFF" height="245.2266" style="stroke:#181818;stroke-width:1.0;" width="10" x="1842.5" y="625.1797"/><rect fill="#FFFFFF" height="30" style="stroke:#181818;stroke-width:1.0;" width="10" x="1842.5" y="1523.4922"/><rect fill="#FFFFFF" height="29.1328" style="stroke:#181818;stroke-width:1.0;" width="10" x="1978.5" y="899.5391"/><rect fill="#FFFFFF" height="29.1328" style="stroke:#181818;stroke-width:1.0;" width="10" x="1978.5" y="1436.0938"/><rect fill="#FFFFFF" height="145.6641" style="stroke:#181818;stroke-width:1.0;" width="10" x="2073" y="695.6094"/><rect fill="#FFFFFF" height="245.2266" style="stroke:#181818;stroke-width:1.0;" width="10" x="2247.5" y="1016.0703"/><rect fill="#FFFFFF" height="29.1328" style="stroke:#181818;stroke-width:1.0;" width="10" x="2546" y="1319.5625"/><rect fill="#FFFFFF" height="29.1328" style="stroke:#181818;stroke-width:1.0;" width="10" x="2546" y="1377.8281"/><rect fill="#FFFFFF" height="145.6641" style="stroke:#181818;stroke-width:1.0;" width="10" x="2778.5" y="1086.5"/><rect fill="#FFFFFF" height="203.9297" style="stroke:#181818;stroke-width:1.0;" width="10" x="2943.5" y="1290.4297"/><line style="stroke:#181818;stroke-width:0.5;stroke-dasharray:5.0,5.0;" x1="23" x2="23" y1="118.5938" y2="1658.8906"/><line style="stroke:#181818;stroke-width:0.5;stroke-dasharray:5.0,5.0;" x1="297.5" x2="297.5" y1="118.5938" y2="1658.8906"/><line style="stroke:#181818;stroke-width:0.5;stroke-dasharray:5.0,5.0;" x1="523.5" x2="523.5" y1="118.5938" y2="1658.8906"/><line style="stroke:#181818;stroke-width:0.5;stroke-dasharray:5.0,5.0;" x1="782.5" x2="782.5" y1="289.9063" y2="1658.8906"/><line style="stroke:#181818;stroke-width:0.5;stroke-dasharray:5.0,5.0;" x1="969.5" x2="969.5" y1="118.5938" y2="1658.8906"/><line style="stroke:#181818;stroke-width:0.5;stroke-dasharray:5.0,5.0;" x1="1274" x2="1274" y1="118.5938" y2="1658.8906"/><line style="stroke:#181818;stroke-width:0.5;stroke-dasharray:5.0,5.0;" x1="1467" x2="1467" y1="389.4688" y2="1658.8906"/><line style="stroke:#181818;stroke-width:0.5;stroke-dasharray:5.0,5.0;" x1="1604" x2="1604" y1="118.5938" y2="1658.8906"/><line style="stroke:#181818;stroke-width:0.5;stroke-dasharray:5.0,5.0;" x1="1723.5" x2="1723.5" y1="118.5938" y2="1658.8906"/><line style="stroke:#181818;stroke-width:0.5;stroke-dasharray:5.0,5.0;" x1="1847.5" x2="1847.5" y1="118.5938" y2="1658.8906"/><line style="stroke:#181818;stroke-width:0.5;stroke-dasharray:5.0,5.0;" x1="1983.5" x2="1983.5" y1="663.8281" y2="1658.8906"/><line style="stroke:#181818;stroke-width:0.5;stroke-dasharray:5.0,5.0;" x1="2077.5" x2="2077.5" y1="118.5938" y2="1658.8906"/><line style="stroke:#181818;stroke-width:0.5;stroke-dasharray:5.0,5.0;" x1="2252.5" x2="2252.5" y1="118.5938" y2="1658.8906"/><line style="stroke:#181818;stroke-width:0.5;stroke-dasharray:5.0,5.0;" x1="2550.5" x2="2550.5" y1="1054.7188" y2="1658.8906"/><line style="stroke:#181818;stroke-width:0.5;stroke-dasharray:5.0,5.0;" x1="2783.5" x2="2783.5" y1="118.5938" y2="1658.8906"/><line style="stroke:#181818;stroke-width:0.5;stroke-dasharray:5.0,5.0;" x1="2948.5" x2="2948.5" y1="118.5938" y2="1658.8906"/><text fill="#000000" font-family="sans-serif" font-size="14" lengthAdjust="spacing" textLength="31" x="5" y="115.292">User</text><ellipse cx="23.5" cy="50.7969" fill="#E2E2F0" rx="8" ry="8" style="stroke:#181818;stroke-width:0.5;"/><path d="M23.5,58.7969 L23.5,85.7969 M10.5,66.7969 L36.5,66.7969 M23.5,85.7969 L10.5,100.7969 M23.5,85.7969 L36.5,100.7969 " fill="none" style="stroke:#181818;stroke-width:0.5;"/><text fill="#000000" font-family="sans-serif" font-size="14" lengthAdjust="spacing" textLength="31" x="5" y="1670.8857">User</text><ellipse cx="23.5" cy="1682.6875" fill="#E2E2F0" rx="8" ry="8" style="stroke:#181818;stroke-width:0.5;"/><path d="M23.5,1690.6875 L23.5,1717.6875 M10.5,1698.6875 L36.5,1698.6875 M23.5,1717.6875 L10.5,1732.6875 M23.5,1717.6875 L36.5,1732.6875 " fill="none" style="stroke:#181818;stroke-width:0.5;"/><rect fill="#E2E2F0" height="30.2969" rx="2.5" ry="2.5" style="stroke:#181818;stroke-width:0.5;" width="96" x="249.5" y="87.2969"/><text fill="#000000" font-family="sans-serif" font-size="14" lengthAdjust="spacing" textLength="82" x="256.5" y="107.292">postRouter</text><rect fill="#E2E2F0" height="30.2969" rx="2.5" ry="2.5" style="stroke:#181818;stroke-width:0.5;" width="96" x="249.5" y="1657.8906"/><text fill="#000000" font-family="sans-serif" font-size="14" lengthAdjust="spacing" textLength="82" x="256.5" y="1677.8857">postRouter</text><rect fill="#E2E2F0" height="30.2969" rx="2.5" ry="2.5" style="stroke:#181818;stroke-width:0.5;" width="336" x="355.5" y="87.2969"/><text fill="#000000" font-family="sans-serif" font-size="14" lengthAdjust="spacing" textLength="322" x="362.5" y="107.292">upvotePostController: UpvotePostController</text><rect fill="#E2E2F0" height="30.2969" rx="2.5" ry="2.5" style="stroke:#181818;stroke-width:0.5;" width="336" x="355.5" y="1657.8906"/><text fill="#000000" font-family="sans-serif" font-size="14" lengthAdjust="spacing" textLength="322" x="362.5" y="1677.8857">upvotePostController: UpvotePostController</text><rect fill="#E2E2F0" height="30.2969" rx="2.5" ry="2.5" style="stroke:#181818;stroke-width:0.5;" width="163" x="701.5" y="1657.8906"/><text fill="#000000" font-family="sans-serif" font-size="14" lengthAdjust="spacing" textLength="149" x="708.5" y="1677.8857">dto: UpvotePostDTO</text><rect fill="#E2E2F0" height="30.2969" rx="2.5" ry="2.5" style="stroke:#181818;stroke-width:0.5;" width="190" x="874.5" y="87.2969"/><text fill="#000000" font-family="sans-serif" font-size="14" lengthAdjust="spacing" textLength="176" x="881.5" y="107.292">upvotePost: UpvotePost</text><rect fill="#E2E2F0" height="30.2969" rx="2.5" ry="2.5" style="stroke:#181818;stroke-width:0.5;" width="190" x="874.5" y="1657.8906"/><text fill="#000000" font-family="sans-serif" font-size="14" lengthAdjust="spacing" textLength="176" x="881.5" y="1677.8857">upvotePost: UpvotePost</text><rect fill="#E2E2F0" height="30.2969" rx="2.5" ry="2.5" style="stroke:#181818;stroke-width:0.5;" width="221" x="1164" y="87.2969"/><text fill="#000000" font-family="sans-serif" font-size="14" lengthAdjust="spacing" textLength="207" x="1171" y="107.292">memberRepo: MemberRepo</text><rect fill="#E2E2F0" height="30.2969" rx="2.5" ry="2.5" style="stroke:#181818;stroke-width:0.5;" width="221" x="1164" y="1657.8906"/><text fill="#000000" font-family="sans-serif" font-size="14" lengthAdjust="spacing" textLength="207" x="1171" y="1677.8857">memberRepo: MemberRepo</text><rect fill="#E2E2F0" height="30.2969" rx="2.5" ry="2.5" style="stroke:#181818;stroke-width:0.5;" width="145" x="1395" y="1657.8906"/><text fill="#000000" font-family="sans-serif" font-size="14" lengthAdjust="spacing" textLength="131" x="1402" y="1677.8857">member: Member</text><rect fill="#E2E2F0" height="30.2969" rx="2.5" ry="2.5" style="stroke:#181818;stroke-width:0.5;" width="109" x="1550" y="87.2969"/><text fill="#000000" font-family="sans-serif" font-size="14" lengthAdjust="spacing" textLength="95" x="1557" y="107.292">:MemberMap</text><rect fill="#E2E2F0" height="30.2969" rx="2.5" ry="2.5" style="stroke:#181818;stroke-width:0.5;" width="109" x="1550" y="1657.8906"/><text fill="#000000" font-family="sans-serif" font-size="14" lengthAdjust="spacing" textLength="95" x="1557" y="1677.8857">:MemberMap</text><rect fill="#E2E2F0" height="30.2969" rx="2.5" ry="2.5" style="stroke:#181818;stroke-width:0.5;" width="64" x="1691.5" y="87.2969"/><text fill="#000000" font-family="sans-serif" font-size="14" lengthAdjust="spacing" textLength="50" x="1698.5" y="107.292">:Result</text><rect fill="#E2E2F0" height="30.2969" rx="2.5" ry="2.5" style="stroke:#181818;stroke-width:0.5;" width="64" x="1691.5" y="1657.8906"/><text fill="#000000" font-family="sans-serif" font-size="14" lengthAdjust="spacing" textLength="50" x="1698.5" y="1677.8857">:Result</text><rect fill="#E2E2F0" height="30.2969" rx="2.5" ry="2.5" style="stroke:#181818;stroke-width:0.5;" width="164" x="1765.5" y="87.2969"/><text fill="#000000" font-family="sans-serif" font-size="14" lengthAdjust="spacing" textLength="150" x="1772.5" y="107.292">postRepo: PostRepo</text><rect fill="#E2E2F0" height="30.2969" rx="2.5" ry="2.5" style="stroke:#181818;stroke-width:0.5;" width="164" x="1765.5" y="1657.8906"/><text fill="#000000" font-family="sans-serif" font-size="14" lengthAdjust="spacing" textLength="150" x="1772.5" y="1677.8857">postRepo: PostRepo</text><rect fill="#E2E2F0" height="30.2969" rx="2.5" ry="2.5" style="stroke:#181818;stroke-width:0.5;" width="88" x="1939.5" y="1657.8906"/><text fill="#000000" font-family="sans-serif" font-size="14" lengthAdjust="spacing" textLength="74" x="1946.5" y="1677.8857">post: Post</text><rect fill="#E2E2F0" height="30.2969" rx="2.5" ry="2.5" style="stroke:#181818;stroke-width:0.5;" width="81" x="2037.5" y="87.2969"/><text fill="#000000" font-family="sans-serif" font-size="14" lengthAdjust="spacing" textLength="67" x="2044.5" y="107.292">:PostMap</text><rect fill="#E2E2F0" height="30.2969" rx="2.5" ry="2.5" style="stroke:#181818;stroke-width:0.5;" width="81" x="2037.5" y="1657.8906"/><text fill="#000000" font-family="sans-serif" font-size="14" lengthAdjust="spacing" textLength="67" x="2044.5" y="1677.8857">:PostMap</text><rect fill="#E2E2F0" height="30.2969" rx="2.5" ry="2.5" style="stroke:#181818;stroke-width:0.5;" width="248" x="2128.5" y="87.2969"/><text fill="#000000" font-family="sans-serif" font-size="14" lengthAdjust="spacing" textLength="234" x="2135.5" y="107.292">postVotesRepo: PostVotesRepo</text><rect fill="#E2E2F0" height="30.2969" rx="2.5" ry="2.5" style="stroke:#181818;stroke-width:0.5;" width="248" x="2128.5" y="1657.8906"/><text fill="#000000" font-family="sans-serif" font-size="14" lengthAdjust="spacing" textLength="234" x="2135.5" y="1677.8857">postVotesRepo: PostVotesRepo</text><rect fill="#E2E2F0" height="30.2969" rx="2.5" ry="2.5" style="stroke:#181818;stroke-width:0.5;" width="329" x="2386.5" y="1657.8906"/><text fill="#000000" font-family="sans-serif" font-size="14" lengthAdjust="spacing" textLength="315" x="2393.5" y="1677.8857">existingVotesOnPostByMember: PostVote[]</text><rect fill="#E2E2F0" height="30.2969" rx="2.5" ry="2.5" style="stroke:#181818;stroke-width:0.5;" width="116" x="2725.5" y="87.2969"/><text fill="#000000" font-family="sans-serif" font-size="14" lengthAdjust="spacing" textLength="102" x="2732.5" y="107.292">:PostVoteMap</text><rect fill="#E2E2F0" height="30.2969" rx="2.5" ry="2.5" style="stroke:#181818;stroke-width:0.5;" width="116" x="2725.5" y="1657.8906"/><text fill="#000000" font-family="sans-serif" font-size="14" lengthAdjust="spacing" textLength="102" x="2732.5" y="1677.8857">:PostVoteMap</text><rect fill="#E2E2F0" height="30.2969" rx="2.5" ry="2.5" style="stroke:#181818;stroke-width:0.5;" width="194" x="2851.5" y="87.2969"/><text fill="#000000" font-family="sans-serif" font-size="14" lengthAdjust="spacing" textLength="180" x="2858.5" y="107.292">postService: PostService</text><rect fill="#E2E2F0" height="30.2969" rx="2.5" ry="2.5" style="stroke:#181818;stroke-width:0.5;" width="194" x="2851.5" y="1657.8906"/><text fill="#000000" font-family="sans-serif" font-size="14" lengthAdjust="spacing" textLength="180" x="2858.5" y="1677.8857">postService: PostService</text><rect fill="#FFFFFF" height="1521.2969" style="stroke:#181818;stroke-width:1.0;" width="10" x="18.5" y="128.5938"/><rect fill="#FFFFFF" height="1469.8984" style="stroke:#181818;stroke-width:1.0;" width="10" x="292.5" y="179.9922"/><rect fill="#FFFFFF" height="1440.7656" style="stroke:#181818;stroke-width:1.0;" width="10" x="518.5" y="209.125"/><rect fill="#FFFFFF" height="1365.5" style="stroke:#181818;stroke-width:1.0;" width="10" x="523.5" y="246.2578"/><rect fill="#FFFFFF" height="1260.9375" style="stroke:#181818;stroke-width:1.0;" width="10" x="964.5" y="321.6875"/><rect fill="#FFFFFF" height="245.2266" style="stroke:#181818;stroke-width:1.0;" width="10" x="1269.5" y="350.8203"/><rect fill="#FFFFFF" height="29.1328" style="stroke:#181818;stroke-width:1.0;" width="10" x="1462.5" y="957.8047"/><rect fill="#FFFFFF" height="145.6641" style="stroke:#181818;stroke-width:1.0;" width="10" x="1599.5" y="421.25"/><rect fill="#FFFFFF" height="29.1328" style="stroke:#181818;stroke-width:1.0;" width="10" x="1718.5" y="450.3828"/><rect fill="#FFFFFF" height="29.1328" style="stroke:#181818;stroke-width:1.0;" width="10" x="1718.5" y="508.6484"/><rect fill="#FFFFFF" height="29.1328" style="stroke:#181818;stroke-width:1.0;" width="10" x="1718.5" y="724.7422"/><rect fill="#FFFFFF" height="29.1328" style="stroke:#181818;stroke-width:1.0;" width="10" x="1718.5" y="783.0078"/><rect fill="#FFFFFF" height="29.1328" style="stroke:#181818;stroke-width:1.0;" width="10" x="1718.5" y="1115.6328"/><rect fill="#FFFFFF" height="29.1328" style="stroke:#181818;stroke-width:1.0;" width="10" x="1718.5" y="1173.8984"/><rect fill="#FFFFFF" height="245.2266" style="stroke:#181818;stroke-width:1.0;" width="10" x="1842.5" y="625.1797"/><rect fill="#FFFFFF" height="30" style="stroke:#181818;stroke-width:1.0;" width="10" x="1842.5" y="1523.4922"/><rect fill="#FFFFFF" height="29.1328" style="stroke:#181818;stroke-width:1.0;" width="10" x="1978.5" y="899.5391"/><rect fill="#FFFFFF" height="29.1328" style="stroke:#181818;stroke-width:1.0;" width="10" x="1978.5" y="1436.0938"/><rect fill="#FFFFFF" height="145.6641" style="stroke:#181818;stroke-width:1.0;" width="10" x="2073" y="695.6094"/><rect fill="#FFFFFF" height="245.2266" style="stroke:#181818;stroke-width:1.0;" width="10" x="2247.5" y="1016.0703"/><rect fill="#FFFFFF" height="29.1328" style="stroke:#181818;stroke-width:1.0;" width="10" x="2546" y="1319.5625"/><rect fill="#FFFFFF" height="29.1328" style="stroke:#181818;stroke-width:1.0;" width="10" x="2546" y="1377.8281"/><rect fill="#FFFFFF" height="145.6641" style="stroke:#181818;stroke-width:1.0;" width="10" x="2778.5" y="1086.5"/><rect fill="#FFFFFF" height="203.9297" style="stroke:#181818;stroke-width:1.0;" width="10" x="2943.5" y="1290.4297"/><polygon fill="#181818" points="280.5,175.9922,290.5,179.9922,280.5,183.9922,284.5,179.9922" style="stroke:#181818;stroke-width:1.0;"/><line style="stroke:#181818;stroke-width:1.0;" x1="28.5" x2="286.5" y1="179.9922" y2="179.9922"/><text fill="#000000" font-family="sans-serif" font-size="13" font-weight="bold" lengthAdjust="spacing" textLength="9" x="35.5" y="159.7935">1</text><text fill="#000000" font-family="sans-serif" font-size="13" lengthAdjust="spacing" textLength="184" x="48.5" y="144.6606">POST("/api/v1/posts/upvote",</text><text fill="#000000" font-family="sans-serif" font-size="13" lengthAdjust="spacing" textLength="217" x="52.5" y="159.7935">{ "Authorization": accessToken },</text><text fill="#000000" font-family="sans-serif" font-size="13" lengthAdjust="spacing" textLength="94" x="52.5" y="174.9263">{"slug": slug})</text><polygon fill="#181818" points="506.5,205.125,516.5,209.125,506.5,213.125,510.5,209.125" style="stroke:#181818;stroke-width:1.0;"/><line style="stroke:#181818;stroke-width:1.0;" x1="302.5" x2="512.5" y1="209.125" y2="209.125"/><text fill="#000000" font-family="sans-serif" font-size="13" font-weight="bold" lengthAdjust="spacing" textLength="9" x="309.5" y="204.0591">2</text><text fill="#000000" font-family="sans-serif" font-size="13" lengthAdjust="spacing" textLength="111" x="322.5" y="204.0591">execute(req, res)</text><line style="stroke:#181818;stroke-width:1.0;" x1="528.5" x2="575.5" y1="233.2578" y2="233.2578"/><line style="stroke:#181818;stroke-width:1.0;" x1="575.5" x2="575.5" y1="233.2578" y2="246.2578"/><line style="stroke:#181818;stroke-width:1.0;" x1="534.5" x2="575.5" y1="246.2578" y2="246.2578"/><polygon fill="#181818" points="544.5,242.2578,534.5,246.2578,544.5,250.2578,540.5,246.2578" style="stroke:#181818;stroke-width:1.0;"/><text fill="#000000" font-family="sans-serif" font-size="13" font-weight="bold" lengthAdjust="spacing" textLength="8" x="540.5" y="228.1919">3</text><text fill="#000000" font-family="sans-serif" font-size="13" lengthAdjust="spacing" textLength="138" x="552.5" y="228.1919">executeImpl(req, res)</text><polygon fill="#181818" points="689.5,276.3906,699.5,280.3906,689.5,284.3906,693.5,280.3906" style="stroke:#181818;stroke-width:1.0;"/><line style="stroke:#181818;stroke-width:1.0;" x1="533.5" x2="695.5" y1="280.3906" y2="280.3906"/><text fill="#000000" font-family="sans-serif" font-size="13" font-weight="bold" lengthAdjust="spacing" textLength="9" x="540.5" y="275.3247">4</text><text fill="#000000" font-family="sans-serif" font-size="13" lengthAdjust="spacing" textLength="4" x="553.5" y="275.3247">&#160;</text><rect fill="#E2E2F0" height="30.2969" rx="2.5" ry="2.5" style="stroke:#181818;stroke-width:0.5;" width="163" x="701.5" y="259.2578"/><text fill="#000000" font-family="sans-serif" font-size="14" lengthAdjust="spacing" textLength="149" x="708.5" y="279.2529">dto: UpvotePostDTO</text><polygon fill="#181818" points="952.5,317.6875,962.5,321.6875,952.5,325.6875,956.5,321.6875" style="stroke:#181818;stroke-width:1.0;"/><line style="stroke:#181818;stroke-width:1.0;" x1="533.5" x2="958.5" y1="321.6875" y2="321.6875"/><text fill="#000000" font-family="sans-serif" font-size="13" font-weight="bold" lengthAdjust="spacing" textLength="9" x="540.5" y="316.6216">5</text><text fill="#000000" font-family="sans-serif" font-size="13" lengthAdjust="spacing" textLength="83" x="553.5" y="316.6216">execute(dto)</text><polygon fill="#181818" points="1257.5,346.8203,1267.5,350.8203,1257.5,354.8203,1261.5,350.8203" style="stroke:#181818;stroke-width:1.0;"/><line style="stroke:#181818;stroke-width:1.0;" x1="974.5" x2="1263.5" y1="350.8203" y2="350.8203"/><text fill="#000000" font-family="sans-serif" font-size="13" font-weight="bold" lengthAdjust="spacing" textLength="9" x="981.5" y="345.7544">6</text><text fill="#000000" font-family="sans-serif" font-size="13" lengthAdjust="spacing" textLength="203" x="994.5" y="345.7544">getMemberByUserId(dto.userId)</text><polygon fill="#181818" points="1383,375.9531,1393,379.9531,1383,383.9531,1387,379.9531" style="stroke:#181818;stroke-width:1.0;"/><line style="stroke:#181818;stroke-width:1.0;" x1="974.5" x2="1389" y1="379.9531" y2="379.9531"/><text fill="#000000" font-family="sans-serif" font-size="13" font-weight="bold" lengthAdjust="spacing" textLength="9" x="981.5" y="374.8872">7</text><text fill="#000000" font-family="sans-serif" font-size="13" lengthAdjust="spacing" textLength="4" x="994.5" y="374.8872">&#160;</text><rect fill="#E2E2F0" height="30.2969" rx="2.5" ry="2.5" style="stroke:#181818;stroke-width:0.5;" width="145" x="1395" y="358.8203"/><text fill="#000000" font-family="sans-serif" font-size="14" lengthAdjust="spacing" textLength="131" x="1402" y="378.8154">member: Member</text><polygon fill="#181818" points="1587.5,417.25,1597.5,421.25,1587.5,425.25,1591.5,421.25" style="stroke:#181818;stroke-width:1.0;"/><line style="stroke:#181818;stroke-width:1.0;" x1="1279.5" x2="1593.5" y1="421.25" y2="421.25"/><text fill="#000000" font-family="sans-serif" font-size="13" font-weight="bold" lengthAdjust="spacing" textLength="9" x="1286.5" y="416.1841">8</text><text fill="#000000" font-family="sans-serif" font-size="13" lengthAdjust="spacing" textLength="128" x="1299.5" y="416.1841">toDomain(member)</text><polygon fill="#181818" points="1706.5,446.3828,1716.5,450.3828,1706.5,454.3828,1710.5,450.3828" style="stroke:#181818;stroke-width:1.0;"/><line style="stroke:#181818;stroke-width:1.0;" x1="1609.5" x2="1712.5" y1="450.3828" y2="450.3828"/><text fill="#000000" font-family="sans-serif" font-size="13" font-weight="bold" lengthAdjust="spacing" textLength="9" x="1616.5" y="445.3169">9</text><text fill="#000000" font-family="sans-serif" font-size="13" lengthAdjust="spacing" textLength="72" x="1629.5" y="445.3169">isSuccess()</text><polygon fill="#181818" points="1620.5,475.5156,1610.5,479.5156,1620.5,483.5156,1616.5,479.5156" style="stroke:#181818;stroke-width:1.0;"/><line style="stroke:#181818;stroke-width:1.0;stroke-dasharray:2.0,2.0;" x1="1614.5" x2="1722.5" y1="479.5156" y2="479.5156"/><text fill="#000000" font-family="sans-serif" font-size="13" font-weight="bold" lengthAdjust="spacing" textLength="19" x="1626.5" y="474.4497">10</text><text fill="#000000" font-family="sans-serif" font-size="13" lengthAdjust="spacing" textLength="62" x="1649.5" y="474.4497">isSuccess</text><polygon fill="#181818" points="1706.5,504.6484,1716.5,508.6484,1706.5,512.6484,1710.5,508.6484" style="stroke:#181818;stroke-width:1.0;"/><line style="stroke:#181818;stroke-width:1.0;" x1="1609.5" x2="1712.5" y1="508.6484" y2="508.6484"/><text fill="#000000" font-family="sans-serif" font-size="13" font-weight="bold" lengthAdjust="spacing" textLength="18" x="1616.5" y="503.5825">11</text><text fill="#000000" font-family="sans-serif" font-size="13" lengthAdjust="spacing" textLength="67" x="1638.5" y="503.5825">getValue()</text><polygon fill="#181818" points="1620.5,533.7813,1610.5,537.7813,1620.5,541.7813,1616.5,537.7813" style="stroke:#181818;stroke-width:1.0;"/><line style="stroke:#181818;stroke-width:1.0;stroke-dasharray:2.0,2.0;" x1="1614.5" x2="1722.5" y1="537.7813" y2="537.7813"/><text fill="#000000" font-family="sans-serif" font-size="13" font-weight="bold" lengthAdjust="spacing" textLength="18" x="1626.5" y="532.7153">12</text><text fill="#000000" font-family="sans-serif" font-size="13" lengthAdjust="spacing" textLength="42" x="1648.5" y="532.7153">_value</text><polygon fill="#181818" points="1290.5,562.9141,1280.5,566.9141,1290.5,570.9141,1286.5,566.9141" style="stroke:#181818;stroke-width:1.0;"/><line style="stroke:#181818;stroke-width:1.0;stroke-dasharray:2.0,2.0;" x1="1284.5" x2="1603.5" y1="566.9141" y2="566.9141"/><text fill="#000000" font-family="sans-serif" font-size="13" font-weight="bold" lengthAdjust="spacing" textLength="17" x="1296.5" y="561.8481">13</text><text fill="#000000" font-family="sans-serif" font-size="13" lengthAdjust="spacing" textLength="167" x="1317.5" y="561.8481">memberOrError.isSuccess</text><polygon fill="#181818" points="985.5,592.0469,975.5,596.0469,985.5,600.0469,981.5,596.0469" style="stroke:#181818;stroke-width:1.0;"/><line style="stroke:#181818;stroke-width:1.0;stroke-dasharray:2.0,2.0;" x1="979.5" x2="1273.5" y1="596.0469" y2="596.0469"/><text fill="#000000" font-family="sans-serif" font-size="13" font-weight="bold" lengthAdjust="spacing" textLength="18" x="991.5" y="590.981">14</text><text fill="#000000" font-family="sans-serif" font-size="13" lengthAdjust="spacing" textLength="249" x="1013.5" y="590.981">MemberMap.memberOrError.isSuccess</text><polygon fill="#181818" points="1830.5,621.1797,1840.5,625.1797,1830.5,629.1797,1834.5,625.1797" style="stroke:#181818;stroke-width:1.0;"/><line style="stroke:#181818;stroke-width:1.0;" x1="974.5" x2="1836.5" y1="625.1797" y2="625.1797"/><text fill="#000000" font-family="sans-serif" font-size="13" font-weight="bold" lengthAdjust="spacing" textLength="18" x="981.5" y="620.1138">15</text><text fill="#000000" font-family="sans-serif" font-size="13" lengthAdjust="spacing" textLength="153" x="1003.5" y="620.1138">getPostBySlug(dto.slug)</text><polygon fill="#181818" points="1927.5,650.3125,1937.5,654.3125,1927.5,658.3125,1931.5,654.3125" style="stroke:#181818;stroke-width:1.0;"/><line style="stroke:#181818;stroke-width:1.0;" x1="974.5" x2="1933.5" y1="654.3125" y2="654.3125"/><text fill="#000000" font-family="sans-serif" font-size="13" font-weight="bold" lengthAdjust="spacing" textLength="18" x="981.5" y="649.2466">16</text><text fill="#000000" font-family="sans-serif" font-size="13" lengthAdjust="spacing" textLength="4" x="1003.5" y="649.2466">&#160;</text><rect fill="#E2E2F0" height="30.2969" rx="2.5" ry="2.5" style="stroke:#181818;stroke-width:0.5;" width="88" x="1939.5" y="633.1797"/><text fill="#000000" font-family="sans-serif" font-size="14" lengthAdjust="spacing" textLength="74" x="1946.5" y="653.1748">post: Post</text><polygon fill="#181818" points="2061,691.6094,2071,695.6094,2061,699.6094,2065,695.6094" style="stroke:#181818;stroke-width:1.0;"/><line style="stroke:#181818;stroke-width:1.0;" x1="1852.5" x2="2067" y1="695.6094" y2="695.6094"/><text fill="#000000" font-family="sans-serif" font-size="13" font-weight="bold" lengthAdjust="spacing" textLength="18" x="1859.5" y="690.5435">17</text><text fill="#000000" font-family="sans-serif" font-size="13" lengthAdjust="spacing" textLength="101" x="1881.5" y="690.5435">toDomain(post)</text><polygon fill="#181818" points="1739.5,720.7422,1729.5,724.7422,1739.5,728.7422,1735.5,724.7422" style="stroke:#181818;stroke-width:1.0;"/><line style="stroke:#181818;stroke-width:1.0;" x1="1733.5" x2="2072" y1="724.7422" y2="724.7422"/><text fill="#000000" font-family="sans-serif" font-size="13" font-weight="bold" lengthAdjust="spacing" textLength="18" x="1745.5" y="719.6763">18</text><text fill="#000000" font-family="sans-serif" font-size="13" lengthAdjust="spacing" textLength="72" x="1767.5" y="719.6763">isSuccess()</text><polygon fill="#181818" points="2061,749.875,2071,753.875,2061,757.875,2065,753.875" style="stroke:#181818;stroke-width:1.0;"/><line style="stroke:#181818;stroke-width:1.0;stroke-dasharray:2.0,2.0;" x1="1723.5" x2="2067" y1="753.875" y2="753.875"/><text fill="#000000" font-family="sans-serif" font-size="13" font-weight="bold" lengthAdjust="spacing" textLength="18" x="1730.5" y="748.8091">19</text><text fill="#000000" font-family="sans-serif" font-size="13" lengthAdjust="spacing" textLength="62" x="1752.5" y="748.8091">isSuccess</text><polygon fill="#181818" points="1739.5,779.0078,1729.5,783.0078,1739.5,787.0078,1735.5,783.0078" style="stroke:#181818;stroke-width:1.0;"/><line style="stroke:#181818;stroke-width:1.0;" x1="1733.5" x2="2072" y1="783.0078" y2="783.0078"/><text fill="#000000" font-family="sans-serif" font-size="13" font-weight="bold" lengthAdjust="spacing" textLength="19" x="1745.5" y="777.9419">20</text><text fill="#000000" font-family="sans-serif" font-size="13" lengthAdjust="spacing" textLength="67" x="1768.5" y="777.9419">getValue()</text><polygon fill="#181818" points="2061,808.1406,2071,812.1406,2061,816.1406,2065,812.1406" style="stroke:#181818;stroke-width:1.0;"/><line style="stroke:#181818;stroke-width:1.0;stroke-dasharray:2.0,2.0;" x1="1723.5" x2="2067" y1="812.1406" y2="812.1406"/><text fill="#000000" font-family="sans-serif" font-size="13" font-weight="bold" lengthAdjust="spacing" textLength="18" x="1730.5" y="807.0747">21</text><text fill="#000000" font-family="sans-serif" font-size="13" lengthAdjust="spacing" textLength="42" x="1752.5" y="807.0747">_value</text><polygon fill="#181818" points="1863.5,837.2734,1853.5,841.2734,1863.5,845.2734,1859.5,841.2734" style="stroke:#181818;stroke-width:1.0;"/><line style="stroke:#181818;stroke-width:1.0;stroke-dasharray:2.0,2.0;" x1="1857.5" x2="2077" y1="841.2734" y2="841.2734"/><text fill="#000000" font-family="sans-serif" font-size="13" font-weight="bold" lengthAdjust="spacing" textLength="18" x="1869.5" y="836.2075">22</text><text fill="#000000" font-family="sans-serif" font-size="13" lengthAdjust="spacing" textLength="140" x="1891.5" y="836.2075">postOrError.isSuccess</text><polygon fill="#181818" points="985.5,866.4063,975.5,870.4063,985.5,874.4063,981.5,870.4063" style="stroke:#181818;stroke-width:1.0;"/><line style="stroke:#181818;stroke-width:1.0;stroke-dasharray:2.0,2.0;" x1="979.5" x2="1846.5" y1="870.4063" y2="870.4063"/><text fill="#000000" font-family="sans-serif" font-size="13" font-weight="bold" lengthAdjust="spacing" textLength="17" x="991.5" y="865.3403">23</text><text fill="#000000" font-family="sans-serif" font-size="13" lengthAdjust="spacing" textLength="198" x="1012.5" y="865.3403">PostMap.postOrError.isSuccess</text><polygon fill="#181818" points="1966.5,895.5391,1976.5,899.5391,1966.5,903.5391,1970.5,899.5391" style="stroke:#181818;stroke-width:1.0;"/><line style="stroke:#181818;stroke-width:1.0;" x1="974.5" x2="1972.5" y1="899.5391" y2="899.5391"/><text fill="#000000" font-family="sans-serif" font-size="13" font-weight="bold" lengthAdjust="spacing" textLength="18" x="981.5" y="894.4731">24</text><text fill="#000000" font-family="sans-serif" font-size="13" lengthAdjust="spacing" textLength="78" x="1003.5" y="894.4731">get postId ()</text><polygon fill="#181818" points="985.5,924.6719,975.5,928.6719,985.5,932.6719,981.5,928.6719" style="stroke:#181818;stroke-width:1.0;"/><line style="stroke:#181818;stroke-width:1.0;stroke-dasharray:2.0,2.0;" x1="979.5" x2="1982.5" y1="928.6719" y2="928.6719"/><text fill="#000000" font-family="sans-serif" font-size="13" font-weight="bold" lengthAdjust="spacing" textLength="18" x="991.5" y="923.606">25</text><text fill="#000000" font-family="sans-serif" font-size="13" lengthAdjust="spacing" textLength="39" x="1013.5" y="923.606">postId</text><polygon fill="#181818" points="1450.5,953.8047,1460.5,957.8047,1450.5,961.8047,1454.5,957.8047" style="stroke:#181818;stroke-width:1.0;"/><line style="stroke:#181818;stroke-width:1.0;" x1="974.5" x2="1456.5" y1="957.8047" y2="957.8047"/><text fill="#000000" font-family="sans-serif" font-size="13" font-weight="bold" lengthAdjust="spacing" textLength="18" x="981.5" y="952.7388">26</text><text fill="#000000" font-family="sans-serif" font-size="13" lengthAdjust="spacing" textLength="105" x="1003.5" y="952.7388">get memberId ()</text><polygon fill="#181818" points="985.5,982.9375,975.5,986.9375,985.5,990.9375,981.5,986.9375" style="stroke:#181818;stroke-width:1.0;"/><line style="stroke:#181818;stroke-width:1.0;stroke-dasharray:2.0,2.0;" x1="979.5" x2="1466.5" y1="986.9375" y2="986.9375"/><text fill="#000000" font-family="sans-serif" font-size="13" font-weight="bold" lengthAdjust="spacing" textLength="18" x="991.5" y="981.8716">27</text><text fill="#000000" font-family="sans-serif" font-size="13" lengthAdjust="spacing" textLength="66" x="1013.5" y="981.8716">memberId</text><polygon fill="#181818" points="2235.5,1012.0703,2245.5,1016.0703,2235.5,1020.0703,2239.5,1016.0703" style="stroke:#181818;stroke-width:1.0;"/><line style="stroke:#181818;stroke-width:1.0;" x1="974.5" x2="2241.5" y1="1016.0703" y2="1016.0703"/><text fill="#000000" font-family="sans-serif" font-size="13" font-weight="bold" lengthAdjust="spacing" textLength="18" x="981.5" y="1011.0044">28</text><text fill="#000000" font-family="sans-serif" font-size="13" lengthAdjust="spacing" textLength="403" x="1003.5" y="1011.0044">getVotesForPostByMemberId(post.postId,  member.memberId)</text><polygon fill="#181818" points="2374.5,1041.2031,2384.5,1045.2031,2374.5,1049.2031,2378.5,1045.2031" style="stroke:#181818;stroke-width:1.0;"/><line style="stroke:#181818;stroke-width:1.0;" x1="974.5" x2="2380.5" y1="1045.2031" y2="1045.2031"/><text fill="#000000" font-family="sans-serif" font-size="13" font-weight="bold" lengthAdjust="spacing" textLength="18" x="981.5" y="1040.1372">29</text><text fill="#000000" font-family="sans-serif" font-size="13" lengthAdjust="spacing" textLength="4" x="1003.5" y="1040.1372">&#160;</text><rect fill="#E2E2F0" height="30.2969" rx="2.5" ry="2.5" style="stroke:#181818;stroke-width:0.5;" width="329" x="2386.5" y="1024.0703"/><text fill="#000000" font-family="sans-serif" font-size="14" lengthAdjust="spacing" textLength="315" x="2393.5" y="1044.0654">existingVotesOnPostByMember: PostVote[]</text><polygon fill="#181818" points="2766.5,1082.5,2776.5,1086.5,2766.5,1090.5,2770.5,1086.5" style="stroke:#181818;stroke-width:1.0;"/><line style="stroke:#181818;stroke-width:1.0;" x1="2257.5" x2="2772.5" y1="1086.5" y2="1086.5"/><text fill="#000000" font-family="sans-serif" font-size="13" font-weight="bold" lengthAdjust="spacing" textLength="18" x="2264.5" y="1081.4341">30</text><text fill="#000000" font-family="sans-serif" font-size="13" lengthAdjust="spacing" textLength="109" x="2286.5" y="1081.4341">toDomain(votes)</text><polygon fill="#181818" points="1739.5,1111.6328,1729.5,1115.6328,1739.5,1119.6328,1735.5,1115.6328" style="stroke:#181818;stroke-width:1.0;"/><line style="stroke:#181818;stroke-width:1.0;" x1="1733.5" x2="2777.5" y1="1115.6328" y2="1115.6328"/><text fill="#000000" font-family="sans-serif" font-size="13" font-weight="bold" lengthAdjust="spacing" textLength="17" x="1745.5" y="1110.5669">31</text><text fill="#000000" font-family="sans-serif" font-size="13" lengthAdjust="spacing" textLength="72" x="1766.5" y="1110.5669">isSuccess()</text><polygon fill="#181818" points="2766.5,1140.7656,2776.5,1144.7656,2766.5,1148.7656,2770.5,1144.7656" style="stroke:#181818;stroke-width:1.0;"/><line style="stroke:#181818;stroke-width:1.0;stroke-dasharray:2.0,2.0;" x1="1723.5" x2="2772.5" y1="1144.7656" y2="1144.7656"/><text fill="#000000" font-family="sans-serif" font-size="13" font-weight="bold" lengthAdjust="spacing" textLength="17" x="1730.5" y="1139.6997">32</text><text fill="#000000" font-family="sans-serif" font-size="13" lengthAdjust="spacing" textLength="62" x="1751.5" y="1139.6997">isSuccess</text><polygon fill="#181818" points="1739.5,1169.8984,1729.5,1173.8984,1739.5,1177.8984,1735.5,1173.8984" style="stroke:#181818;stroke-width:1.0;"/><line style="stroke:#181818;stroke-width:1.0;" x1="1733.5" x2="2777.5" y1="1173.8984" y2="1173.8984"/><text fill="#000000" font-family="sans-serif" font-size="13" font-weight="bold" lengthAdjust="spacing" textLength="16" x="1745.5" y="1168.8325">33</text><text fill="#000000" font-family="sans-serif" font-size="13" lengthAdjust="spacing" textLength="67" x="1765.5" y="1168.8325">getValue()</text><polygon fill="#181818" points="2766.5,1199.0313,2776.5,1203.0313,2766.5,1207.0313,2770.5,1203.0313" style="stroke:#181818;stroke-width:1.0;"/><line style="stroke:#181818;stroke-width:1.0;stroke-dasharray:2.0,2.0;" x1="1723.5" x2="2772.5" y1="1203.0313" y2="1203.0313"/><text fill="#000000" font-family="sans-serif" font-size="13" font-weight="bold" lengthAdjust="spacing" textLength="17" x="1730.5" y="1197.9653">34</text><text fill="#000000" font-family="sans-serif" font-size="13" lengthAdjust="spacing" textLength="42" x="1751.5" y="1197.9653">_value</text><polygon fill="#181818" points="2268.5,1228.1641,2258.5,1232.1641,2268.5,1236.1641,2264.5,1232.1641" style="stroke:#181818;stroke-width:1.0;"/><line style="stroke:#181818;stroke-width:1.0;stroke-dasharray:2.0,2.0;" x1="2262.5" x2="2782.5" y1="1232.1641" y2="1232.1641"/><text fill="#000000" font-family="sans-serif" font-size="13" font-weight="bold" lengthAdjust="spacing" textLength="17" x="2274.5" y="1227.0981">35</text><text fill="#000000" font-family="sans-serif" font-size="13" lengthAdjust="spacing" textLength="170" x="2295.5" y="1227.0981">postVoteOrError.isSuccess</text><polygon fill="#181818" points="985.5,1257.2969,975.5,1261.2969,985.5,1265.2969,981.5,1261.2969" style="stroke:#181818;stroke-width:1.0;"/><line style="stroke:#181818;stroke-width:1.0;stroke-dasharray:2.0,2.0;" x1="979.5" x2="2251.5" y1="1261.2969" y2="1261.2969"/><text fill="#000000" font-family="sans-serif" font-size="13" font-weight="bold" lengthAdjust="spacing" textLength="17" x="991.5" y="1256.231">36</text><text fill="#000000" font-family="sans-serif" font-size="13" lengthAdjust="spacing" textLength="258" x="1012.5" y="1256.231">PostVoteMap.postVoteOrError.isSuccess</text><polygon fill="#181818" points="2931.5,1286.4297,2941.5,1290.4297,2931.5,1294.4297,2935.5,1290.4297" style="stroke:#181818;stroke-width:1.0;"/><line style="stroke:#181818;stroke-width:1.0;" x1="974.5" x2="2937.5" y1="1290.4297" y2="1290.4297"/><text fill="#000000" font-family="sans-serif" font-size="13" font-weight="bold" lengthAdjust="spacing" textLength="17" x="981.5" y="1285.3638">37</text><text fill="#000000" font-family="sans-serif" font-size="13" lengthAdjust="spacing" textLength="383" x="1002.5" y="1285.3638">upvotePost(post, member, existingVotesOnPostByMember)</text><polygon fill="#181818" points="2567,1315.5625,2557,1319.5625,2567,1323.5625,2563,1319.5625" style="stroke:#181818;stroke-width:1.0;"/><line style="stroke:#181818;stroke-width:1.0;" x1="2561" x2="2942.5" y1="1319.5625" y2="1319.5625"/><text fill="#000000" font-family="sans-serif" font-size="13" font-weight="bold" lengthAdjust="spacing" textLength="17" x="2573" y="1314.4966">38</text><text fill="#000000" font-family="sans-serif" font-size="13" lengthAdjust="spacing" textLength="66" x="2594" y="1314.4966">isUpvote()</text><polygon fill="#181818" points="2931.5,1344.6953,2941.5,1348.6953,2931.5,1352.6953,2935.5,1348.6953" style="stroke:#181818;stroke-width:1.0;"/><line style="stroke:#181818;stroke-width:1.0;stroke-dasharray:2.0,2.0;" x1="2551" x2="2937.5" y1="1348.6953" y2="1348.6953"/><text fill="#000000" font-family="sans-serif" font-size="13" font-weight="bold" lengthAdjust="spacing" textLength="17" x="2558" y="1343.6294">39</text><text fill="#000000" font-family="sans-serif" font-size="13" lengthAdjust="spacing" textLength="31" x="2579" y="1343.6294">false</text><polygon fill="#181818" points="2567,1373.8281,2557,1377.8281,2567,1381.8281,2563,1377.8281" style="stroke:#181818;stroke-width:1.0;"/><line style="stroke:#181818;stroke-width:1.0;" x1="2561" x2="2942.5" y1="1377.8281" y2="1377.8281"/><text fill="#000000" font-family="sans-serif" font-size="13" font-weight="bold" lengthAdjust="spacing" textLength="19" x="2573" y="1372.7622">40</text><text fill="#000000" font-family="sans-serif" font-size="13" lengthAdjust="spacing" textLength="301" x="2596" y="1372.7622">createUpvote(member.memberId, post.postId)</text><polygon fill="#181818" points="2931.5,1402.9609,2941.5,1406.9609,2931.5,1410.9609,2935.5,1406.9609" style="stroke:#181818;stroke-width:1.0;"/><line style="stroke:#181818;stroke-width:1.0;stroke-dasharray:2.0,2.0;" x1="2551" x2="2937.5" y1="1406.9609" y2="1406.9609"/><text fill="#000000" font-family="sans-serif" font-size="13" font-weight="bold" lengthAdjust="spacing" textLength="18" x="2558" y="1401.895">41</text><text fill="#000000" font-family="sans-serif" font-size="13" lengthAdjust="spacing" textLength="137" x="2580" y="1401.895">Result.ok&lt;PostVote&gt;</text><polygon fill="#181818" points="1999.5,1432.0938,1989.5,1436.0938,1999.5,1440.0938,1995.5,1436.0938" style="stroke:#181818;stroke-width:1.0;"/><line style="stroke:#181818;stroke-width:1.0;" x1="1993.5" x2="2942.5" y1="1436.0938" y2="1436.0938"/><text fill="#000000" font-family="sans-serif" font-size="13" font-weight="bold" lengthAdjust="spacing" textLength="18" x="2005.5" y="1431.0278">42</text><text fill="#000000" font-family="sans-serif" font-size="13" lengthAdjust="spacing" textLength="109" x="2027.5" y="1431.0278">addVote(upvote)</text><polygon fill="#181818" points="2931.5,1461.2266,2941.5,1465.2266,2931.5,1469.2266,2935.5,1465.2266" style="stroke:#181818;stroke-width:1.0;"/><line style="stroke:#181818;stroke-width:1.0;stroke-dasharray:2.0,2.0;" x1="1983.5" x2="2937.5" y1="1465.2266" y2="1465.2266"/><text fill="#000000" font-family="sans-serif" font-size="13" font-weight="bold" lengthAdjust="spacing" textLength="17" x="1990.5" y="1460.1606">43</text><text fill="#000000" font-family="sans-serif" font-size="13" lengthAdjust="spacing" textLength="116" x="2011.5" y="1460.1606">Result.ok&lt;void&gt;()</text><polygon fill="#181818" points="985.5,1490.3594,975.5,1494.3594,985.5,1498.3594,981.5,1494.3594" style="stroke:#181818;stroke-width:1.0;"/><line style="stroke:#181818;stroke-width:1.0;stroke-dasharray:2.0,2.0;" x1="979.5" x2="2947.5" y1="1494.3594" y2="1494.3594"/><text fill="#000000" font-family="sans-serif" font-size="13" font-weight="bold" lengthAdjust="spacing" textLength="18" x="991.5" y="1489.2935">44</text><text fill="#000000" font-family="sans-serif" font-size="13" lengthAdjust="spacing" textLength="155" x="1013.5" y="1489.2935">right(Result.ok&lt;void&gt;())</text><polygon fill="#181818" points="1830.5,1519.4922,1840.5,1523.4922,1830.5,1527.4922,1834.5,1523.4922" style="stroke:#181818;stroke-width:1.0;"/><line style="stroke:#181818;stroke-width:1.0;" x1="974.5" x2="1836.5" y1="1523.4922" y2="1523.4922"/><text fill="#000000" font-family="sans-serif" font-size="13" font-weight="bold" lengthAdjust="spacing" textLength="18" x="981.5" y="1518.4263">45</text><text fill="#000000" font-family="sans-serif" font-size="13" lengthAdjust="spacing" textLength="69" x="1003.5" y="1518.4263">save(post)</text><polygon fill="#181818" points="544.5,1578.625,534.5,1582.625,544.5,1586.625,540.5,1582.625" style="stroke:#181818;stroke-width:1.0;"/><line style="stroke:#181818;stroke-width:1.0;stroke-dasharray:2.0,2.0;" x1="538.5" x2="968.5" y1="1582.625" y2="1582.625"/><text fill="#000000" font-family="sans-serif" font-size="13" font-weight="bold" lengthAdjust="spacing" textLength="18" x="550.5" y="1577.5591">46</text><text fill="#000000" font-family="sans-serif" font-size="13" lengthAdjust="spacing" textLength="155" x="572.5" y="1577.5591">right(Result.ok&lt;void&gt;())</text><polygon fill="#181818" points="313.5,1607.7578,303.5,1611.7578,313.5,1615.7578,309.5,1611.7578" style="stroke:#181818;stroke-width:1.0;"/><line style="stroke:#181818;stroke-width:1.0;stroke-dasharray:2.0,2.0;" x1="307.5" x2="517.5" y1="1611.7578" y2="1611.7578"/><text fill="#000000" font-family="sans-serif" font-size="13" font-weight="bold" lengthAdjust="spacing" textLength="18" x="319.5" y="1606.6919">47</text><text fill="#000000" font-family="sans-serif" font-size="13" lengthAdjust="spacing" textLength="45" x="341.5" y="1606.6919">ok(res)</text><polygon fill="#181818" points="39.5,1636.8906,29.5,1640.8906,39.5,1644.8906,35.5,1640.8906" style="stroke:#181818;stroke-width:1.0;"/><line style="stroke:#181818;stroke-width:1.0;stroke-dasharray:2.0,2.0;" x1="33.5" x2="291.5" y1="1640.8906" y2="1640.8906"/><text fill="#000000" font-family="sans-serif" font-size="13" font-weight="bold" lengthAdjust="spacing" textLength="18" x="45.5" y="1635.8247">48</text><text fill="#000000" font-family="sans-serif" font-size="13" lengthAdjust="spacing" textLength="218" x="67.5" y="1635.8247">post votes are updated (+1 point)</text><!--SRC=[fLTRJzim57xlhx3w5BIIWhIdQa8QOvDuG4MKxcMR9Y_nYaKQ1yUfO1F_VJw-nN6SDXsyuEDp-OxFBQU2YeAWzUhixFq2VMM285OYZ2fM2vGqrKxUdA1Jj29F3IapWguetd2yHPC9RWGhc-qlmkKv4uoZwRecV8fmZU0mgJ0NDACLBWMQWi4xrWWZq99TCOruAxcVM2auAmh25sWTkLLcOk9TWxbWllxL_L8fokiXO5zSFyQHNPKjWSVVaKeYtBYpKcbPCHKhxebsnHQQVuCh9UAeGEgEr4sXVTJ7ICYLTxVcr8Q-vrcbNkxUNFLUkm2UzSYS-oQWWkeMr97EgBlfwf9dMWjQRXHxMOBkvSkDYPQrzEr7nqp4FxZsVJHqtyyLuJkQ4MtR4CwueIUghkaEowPG1Jr1yWzEwFJ2gs1fPBcwJwPpND7vxdmEd7gk2sewGzzBz1TDFpRYWN7w1mlAoka2uImZTNtF7ac9NhNGj2wQZMJ1lzSJ1URmlNvHZ9O6N-9TGvv99YKIJfvcY9CwC1dj7IKIuno4kTvMnV5G6ISW0Esu3nduUmNMNllQTqkbm0-latKk7Gqs_7xU4A6hx_854dwTWxMqKSV0gDVhtejCMm-XA4Qh2GpNvGias1NRObecMY80RCS1N3iAREWni42qNZMgm990rym9kDD7TDg5TffA9YSnpIYaZDXNN3JaQCIVEr0R1nTaIP-N_3FdZAU3hdS3vaSzg1mdc8wqxEK-akfs0ClWw96sahsjIWcQFDRZGHcfEHottCu1Kq1cA7lb0zm0n4vkk3JdDnIEWnnJDX6uuuh6eHqi6GVLoGAS3gRK3r0RtQ1GZ50wogBBwq0YLHZKwJf7IQGed2yzFxHI371mycWqVOxWzSPJ3zEgndjXu8tUNW0v1-eBu_vdNevO44prasOMFhLmaRYqkqJGCMex67R4nTCPiErZzWMlXK2_ZlIGtInijHdwZRtayCVsKmJs-9vogAFwoa7sKsl9KKtcHp18HgJRZ7Gw6g9R80FLuDR0TgzGLJWprJT3UnRJI4NQpT6-oT1-yK5kjIF9G4bt8kB2x5pzZOkQ3BqMASP-VDqeneUWosR8QyB_yq-NIyeUFzYyNGnvE-IdN8_p70JiBz13Ct70WHsZ-OK9Ssm-Tg23ekDqyo2IdgseCVU3OTyEKECTYNsHEv_zKP-DmLLyhC_X7XpVgeCVEUmnSPkzPsjuj_T_eq1mQx2YKgQ6Ai8Sj7DfH7w6tfrB5Yt5oJy0]--></g></svg>