<?xml version="1.0" encoding="us-ascii" standalone="no"?><svg xmlns="http://www.w3.org/2000/svg" xmlns:xlink="http://www.w3.org/1999/xlink" contentStyleType="text/css" height="1427px" preserveAspectRatio="none" style="width:3135px;height:1427px;background:#FFFFFF;" version="1.1" viewBox="0 0 3135 1427" width="3135px" zoomAndPan="magnify"><defs/><g><text fill="#000000" font-family="sans-serif" font-size="14" font-weight="bold" lengthAdjust="spacing" textLength="226" x="1453.75" y="27.9951">US 005: Vote on a comment</text><rect fill="#FFFFFF" height="1208.9063" style="stroke:#181818;stroke-width:1.0;" width="10" x="18.5" y="128.5938"/><rect fill="#FFFFFF" height="1148.5078" style="stroke:#181818;stroke-width:1.0;" width="10" x="360.5" y="179.9922"/><rect fill="#FFFFFF" height="1128.375" style="stroke:#181818;stroke-width:1.0;" width="10" x="544.5" y="209.125"/><rect fill="#FFFFFF" height="1082.2422" style="stroke:#181818;stroke-width:1.0;" width="10" x="549.5" y="246.2578"/><rect fill="#FFFFFF" height="961.3828" style="stroke:#181818;stroke-width:1.0;" width="10" x="876" y="337.9844"/><rect fill="#FFFFFF" height="145.6641" style="stroke:#181818;stroke-width:1.0;" width="10" x="1121" y="367.1172"/><rect fill="#FFFFFF" height="87.3984" style="stroke:#181818;stroke-width:1.0;" width="10" x="1291" y="396.25"/><rect fill="#FFFFFF" height="29.1328" style="stroke:#181818;stroke-width:1.0;" width="10" x="1498" y="425.3828"/><rect fill="#FFFFFF" height="29.1328" style="stroke:#181818;stroke-width:1.0;" width="10" x="1498" y="600.1797"/><rect fill="#FFFFFF" height="29.1328" style="stroke:#181818;stroke-width:1.0;" width="10" x="1498" y="774.9766"/><rect fill="#FFFFFF" height="29.1328" style="stroke:#181818;stroke-width:1.0;" width="10" x="1498" y="949.7734"/><rect fill="#FFFFFF" height="145.6641" style="stroke:#181818;stroke-width:1.0;" width="10" x="1601.5" y="541.9141"/><rect fill="#FFFFFF" height="87.3984" style="stroke:#181818;stroke-width:1.0;" width="10" x="1786.5" y="571.0469"/><rect fill="#FFFFFF" height="145.6641" style="stroke:#181818;stroke-width:1.0;" width="10" x="1899.5" y="716.7109"/><rect fill="#FFFFFF" height="87.3984" style="stroke:#181818;stroke-width:1.0;" width="10" x="2051.5" y="745.8438"/><rect fill="#FFFFFF" height="145.6641" style="stroke:#181818;stroke-width:1.0;" width="10" x="2184.5" y="891.5078"/><rect fill="#FFFFFF" height="87.3984" style="stroke:#181818;stroke-width:1.0;" width="10" x="2355" y="920.6406"/><rect fill="#FFFFFF" height="203.9297" style="stroke:#181818;stroke-width:1.0;" width="10" x="2493" y="1066.3047"/><rect fill="#FFFFFF" height="29.1328" style="stroke:#181818;stroke-width:1.0;" width="10" x="2912" y="1095.4375"/><rect fill="#FFFFFF" height="29.1328" style="stroke:#181818;stroke-width:1.0;" width="10" x="3005.5" y="1211.9688"/><rect fill="#FFFFFF" height="29.1328" style="stroke:#181818;stroke-width:1.0;" width="10" x="3081.5" y="1153.7031"/><line style="stroke:#181818;stroke-width:0.5;stroke-dasharray:5.0,5.0;" x1="23" x2="23" y1="118.5938" y2="1346.5"/><line style="stroke:#181818;stroke-width:0.5;stroke-dasharray:5.0,5.0;" x1="365" x2="365" y1="118.5938" y2="1346.5"/><line style="stroke:#181818;stroke-width:0.5;stroke-dasharray:5.0,5.0;" x1="549" x2="549" y1="118.5938" y2="1346.5"/><line style="stroke:#181818;stroke-width:0.5;stroke-dasharray:5.0,5.0;" x1="733" x2="733" y1="298.0547" y2="1346.5"/><line style="stroke:#181818;stroke-width:0.5;stroke-dasharray:5.0,5.0;" x1="881" x2="881" y1="118.5938" y2="1346.5"/><line style="stroke:#181818;stroke-width:0.5;stroke-dasharray:5.0,5.0;" x1="1125.5" x2="1125.5" y1="118.5938" y2="1346.5"/><line style="stroke:#181818;stroke-width:0.5;stroke-dasharray:5.0,5.0;" x1="1296" x2="1296" y1="118.5938" y2="1346.5"/><line style="stroke:#181818;stroke-width:0.5;stroke-dasharray:5.0,5.0;" x1="1502.5" x2="1502.5" y1="118.5938" y2="1346.5"/><line style="stroke:#181818;stroke-width:0.5;stroke-dasharray:5.0,5.0;" x1="1606.5" x2="1606.5" y1="118.5938" y2="1346.5"/><line style="stroke:#181818;stroke-width:0.5;stroke-dasharray:5.0,5.0;" x1="1791.5" x2="1791.5" y1="118.5938" y2="1346.5"/><line style="stroke:#181818;stroke-width:0.5;stroke-dasharray:5.0,5.0;" x1="1904.5" x2="1904.5" y1="118.5938" y2="1346.5"/><line style="stroke:#181818;stroke-width:0.5;stroke-dasharray:5.0,5.0;" x1="2056.5" x2="2056.5" y1="118.5938" y2="1346.5"/><line style="stroke:#181818;stroke-width:0.5;stroke-dasharray:5.0,5.0;" x1="2189.5" x2="2189.5" y1="118.5938" y2="1346.5"/><line style="stroke:#181818;stroke-width:0.5;stroke-dasharray:5.0,5.0;" x1="2359.5" x2="2359.5" y1="118.5938" y2="1346.5"/><line style="stroke:#181818;stroke-width:0.5;stroke-dasharray:5.0,5.0;" x1="2497.5" x2="2497.5" y1="118.5938" y2="1346.5"/><line style="stroke:#181818;stroke-width:0.5;stroke-dasharray:5.0,5.0;" x1="2916.5" x2="2916.5" y1="118.5938" y2="1346.5"/><line style="stroke:#181818;stroke-width:0.5;stroke-dasharray:5.0,5.0;" x1="3010.5" x2="3010.5" y1="118.5938" y2="1346.5"/><line style="stroke:#181818;stroke-width:0.5;stroke-dasharray:5.0,5.0;" x1="3086.5" x2="3086.5" y1="118.5938" y2="1346.5"/><text fill="#000000" font-family="sans-serif" font-size="14" lengthAdjust="spacing" textLength="31" x="5" y="115.292">User</text><ellipse cx="23.5" cy="50.7969" fill="#E2E2F0" rx="8" ry="8" style="stroke:#181818;stroke-width:0.5;"/><path d="M23.5,58.7969 L23.5,85.7969 M10.5,66.7969 L36.5,66.7969 M23.5,85.7969 L10.5,100.7969 M23.5,85.7969 L36.5,100.7969 " fill="none" style="stroke:#181818;stroke-width:0.5;"/><text fill="#000000" font-family="sans-serif" font-size="14" lengthAdjust="spacing" textLength="31" x="5" y="1358.4951">User</text><ellipse cx="23.5" cy="1370.2969" fill="#E2E2F0" rx="8" ry="8" style="stroke:#181818;stroke-width:0.5;"/><path d="M23.5,1378.2969 L23.5,1405.2969 M10.5,1386.2969 L36.5,1386.2969 M23.5,1405.2969 L10.5,1420.2969 M23.5,1405.2969 L36.5,1420.2969 " fill="none" style="stroke:#181818;stroke-width:0.5;"/><rect fill="#E2E2F0" height="30.2969" rx="2.5" ry="2.5" style="stroke:#181818;stroke-width:0.5;" width="133" x="299" y="87.2969"/><text fill="#000000" font-family="sans-serif" font-size="14" lengthAdjust="spacing" textLength="119" x="306" y="107.292">commentRouter</text><rect fill="#E2E2F0" height="30.2969" rx="2.5" ry="2.5" style="stroke:#181818;stroke-width:0.5;" width="133" x="299" y="1345.5"/><text fill="#000000" font-family="sans-serif" font-size="14" lengthAdjust="spacing" textLength="119" x="306" y="1365.4951">commentRouter</text><rect fill="#E2E2F0" height="46.5938" rx="2.5" ry="2.5" style="stroke:#181818;stroke-width:0.5;" width="215" x="442" y="71"/><text fill="#000000" font-family="sans-serif" font-size="14" lengthAdjust="spacing" textLength="201" x="449" y="90.9951">upvoteCommentController:</text><text fill="#000000" font-family="sans-serif" font-size="14" lengthAdjust="spacing" textLength="197" x="453" y="107.292">UpvoteCommentController</text><rect fill="#E2E2F0" height="46.5938" rx="2.5" ry="2.5" style="stroke:#181818;stroke-width:0.5;" width="215" x="442" y="1345.5"/><text fill="#000000" font-family="sans-serif" font-size="14" lengthAdjust="spacing" textLength="201" x="449" y="1365.4951">upvoteCommentController:</text><text fill="#000000" font-family="sans-serif" font-size="14" lengthAdjust="spacing" textLength="197" x="453" y="1381.792">UpvoteCommentController</text><rect fill="#E2E2F0" height="46.5938" rx="2.5" ry="2.5" style="stroke:#181818;stroke-width:0.5;" width="133" x="667" y="1345.5"/><text fill="#000000" font-family="sans-serif" font-size="14" lengthAdjust="spacing" textLength="30" x="718.5" y="1365.4951">dto:</text><text fill="#000000" font-family="sans-serif" font-size="14" lengthAdjust="spacing" textLength="115" x="678" y="1381.792">UpvotePostDTO</text><rect fill="#E2E2F0" height="46.5938" rx="2.5" ry="2.5" style="stroke:#181818;stroke-width:0.5;" width="142" x="810" y="71"/><text fill="#000000" font-family="sans-serif" font-size="14" lengthAdjust="spacing" textLength="63" x="849.5" y="90.9951">useCase:</text><text fill="#000000" font-family="sans-serif" font-size="14" lengthAdjust="spacing" textLength="124" x="821" y="107.292">UpvoteComment</text><rect fill="#E2E2F0" height="46.5938" rx="2.5" ry="2.5" style="stroke:#181818;stroke-width:0.5;" width="142" x="810" y="1345.5"/><text fill="#000000" font-family="sans-serif" font-size="14" lengthAdjust="spacing" textLength="63" x="849.5" y="1365.4951">useCase:</text><text fill="#000000" font-family="sans-serif" font-size="14" lengthAdjust="spacing" textLength="124" x="821" y="1381.792">UpvoteComment</text><rect fill="#E2E2F0" height="46.5938" rx="2.5" ry="2.5" style="stroke:#181818;stroke-width:0.5;" width="119" x="1066.5" y="71"/><text fill="#000000" font-family="sans-serif" font-size="14" lengthAdjust="spacing" textLength="105" x="1073.5" y="90.9951">memberRepo:</text><text fill="#000000" font-family="sans-serif" font-size="14" lengthAdjust="spacing" textLength="98" x="1079" y="107.292">MemberRepo</text><rect fill="#E2E2F0" height="46.5938" rx="2.5" ry="2.5" style="stroke:#181818;stroke-width:0.5;" width="119" x="1066.5" y="1345.5"/><text fill="#000000" font-family="sans-serif" font-size="14" lengthAdjust="spacing" textLength="105" x="1073.5" y="1365.4951">memberRepo:</text><text fill="#000000" font-family="sans-serif" font-size="14" lengthAdjust="spacing" textLength="98" x="1079" y="1381.792">MemberRepo</text><rect fill="#E2E2F0" height="30.2969" rx="2.5" ry="2.5" style="stroke:#181818;stroke-width:0.5;" width="104" x="1244" y="87.2969"/><text fill="#000000" font-family="sans-serif" font-size="14" lengthAdjust="spacing" textLength="90" x="1251" y="107.292">MemberMap</text><rect fill="#E2E2F0" height="30.2969" rx="2.5" ry="2.5" style="stroke:#181818;stroke-width:0.5;" width="104" x="1244" y="1345.5"/><text fill="#000000" font-family="sans-serif" font-size="14" lengthAdjust="spacing" textLength="90" x="1251" y="1365.4951">MemberMap</text><rect fill="#E2E2F0" height="30.2969" rx="2.5" ry="2.5" style="stroke:#181818;stroke-width:0.5;" width="59" x="1473.5" y="87.2969"/><text fill="#000000" font-family="sans-serif" font-size="14" lengthAdjust="spacing" textLength="45" x="1480.5" y="107.292">Result</text><rect fill="#E2E2F0" height="30.2969" rx="2.5" ry="2.5" style="stroke:#181818;stroke-width:0.5;" width="59" x="1473.5" y="1345.5"/><text fill="#000000" font-family="sans-serif" font-size="14" lengthAdjust="spacing" textLength="45" x="1480.5" y="1365.4951">Result</text><rect fill="#E2E2F0" height="46.5938" rx="2.5" ry="2.5" style="stroke:#181818;stroke-width:0.5;" width="128" x="1542.5" y="71"/><text fill="#000000" font-family="sans-serif" font-size="14" lengthAdjust="spacing" textLength="113" x="1550" y="90.9951">commentRepo:</text><text fill="#000000" font-family="sans-serif" font-size="14" lengthAdjust="spacing" textLength="110" x="1553.5" y="107.292">CommentRepo</text><rect fill="#E2E2F0" height="46.5938" rx="2.5" ry="2.5" style="stroke:#181818;stroke-width:0.5;" width="128" x="1542.5" y="1345.5"/><text fill="#000000" font-family="sans-serif" font-size="14" lengthAdjust="spacing" textLength="113" x="1550" y="1365.4951">commentRepo:</text><text fill="#000000" font-family="sans-serif" font-size="14" lengthAdjust="spacing" textLength="110" x="1553.5" y="1381.792">CommentRepo</text><rect fill="#E2E2F0" height="30.2969" rx="2.5" ry="2.5" style="stroke:#181818;stroke-width:0.5;" width="116" x="1733.5" y="87.2969"/><text fill="#000000" font-family="sans-serif" font-size="14" lengthAdjust="spacing" textLength="102" x="1740.5" y="107.292">CommentMap</text><rect fill="#E2E2F0" height="30.2969" rx="2.5" ry="2.5" style="stroke:#181818;stroke-width:0.5;" width="116" x="1733.5" y="1345.5"/><text fill="#000000" font-family="sans-serif" font-size="14" lengthAdjust="spacing" textLength="102" x="1740.5" y="1365.4951">CommentMap</text><rect fill="#E2E2F0" height="46.5938" rx="2.5" ry="2.5" style="stroke:#181818;stroke-width:0.5;" width="90" x="1859.5" y="71"/><text fill="#000000" font-family="sans-serif" font-size="14" lengthAdjust="spacing" textLength="76" x="1866.5" y="90.9951">postRepo:</text><text fill="#000000" font-family="sans-serif" font-size="14" lengthAdjust="spacing" textLength="70" x="1871.5" y="107.292">PostRepo</text><rect fill="#E2E2F0" height="46.5938" rx="2.5" ry="2.5" style="stroke:#181818;stroke-width:0.5;" width="90" x="1859.5" y="1345.5"/><text fill="#000000" font-family="sans-serif" font-size="14" lengthAdjust="spacing" textLength="76" x="1866.5" y="1365.4951">postRepo:</text><text fill="#000000" font-family="sans-serif" font-size="14" lengthAdjust="spacing" textLength="70" x="1871.5" y="1381.792">PostRepo</text><rect fill="#E2E2F0" height="30.2969" rx="2.5" ry="2.5" style="stroke:#181818;stroke-width:0.5;" width="76" x="2018.5" y="87.2969"/><text fill="#000000" font-family="sans-serif" font-size="14" lengthAdjust="spacing" textLength="62" x="2025.5" y="107.292">PostMap</text><rect fill="#E2E2F0" height="30.2969" rx="2.5" ry="2.5" style="stroke:#181818;stroke-width:0.5;" width="76" x="2018.5" y="1345.5"/><text fill="#000000" font-family="sans-serif" font-size="14" lengthAdjust="spacing" textLength="62" x="2025.5" y="1365.4951">PostMap</text><rect fill="#E2E2F0" height="46.5938" rx="2.5" ry="2.5" style="stroke:#181818;stroke-width:0.5;" width="170" x="2104.5" y="71"/><text fill="#000000" font-family="sans-serif" font-size="14" lengthAdjust="spacing" textLength="155" x="2112" y="90.9951">commentVotesRepo:</text><text fill="#000000" font-family="sans-serif" font-size="14" lengthAdjust="spacing" textLength="152" x="2115.5" y="107.292">CommentVotesRepo</text><rect fill="#E2E2F0" height="46.5938" rx="2.5" ry="2.5" style="stroke:#181818;stroke-width:0.5;" width="170" x="2104.5" y="1345.5"/><text fill="#000000" font-family="sans-serif" font-size="14" lengthAdjust="spacing" textLength="155" x="2112" y="1365.4951">commentVotesRepo:</text><text fill="#000000" font-family="sans-serif" font-size="14" lengthAdjust="spacing" textLength="152" x="2115.5" y="1381.792">CommentVotesRepo</text><rect fill="#E2E2F0" height="30.2969" rx="2.5" ry="2.5" style="stroke:#181818;stroke-width:0.5;" width="151" x="2284.5" y="87.2969"/><text fill="#000000" font-family="sans-serif" font-size="14" lengthAdjust="spacing" textLength="137" x="2291.5" y="107.292">CommentVoteMap</text><rect fill="#E2E2F0" height="30.2969" rx="2.5" ry="2.5" style="stroke:#181818;stroke-width:0.5;" width="151" x="2284.5" y="1345.5"/><text fill="#000000" font-family="sans-serif" font-size="14" lengthAdjust="spacing" textLength="137" x="2291.5" y="1365.4951">CommentVoteMap</text><rect fill="#E2E2F0" height="46.5938" rx="2.5" ry="2.5" style="stroke:#181818;stroke-width:0.5;" width="105" x="2445.5" y="71"/><text fill="#000000" font-family="sans-serif" font-size="14" lengthAdjust="spacing" textLength="91" x="2452.5" y="90.9951">postService:</text><text fill="#000000" font-family="sans-serif" font-size="14" lengthAdjust="spacing" textLength="85" x="2457.5" y="107.292">PostService</text><rect fill="#E2E2F0" height="46.5938" rx="2.5" ry="2.5" style="stroke:#181818;stroke-width:0.5;" width="105" x="2445.5" y="1345.5"/><text fill="#000000" font-family="sans-serif" font-size="14" lengthAdjust="spacing" textLength="91" x="2452.5" y="1365.4951">postService:</text><text fill="#000000" font-family="sans-serif" font-size="14" lengthAdjust="spacing" textLength="85" x="2457.5" y="1381.792">PostService</text><rect fill="#E2E2F0" height="30.2969" rx="2.5" ry="2.5" style="stroke:#181818;stroke-width:0.5;" width="121" x="2856.5" y="87.2969"/><text fill="#000000" font-family="sans-serif" font-size="14" lengthAdjust="spacing" textLength="107" x="2863.5" y="107.292">CommentVote</text><rect fill="#E2E2F0" height="30.2969" rx="2.5" ry="2.5" style="stroke:#181818;stroke-width:0.5;" width="121" x="2856.5" y="1345.5"/><text fill="#000000" font-family="sans-serif" font-size="14" lengthAdjust="spacing" textLength="107" x="2863.5" y="1365.4951">CommentVote</text><rect fill="#E2E2F0" height="30.2969" rx="2.5" ry="2.5" style="stroke:#181818;stroke-width:0.5;" width="46" x="2987.5" y="87.2969"/><text fill="#000000" font-family="sans-serif" font-size="14" lengthAdjust="spacing" textLength="32" x="2994.5" y="107.292">Post</text><rect fill="#E2E2F0" height="30.2969" rx="2.5" ry="2.5" style="stroke:#181818;stroke-width:0.5;" width="46" x="2987.5" y="1345.5"/><text fill="#000000" font-family="sans-serif" font-size="14" lengthAdjust="spacing" textLength="32" x="2994.5" y="1365.4951">Post</text><rect fill="#E2E2F0" height="30.2969" rx="2.5" ry="2.5" style="stroke:#181818;stroke-width:0.5;" width="86" x="3043.5" y="87.2969"/><text fill="#000000" font-family="sans-serif" font-size="14" lengthAdjust="spacing" textLength="72" x="3050.5" y="107.292">Comment</text><rect fill="#E2E2F0" height="30.2969" rx="2.5" ry="2.5" style="stroke:#181818;stroke-width:0.5;" width="86" x="3043.5" y="1345.5"/><text fill="#000000" font-family="sans-serif" font-size="14" lengthAdjust="spacing" textLength="72" x="3050.5" y="1365.4951">Comment</text><rect fill="#FFFFFF" height="1208.9063" style="stroke:#181818;stroke-width:1.0;" width="10" x="18.5" y="128.5938"/><rect fill="#FFFFFF" height="1148.5078" style="stroke:#181818;stroke-width:1.0;" width="10" x="360.5" y="179.9922"/><rect fill="#FFFFFF" height="1128.375" style="stroke:#181818;stroke-width:1.0;" width="10" x="544.5" y="209.125"/><rect fill="#FFFFFF" height="1082.2422" style="stroke:#181818;stroke-width:1.0;" width="10" x="549.5" y="246.2578"/><rect fill="#FFFFFF" height="961.3828" style="stroke:#181818;stroke-width:1.0;" width="10" x="876" y="337.9844"/><rect fill="#FFFFFF" height="145.6641" style="stroke:#181818;stroke-width:1.0;" width="10" x="1121" y="367.1172"/><rect fill="#FFFFFF" height="87.3984" style="stroke:#181818;stroke-width:1.0;" width="10" x="1291" y="396.25"/><rect fill="#FFFFFF" height="29.1328" style="stroke:#181818;stroke-width:1.0;" width="10" x="1498" y="425.3828"/><rect fill="#FFFFFF" height="29.1328" style="stroke:#181818;stroke-width:1.0;" width="10" x="1498" y="600.1797"/><rect fill="#FFFFFF" height="29.1328" style="stroke:#181818;stroke-width:1.0;" width="10" x="1498" y="774.9766"/><rect fill="#FFFFFF" height="29.1328" style="stroke:#181818;stroke-width:1.0;" width="10" x="1498" y="949.7734"/><rect fill="#FFFFFF" height="145.6641" style="stroke:#181818;stroke-width:1.0;" width="10" x="1601.5" y="541.9141"/><rect fill="#FFFFFF" height="87.3984" style="stroke:#181818;stroke-width:1.0;" width="10" x="1786.5" y="571.0469"/><rect fill="#FFFFFF" height="145.6641" style="stroke:#181818;stroke-width:1.0;" width="10" x="1899.5" y="716.7109"/><rect fill="#FFFFFF" height="87.3984" style="stroke:#181818;stroke-width:1.0;" width="10" x="2051.5" y="745.8438"/><rect fill="#FFFFFF" height="145.6641" style="stroke:#181818;stroke-width:1.0;" width="10" x="2184.5" y="891.5078"/><rect fill="#FFFFFF" height="87.3984" style="stroke:#181818;stroke-width:1.0;" width="10" x="2355" y="920.6406"/><rect fill="#FFFFFF" height="203.9297" style="stroke:#181818;stroke-width:1.0;" width="10" x="2493" y="1066.3047"/><rect fill="#FFFFFF" height="29.1328" style="stroke:#181818;stroke-width:1.0;" width="10" x="2912" y="1095.4375"/><rect fill="#FFFFFF" height="29.1328" style="stroke:#181818;stroke-width:1.0;" width="10" x="3005.5" y="1211.9688"/><rect fill="#FFFFFF" height="29.1328" style="stroke:#181818;stroke-width:1.0;" width="10" x="3081.5" y="1153.7031"/><polygon fill="#181818" points="348.5,175.9922,358.5,179.9922,348.5,183.9922,352.5,179.9922" style="stroke:#181818;stroke-width:1.0;"/><line style="stroke:#181818;stroke-width:1.0;" x1="28.5" x2="354.5" y1="179.9922" y2="179.9922"/><text fill="#000000" font-family="sans-serif" font-size="13" font-weight="bold" lengthAdjust="spacing" textLength="9" x="35.5" y="159.7935">1</text><text fill="#000000" font-family="sans-serif" font-size="13" lengthAdjust="spacing" textLength="300" x="48.5" y="144.6606">POST("/api/v1/comments/:commentld/upvote",</text><text fill="#000000" font-family="sans-serif" font-size="13" lengthAdjust="spacing" textLength="217" x="52.5" y="159.7935">{ "Authorization": accessToken },</text><text fill="#000000" font-family="sans-serif" font-size="13" lengthAdjust="spacing" textLength="181" x="52.5" y="174.9263">{ commentId: commentId }</text><polygon fill="#181818" points="532.5,205.125,542.5,209.125,532.5,213.125,536.5,209.125" style="stroke:#181818;stroke-width:1.0;"/><line style="stroke:#181818;stroke-width:1.0;" x1="370.5" x2="538.5" y1="209.125" y2="209.125"/><text fill="#000000" font-family="sans-serif" font-size="13" font-weight="bold" lengthAdjust="spacing" textLength="9" x="377.5" y="204.0591">2</text><text fill="#000000" font-family="sans-serif" font-size="13" lengthAdjust="spacing" textLength="111" x="390.5" y="204.0591">execute(req, res)</text><line style="stroke:#181818;stroke-width:1.0;" x1="554.5" x2="601.5" y1="233.2578" y2="233.2578"/><line style="stroke:#181818;stroke-width:1.0;" x1="601.5" x2="601.5" y1="233.2578" y2="246.2578"/><line style="stroke:#181818;stroke-width:1.0;" x1="560.5" x2="601.5" y1="246.2578" y2="246.2578"/><polygon fill="#181818" points="570.5,242.2578,560.5,246.2578,570.5,250.2578,566.5,246.2578" style="stroke:#181818;stroke-width:1.0;"/><text fill="#000000" font-family="sans-serif" font-size="13" font-weight="bold" lengthAdjust="spacing" textLength="8" x="566.5" y="228.1919">3</text><text fill="#000000" font-family="sans-serif" font-size="13" lengthAdjust="spacing" textLength="138" x="578.5" y="228.1919">executeImpl(req, res)</text><polygon fill="#181818" points="655,276.3906,665,280.3906,655,284.3906,659,280.3906" style="stroke:#181818;stroke-width:1.0;"/><line style="stroke:#181818;stroke-width:1.0;" x1="559.5" x2="661" y1="280.3906" y2="280.3906"/><text fill="#000000" font-family="sans-serif" font-size="13" font-weight="bold" lengthAdjust="spacing" textLength="9" x="566.5" y="275.3247">4</text><text fill="#000000" font-family="sans-serif" font-size="13" lengthAdjust="spacing" textLength="4" x="579.5" y="275.3247">&#160;</text><rect fill="#E2E2F0" height="46.5938" rx="2.5" ry="2.5" style="stroke:#181818;stroke-width:0.5;" width="133" x="667" y="259.2578"/><text fill="#000000" font-family="sans-serif" font-size="14" lengthAdjust="spacing" textLength="30" x="718.5" y="279.2529">dto:</text><text fill="#000000" font-family="sans-serif" font-size="14" lengthAdjust="spacing" textLength="115" x="678" y="295.5498">UpvotePostDTO</text><polygon fill="#181818" points="864,333.9844,874,337.9844,864,341.9844,868,337.9844" style="stroke:#181818;stroke-width:1.0;"/><line style="stroke:#181818;stroke-width:1.0;" x1="559.5" x2="870" y1="337.9844" y2="337.9844"/><text fill="#000000" font-family="sans-serif" font-size="13" font-weight="bold" lengthAdjust="spacing" textLength="9" x="566.5" y="332.9185">5</text><text fill="#000000" font-family="sans-serif" font-size="13" lengthAdjust="spacing" textLength="83" x="579.5" y="332.9185">execute(dto)</text><polygon fill="#181818" points="1109,363.1172,1119,367.1172,1109,371.1172,1113,367.1172" style="stroke:#181818;stroke-width:1.0;"/><line style="stroke:#181818;stroke-width:1.0;" x1="886" x2="1115" y1="367.1172" y2="367.1172"/><text fill="#000000" font-family="sans-serif" font-size="13" font-weight="bold" lengthAdjust="spacing" textLength="9" x="893" y="362.0513">6</text><text fill="#000000" font-family="sans-serif" font-size="13" lengthAdjust="spacing" textLength="203" x="906" y="362.0513">getMemberByUserId(req.userId)</text><polygon fill="#181818" points="1279,392.25,1289,396.25,1279,400.25,1283,396.25" style="stroke:#181818;stroke-width:1.0;"/><line style="stroke:#181818;stroke-width:1.0;" x1="1131" x2="1285" y1="396.25" y2="396.25"/><text fill="#000000" font-family="sans-serif" font-size="13" font-weight="bold" lengthAdjust="spacing" textLength="9" x="1138" y="391.1841">7</text><text fill="#000000" font-family="sans-serif" font-size="13" lengthAdjust="spacing" textLength="128" x="1151" y="391.1841">toDomain(member)</text><polygon fill="#181818" points="1486,421.3828,1496,425.3828,1486,429.3828,1490,425.3828" style="stroke:#181818;stroke-width:1.0;"/><line style="stroke:#181818;stroke-width:1.0;" x1="1301" x2="1492" y1="425.3828" y2="425.3828"/><text fill="#000000" font-family="sans-serif" font-size="13" font-weight="bold" lengthAdjust="spacing" textLength="9" x="1308" y="420.3169">8</text><text fill="#000000" font-family="sans-serif" font-size="13" lengthAdjust="spacing" textLength="67" x="1321" y="420.3169">getValue()</text><polygon fill="#181818" points="1312,450.5156,1302,454.5156,1312,458.5156,1308,454.5156" style="stroke:#181818;stroke-width:1.0;"/><line style="stroke:#181818;stroke-width:1.0;stroke-dasharray:2.0,2.0;" x1="1306" x2="1502" y1="454.5156" y2="454.5156"/><text fill="#000000" font-family="sans-serif" font-size="13" font-weight="bold" lengthAdjust="spacing" textLength="9" x="1318" y="449.4497">9</text><text fill="#000000" font-family="sans-serif" font-size="13" lengthAdjust="spacing" textLength="160" x="1331" y="449.4497">memberOrError.isSucess</text><polygon fill="#181818" points="1142,479.6484,1132,483.6484,1142,487.6484,1138,483.6484" style="stroke:#181818;stroke-width:1.0;"/><line style="stroke:#181818;stroke-width:1.0;stroke-dasharray:2.0,2.0;" x1="1136" x2="1295" y1="483.6484" y2="483.6484"/><text fill="#000000" font-family="sans-serif" font-size="13" font-weight="bold" lengthAdjust="spacing" textLength="19" x="1148" y="478.5825">10</text><text fill="#000000" font-family="sans-serif" font-size="13" lengthAdjust="spacing" textLength="55" x="1171" y="478.5825">member</text><polygon fill="#181818" points="897,508.7813,887,512.7813,897,516.7813,893,512.7813" style="stroke:#181818;stroke-width:1.0;"/><line style="stroke:#181818;stroke-width:1.0;stroke-dasharray:2.0,2.0;" x1="891" x2="1125" y1="512.7813" y2="512.7813"/><text fill="#000000" font-family="sans-serif" font-size="13" font-weight="bold" lengthAdjust="spacing" textLength="18" x="903" y="507.7153">11</text><text fill="#000000" font-family="sans-serif" font-size="13" lengthAdjust="spacing" textLength="55" x="925" y="507.7153">member</text><polygon fill="#181818" points="1589.5,537.9141,1599.5,541.9141,1589.5,545.9141,1593.5,541.9141" style="stroke:#181818;stroke-width:1.0;"/><line style="stroke:#181818;stroke-width:1.0;" x1="886" x2="1595.5" y1="541.9141" y2="541.9141"/><text fill="#000000" font-family="sans-serif" font-size="13" font-weight="bold" lengthAdjust="spacing" textLength="18" x="893" y="536.8481">12</text><text fill="#000000" font-family="sans-serif" font-size="13" lengthAdjust="spacing" textLength="284" x="915" y="536.8481">getCommentByCommentId(req.commentId)</text><polygon fill="#181818" points="1774.5,567.0469,1784.5,571.0469,1774.5,575.0469,1778.5,571.0469" style="stroke:#181818;stroke-width:1.0;"/><line style="stroke:#181818;stroke-width:1.0;" x1="1611.5" x2="1780.5" y1="571.0469" y2="571.0469"/><text fill="#000000" font-family="sans-serif" font-size="13" font-weight="bold" lengthAdjust="spacing" textLength="17" x="1618.5" y="565.981">13</text><text fill="#000000" font-family="sans-serif" font-size="13" lengthAdjust="spacing" textLength="135" x="1639.5" y="565.981">toDomain(comment)</text><polygon fill="#181818" points="1519,596.1797,1509,600.1797,1519,604.1797,1515,600.1797" style="stroke:#181818;stroke-width:1.0;"/><line style="stroke:#181818;stroke-width:1.0;" x1="1513" x2="1785.5" y1="600.1797" y2="600.1797"/><text fill="#000000" font-family="sans-serif" font-size="13" font-weight="bold" lengthAdjust="spacing" textLength="18" x="1525" y="595.1138">14</text><text fill="#000000" font-family="sans-serif" font-size="13" lengthAdjust="spacing" textLength="67" x="1547" y="595.1138">getValue()</text><polygon fill="#181818" points="1774.5,625.3125,1784.5,629.3125,1774.5,633.3125,1778.5,629.3125" style="stroke:#181818;stroke-width:1.0;"/><line style="stroke:#181818;stroke-width:1.0;stroke-dasharray:2.0,2.0;" x1="1503" x2="1780.5" y1="629.3125" y2="629.3125"/><text fill="#000000" font-family="sans-serif" font-size="13" font-weight="bold" lengthAdjust="spacing" textLength="18" x="1510" y="624.2466">15</text><text fill="#000000" font-family="sans-serif" font-size="13" lengthAdjust="spacing" textLength="174" x="1532" y="624.2466">commentOrError.isSuccess</text><polygon fill="#181818" points="1622.5,654.4453,1612.5,658.4453,1622.5,662.4453,1618.5,658.4453" style="stroke:#181818;stroke-width:1.0;"/><line style="stroke:#181818;stroke-width:1.0;stroke-dasharray:2.0,2.0;" x1="1616.5" x2="1790.5" y1="658.4453" y2="658.4453"/><text fill="#000000" font-family="sans-serif" font-size="13" font-weight="bold" lengthAdjust="spacing" textLength="18" x="1628.5" y="653.3794">16</text><text fill="#000000" font-family="sans-serif" font-size="13" lengthAdjust="spacing" textLength="62" x="1650.5" y="653.3794">comment</text><polygon fill="#181818" points="897,683.5781,887,687.5781,897,691.5781,893,687.5781" style="stroke:#181818;stroke-width:1.0;"/><line style="stroke:#181818;stroke-width:1.0;stroke-dasharray:2.0,2.0;" x1="891" x2="1605.5" y1="687.5781" y2="687.5781"/><text fill="#000000" font-family="sans-serif" font-size="13" font-weight="bold" lengthAdjust="spacing" textLength="18" x="903" y="682.5122">17</text><text fill="#000000" font-family="sans-serif" font-size="13" lengthAdjust="spacing" textLength="62" x="925" y="682.5122">comment</text><polygon fill="#181818" points="1887.5,712.7109,1897.5,716.7109,1887.5,720.7109,1891.5,716.7109" style="stroke:#181818;stroke-width:1.0;"/><line style="stroke:#181818;stroke-width:1.0;" x1="886" x2="1893.5" y1="716.7109" y2="716.7109"/><text fill="#000000" font-family="sans-serif" font-size="13" font-weight="bold" lengthAdjust="spacing" textLength="18" x="893" y="711.645">18</text><text fill="#000000" font-family="sans-serif" font-size="13" lengthAdjust="spacing" textLength="301" x="915" y="711.645">getPostByPostId (comment.postId.id.tostring())</text><polygon fill="#181818" points="2039.5,741.8438,2049.5,745.8438,2039.5,749.8438,2043.5,745.8438" style="stroke:#181818;stroke-width:1.0;"/><line style="stroke:#181818;stroke-width:1.0;" x1="1909.5" x2="2045.5" y1="745.8438" y2="745.8438"/><text fill="#000000" font-family="sans-serif" font-size="13" font-weight="bold" lengthAdjust="spacing" textLength="18" x="1916.5" y="740.7778">19</text><text fill="#000000" font-family="sans-serif" font-size="13" lengthAdjust="spacing" textLength="101" x="1938.5" y="740.7778">toDomain(post)</text><polygon fill="#181818" points="1519,770.9766,1509,774.9766,1519,778.9766,1515,774.9766" style="stroke:#181818;stroke-width:1.0;"/><line style="stroke:#181818;stroke-width:1.0;" x1="1513" x2="2050.5" y1="774.9766" y2="774.9766"/><text fill="#000000" font-family="sans-serif" font-size="13" font-weight="bold" lengthAdjust="spacing" textLength="19" x="1525" y="769.9106">20</text><text fill="#000000" font-family="sans-serif" font-size="13" lengthAdjust="spacing" textLength="67" x="1548" y="769.9106">getValue()</text><polygon fill="#181818" points="2039.5,800.1094,2049.5,804.1094,2039.5,808.1094,2043.5,804.1094" style="stroke:#181818;stroke-width:1.0;"/><line style="stroke:#181818;stroke-width:1.0;stroke-dasharray:2.0,2.0;" x1="1503" x2="2045.5" y1="804.1094" y2="804.1094"/><text fill="#000000" font-family="sans-serif" font-size="13" font-weight="bold" lengthAdjust="spacing" textLength="18" x="1510" y="799.0435">21</text><text fill="#000000" font-family="sans-serif" font-size="13" lengthAdjust="spacing" textLength="140" x="1532" y="799.0435">postOrError.isSuccess</text><polygon fill="#181818" points="1920.5,829.2422,1910.5,833.2422,1920.5,837.2422,1916.5,833.2422" style="stroke:#181818;stroke-width:1.0;"/><line style="stroke:#181818;stroke-width:1.0;stroke-dasharray:2.0,2.0;" x1="1914.5" x2="2055.5" y1="833.2422" y2="833.2422"/><text fill="#000000" font-family="sans-serif" font-size="13" font-weight="bold" lengthAdjust="spacing" textLength="18" x="1926.5" y="828.1763">22</text><text fill="#000000" font-family="sans-serif" font-size="13" lengthAdjust="spacing" textLength="28" x="1948.5" y="828.1763">post</text><polygon fill="#181818" points="897,858.375,887,862.375,897,866.375,893,862.375" style="stroke:#181818;stroke-width:1.0;"/><line style="stroke:#181818;stroke-width:1.0;stroke-dasharray:2.0,2.0;" x1="891" x2="1903.5" y1="862.375" y2="862.375"/><text fill="#000000" font-family="sans-serif" font-size="13" font-weight="bold" lengthAdjust="spacing" textLength="17" x="903" y="857.3091">23</text><text fill="#000000" font-family="sans-serif" font-size="13" lengthAdjust="spacing" textLength="28" x="924" y="857.3091">post</text><polygon fill="#181818" points="2172.5,887.5078,2182.5,891.5078,2172.5,895.5078,2176.5,891.5078" style="stroke:#181818;stroke-width:1.0;"/><line style="stroke:#181818;stroke-width:1.0;" x1="886" x2="2178.5" y1="891.5078" y2="891.5078"/><text fill="#000000" font-family="sans-serif" font-size="13" font-weight="bold" lengthAdjust="spacing" textLength="18" x="893" y="886.4419">24</text><text fill="#000000" font-family="sans-serif" font-size="13" lengthAdjust="spacing" textLength="503" x="915" y="886.4419">getVotesForCommentByMemberId(comment.commentId, member.memberId)</text><polygon fill="#181818" points="2343,916.6406,2353,920.6406,2343,924.6406,2347,920.6406" style="stroke:#181818;stroke-width:1.0;"/><line style="stroke:#181818;stroke-width:1.0;" x1="2194.5" x2="2349" y1="920.6406" y2="920.6406"/><text fill="#000000" font-family="sans-serif" font-size="13" font-weight="bold" lengthAdjust="spacing" textLength="18" x="2201.5" y="915.5747">25</text><text fill="#000000" font-family="sans-serif" font-size="13" lengthAdjust="spacing" textLength="81" x="2223.5" y="915.5747">toDomain(v)</text><polygon fill="#181818" points="1519,945.7734,1509,949.7734,1519,953.7734,1515,949.7734" style="stroke:#181818;stroke-width:1.0;"/><line style="stroke:#181818;stroke-width:1.0;" x1="1513" x2="2354" y1="949.7734" y2="949.7734"/><text fill="#000000" font-family="sans-serif" font-size="13" font-weight="bold" lengthAdjust="spacing" textLength="18" x="1525" y="944.7075">26</text><text fill="#000000" font-family="sans-serif" font-size="13" lengthAdjust="spacing" textLength="67" x="1547" y="944.7075">getValue()</text><polygon fill="#181818" points="2343,974.9063,2353,978.9063,2343,982.9063,2347,978.9063" style="stroke:#181818;stroke-width:1.0;"/><line style="stroke:#181818;stroke-width:1.0;stroke-dasharray:2.0,2.0;" x1="1503" x2="2349" y1="978.9063" y2="978.9063"/><text fill="#000000" font-family="sans-serif" font-size="13" font-weight="bold" lengthAdjust="spacing" textLength="18" x="1510" y="973.8403">27</text><text fill="#000000" font-family="sans-serif" font-size="13" lengthAdjust="spacing" textLength="204" x="1532" y="973.8403">commentVoteOrError.isSuccess</text><polygon fill="#181818" points="2205.5,1004.0391,2195.5,1008.0391,2205.5,1012.0391,2201.5,1008.0391" style="stroke:#181818;stroke-width:1.0;"/><line style="stroke:#181818;stroke-width:1.0;stroke-dasharray:2.0,2.0;" x1="2199.5" x2="2359" y1="1008.0391" y2="1008.0391"/><text fill="#000000" font-family="sans-serif" font-size="13" font-weight="bold" lengthAdjust="spacing" textLength="18" x="2211.5" y="1002.9731">28</text><text fill="#000000" font-family="sans-serif" font-size="13" lengthAdjust="spacing" textLength="92" x="2233.5" y="1002.9731">commentVote</text><polygon fill="#181818" points="897,1033.1719,887,1037.1719,897,1041.1719,893,1037.1719" style="stroke:#181818;stroke-width:1.0;"/><line style="stroke:#181818;stroke-width:1.0;stroke-dasharray:2.0,2.0;" x1="891" x2="2188.5" y1="1037.1719" y2="1037.1719"/><text fill="#000000" font-family="sans-serif" font-size="13" font-weight="bold" lengthAdjust="spacing" textLength="18" x="903" y="1032.106">29</text><text fill="#000000" font-family="sans-serif" font-size="13" lengthAdjust="spacing" textLength="92" x="925" y="1032.106">commentVote</text><polygon fill="#181818" points="2481,1062.3047,2491,1066.3047,2481,1070.3047,2485,1066.3047" style="stroke:#181818;stroke-width:1.0;"/><line style="stroke:#181818;stroke-width:1.0;" x1="886" x2="2487" y1="1066.3047" y2="1066.3047"/><text fill="#000000" font-family="sans-serif" font-size="13" font-weight="bold" lengthAdjust="spacing" textLength="18" x="893" y="1061.2388">30</text><text fill="#000000" font-family="sans-serif" font-size="13" lengthAdjust="spacing" textLength="526" x="915" y="1061.2388">UpvoteComment(post, member, comment, existingVotesOnCommentByMember)</text><polygon fill="#181818" points="2900,1091.4375,2910,1095.4375,2900,1099.4375,2904,1095.4375" style="stroke:#181818;stroke-width:1.0;"/><line style="stroke:#181818;stroke-width:1.0;" x1="2503" x2="2906" y1="1095.4375" y2="1095.4375"/><text fill="#000000" font-family="sans-serif" font-size="13" font-weight="bold" lengthAdjust="spacing" textLength="17" x="2510" y="1090.3716">31</text><text fill="#000000" font-family="sans-serif" font-size="13" lengthAdjust="spacing" textLength="369" x="2531" y="1090.3716">createUpvote(member.memberId, comment.commentId)</text><polygon fill="#181818" points="2514,1120.5703,2504,1124.5703,2514,1128.5703,2510,1124.5703" style="stroke:#181818;stroke-width:1.0;"/><line style="stroke:#181818;stroke-width:1.0;stroke-dasharray:2.0,2.0;" x1="2508" x2="2916" y1="1124.5703" y2="1124.5703"/><text fill="#000000" font-family="sans-serif" font-size="13" font-weight="bold" lengthAdjust="spacing" textLength="17" x="2520" y="1119.5044">32</text><text fill="#000000" font-family="sans-serif" font-size="13" lengthAdjust="spacing" textLength="15" x="2541" y="1119.5044">ok</text><polygon fill="#181818" points="3069.5,1149.7031,3079.5,1153.7031,3069.5,1157.7031,3073.5,1153.7031" style="stroke:#181818;stroke-width:1.0;"/><line style="stroke:#181818;stroke-width:1.0;" x1="2503" x2="3075.5" y1="1153.7031" y2="1153.7031"/><text fill="#000000" font-family="sans-serif" font-size="13" font-weight="bold" lengthAdjust="spacing" textLength="16" x="2510" y="1148.6372">33</text><text fill="#000000" font-family="sans-serif" font-size="13" lengthAdjust="spacing" textLength="109" x="2530" y="1148.6372">addVote(upvote)</text><polygon fill="#181818" points="2514,1178.8359,2504,1182.8359,2514,1186.8359,2510,1182.8359" style="stroke:#181818;stroke-width:1.0;"/><line style="stroke:#181818;stroke-width:1.0;stroke-dasharray:2.0,2.0;" x1="2508" x2="3085.5" y1="1182.8359" y2="1182.8359"/><text fill="#000000" font-family="sans-serif" font-size="13" font-weight="bold" lengthAdjust="spacing" textLength="17" x="2520" y="1177.77">34</text><text fill="#000000" font-family="sans-serif" font-size="13" lengthAdjust="spacing" textLength="15" x="2541" y="1177.77">ok</text><polygon fill="#181818" points="2993.5,1207.9688,3003.5,1211.9688,2993.5,1215.9688,2997.5,1211.9688" style="stroke:#181818;stroke-width:1.0;"/><line style="stroke:#181818;stroke-width:1.0;" x1="2503" x2="2999.5" y1="1211.9688" y2="1211.9688"/><text fill="#000000" font-family="sans-serif" font-size="13" font-weight="bold" lengthAdjust="spacing" textLength="17" x="2510" y="1206.9028">35</text><text fill="#000000" font-family="sans-serif" font-size="13" lengthAdjust="spacing" textLength="181" x="2531" y="1206.9028">updateComment(comment)</text><polygon fill="#181818" points="2514,1237.1016,2504,1241.1016,2514,1245.1016,2510,1241.1016" style="stroke:#181818;stroke-width:1.0;"/><line style="stroke:#181818;stroke-width:1.0;stroke-dasharray:2.0,2.0;" x1="2508" x2="3009.5" y1="1241.1016" y2="1241.1016"/><text fill="#000000" font-family="sans-serif" font-size="13" font-weight="bold" lengthAdjust="spacing" textLength="17" x="2520" y="1236.0356">36</text><text fill="#000000" font-family="sans-serif" font-size="13" lengthAdjust="spacing" textLength="15" x="2541" y="1236.0356">ok</text><polygon fill="#181818" points="897,1266.2344,887,1270.2344,897,1274.2344,893,1270.2344" style="stroke:#181818;stroke-width:1.0;"/><line style="stroke:#181818;stroke-width:1.0;stroke-dasharray:2.0,2.0;" x1="891" x2="2497" y1="1270.2344" y2="1270.2344"/><text fill="#000000" font-family="sans-serif" font-size="13" font-weight="bold" lengthAdjust="spacing" textLength="17" x="903" y="1265.1685">37</text><text fill="#000000" font-family="sans-serif" font-size="13" lengthAdjust="spacing" textLength="15" x="924" y="1265.1685">ok</text><polygon fill="#181818" points="570.5,1295.3672,560.5,1299.3672,570.5,1303.3672,566.5,1299.3672" style="stroke:#181818;stroke-width:1.0;"/><line style="stroke:#181818;stroke-width:1.0;stroke-dasharray:2.0,2.0;" x1="564.5" x2="880" y1="1299.3672" y2="1299.3672"/><text fill="#000000" font-family="sans-serif" font-size="13" font-weight="bold" lengthAdjust="spacing" textLength="17" x="576.5" y="1294.3013">38</text><text fill="#000000" font-family="sans-serif" font-size="13" lengthAdjust="spacing" textLength="15" x="597.5" y="1294.3013">ok</text><polygon fill="#181818" points="376.5,1324.5,366.5,1328.5,376.5,1332.5,372.5,1328.5" style="stroke:#181818;stroke-width:1.0;"/><line style="stroke:#181818;stroke-width:1.0;stroke-dasharray:2.0,2.0;" x1="370.5" x2="543.5" y1="1328.5" y2="1328.5"/><text fill="#000000" font-family="sans-serif" font-size="13" font-weight="bold" lengthAdjust="spacing" textLength="17" x="382.5" y="1323.4341">39</text><text fill="#000000" font-family="sans-serif" font-size="13" lengthAdjust="spacing" textLength="15" x="403.5" y="1323.4341">ok</text><!--SRC=[hLSxRzim4DxrAmXF2k3QwT15Gu76QO4CWOquoTI5bOXKY2Ig96KqBVBVo_TBb9H7CnYy8- -xZtVyA8RLh47WxWZEppyLu1up170782XnswAEPHd8CZWmt0tj3qIKMJ9CmEgE8h82a08no7f8M5tMFUmOMEdW6pmmlIRmX8k7_iIpxjI27UuOmKs3IF6z0tVfAPKrFHTYLmmxd0EcxF9sBwFvHCI2eXsaQ9Hrd2kCQv6eomtgPQ9hQyauPuP1odyDUsyLjy95DuWEZSglXkaQwymxPyeGpmxZz8H9xinmMS-BPR0FUYm3Z14k5ru3gST9kkA0qOYpzVc4h3F9Nin6Ez2kyIwEY9pg4fcDQDCorVPacZZ7UDyMAXD_N1tr2N8PILbaWF-94VZmEHH10Gxxuss-siA-tfu-RlKatHPwr5HR9OtLcbF_2rPV1lOJa_eFP3NkLWM0POaelSMFg0FFQo0NwTYhgd13y2nPM6AX5iMK_0dSWkw4mWg0VgEIBye9-hK61D6p47zAcJRJn8ANvBng- -RDUKk2n3gX_GKQPichwBh2yF0vRXFG0j3T60LuG4oP5q_Y15rLOkERGGuZUE-YiTZEvu2vG0h0y2LkOTtbwkvAGWabHKZS9O3KNIJPtSDcG7aKh-yg6wniy27ae5BloLT2CDdKz3Y8iwmYAZG9vZ69YgK0u_Z9pQYoZ3iu1nEMTzGwxyQLrT7snTFE257spyeogfj_OTiadjDB4NPH0wRXWgqxtpiRwVFGwODMYbukjT8d4rUlz7JYGSpiQQgVyqWB7RNVEbaaOLmyYLz-fPggRtffR-fgm_Y8rDr3VXOLqdunRIRZ4Kdqrz9hg81CG0JRrevtzj7c5YbVtK7BGIEfIWceE399Vwfb0W2a45wcF_V2a1KHrZTCh1YLbBaMJGEj7jTQ_9jMBqahoZrCuZDePo8sONTFqx2fWwtz_qUmbett6dkhS2snPEcz11FQczimNP3p0YnTE2dUiwy8PwNsp45OctHh_c6lAUFQbkZxBZfD2R6QLsLmuhKpEXw5VfSe8dbq22s9fG-7hKbSJAjFksNyE5Ey9SgWW5Kb5kRgTPfcCsBo2XQJ38HPWA6le6jO-kjtC9UGXNb9_d6KJJu-Ykbmr_TiVFBcthSApaCRlHYpkQVe-B-BUS3mUHoj393-0G00]--></g></svg>