<?xml version="1.0" encoding="us-ascii" standalone="no"?><svg xmlns="http://www.w3.org/2000/svg" xmlns:xlink="http://www.w3.org/1999/xlink" contentStyleType="text/css" height="678px" preserveAspectRatio="none" style="width:407px;height:678px;background:#FFFFFF;" version="1.1" viewBox="0 0 407 678" width="407px" zoomAndPan="magnify"><defs/><g><!--cluster DDD Forum Website--><g id="cluster_DDD Forum Website"><rect fill="none" height="665" rx="2.5" ry="2.5" style="stroke:#181818;stroke-width:1.0;" width="304" x="97" y="7"/><text fill="#000000" font-family="sans-serif" font-size="14" font-weight="bold" lengthAdjust="spacing" textLength="159" x="169.5" y="21.9951">DDD Forum Website</text></g><g id="elem_UC1"><ellipse cx="248.8872" cy="228.7774" fill="#F1F1F1" rx="91.8872" ry="20.7774" style="stroke:#181818;stroke-width:0.5;"/><text fill="#000000" font-family="sans-serif" font-size="14" lengthAdjust="spacing" textLength="146" x="175.8872" y="231.6241">UC1 - Sort the posts</text></g><g id="elem_UC3"><ellipse cx="249.2318" cy="390.2464" fill="#F1F1F1" rx="89.2318" ry="20.2464" style="stroke:#181818;stroke-width:0.5;"/><text fill="#000000" font-family="sans-serif" font-size="14" lengthAdjust="spacing" textLength="140" x="179.2318" y="393.093">UC3 - Create a post</text></g><g id="elem_UC4"><ellipse cx="248.8318" cy="465.8664" fill="#F1F1F1" rx="92.3318" ry="20.8664" style="stroke:#181818;stroke-width:0.5;"/><text fill="#000000" font-family="sans-serif" font-size="14" lengthAdjust="spacing" textLength="147" x="175.3318" y="468.713">UC4 - Vote on a post</text></g><g id="elem_UC5"><ellipse cx="249.0935" cy="546.8187" fill="#F1F1F1" rx="109.5935" ry="24.3187" style="stroke:#181818;stroke-width:0.5;"/><text fill="#000000" font-family="sans-serif" font-size="14" lengthAdjust="spacing" textLength="185" x="156.5935" y="549.6654">UC5 - Vote on a comment</text></g><g id="elem_UC6"><ellipse cx="249.0935" cy="630.8187" fill="#F1F1F1" rx="109.5935" ry="24.3187" style="stroke:#181818;stroke-width:0.5;"/><text fill="#000000" font-family="sans-serif" font-size="14" lengthAdjust="spacing" textLength="185" x="156.5935" y="633.6654">UC6 - Comment on a post</text></g><g id="elem_UC7"><ellipse cx="248.9443" cy="310.1889" fill="#F1F1F1" rx="111.4443" ry="24.6889" style="stroke:#181818;stroke-width:0.5;"/><text fill="#000000" font-family="sans-serif" font-size="14" lengthAdjust="spacing" textLength="189" x="154.4443" y="313.0355">UC7 - Reply to a comment</text></g><g id="elem_UC8"><ellipse cx="248.8536" cy="59.8707" fill="#F1F1F1" rx="77.3536" ry="17.8707" style="stroke:#181818;stroke-width:0.5;"/><text fill="#000000" font-family="sans-serif" font-size="14" lengthAdjust="spacing" textLength="112" x="190.1333" y="63.5454">UC8 - View post</text></g><g id="elem_UC9"><ellipse cx="248.8991" cy="143.0798" fill="#F1F1F1" rx="135.8991" ry="29.5798" style="stroke:#181818;stroke-width:0.5;"/><text fill="#000000" font-family="sans-serif" font-size="14" lengthAdjust="spacing" textLength="241" x="128.3991" y="145.9265">UC9 - Check user accounts details</text></g><!--entity Visitor--><g id="elem_Visitor"><ellipse cx="29.5" cy="156.5" fill="#F1F1F1" rx="8" ry="8" style="stroke:#181818;stroke-width:0.5;"/><path d="M29.5,164.5 L29.5,191.5 M16.5,172.5 L42.5,172.5 M29.5,191.5 L16.5,206.5 M29.5,191.5 L42.5,206.5 " fill="none" style="stroke:#181818;stroke-width:0.5;"/><text fill="#000000" font-family="sans-serif" font-size="14" lengthAdjust="spacing" textLength="47" x="6" y="220.9951">Visitor</text></g><!--entity User--><g id="elem_User"><ellipse cx="29.5" cy="398.5" fill="#F1F1F1" rx="8" ry="8" style="stroke:#181818;stroke-width:0.5;"/><path d="M29.5,406.5 L29.5,433.5 M16.5,414.5 L42.5,414.5 M29.5,433.5 L16.5,448.5 M29.5,433.5 L42.5,448.5 " fill="none" style="stroke:#181818;stroke-width:0.5;"/><text fill="#000000" font-family="sans-serif" font-size="14" lengthAdjust="spacing" textLength="31" x="14" y="462.9951">User</text></g><!--link Visitor to UC1--><g id="link_Visitor_UC1"><path d="M53.3652,190.52 C82.9224,196.364 135.718,206.802 178.872,215.333 " fill="none" id="Visitor-UC1" style="stroke:#181818;stroke-width:1.0;"/></g><!--link Visitor to UC8--><g id="link_Visitor_UC8"><path d="M46.9534,147.611 C56.6509,129.359 70.6517,108.784 89,96 C113.731,78.768 145.404,69.644 173.961,64.863 " fill="none" id="Visitor-UC8" style="stroke:#181818;stroke-width:1.0;"/></g><!--link Visitor to UC9--><g id="link_Visitor_UC9"><path d="M53.3652,181.48 C76.1057,176.984 112.602,169.768 147.88,162.794 " fill="none" id="Visitor-UC9" style="stroke:#181818;stroke-width:1.0;"/></g><!--reverse link Visitor to User--><g id="link_Visitor_User"><path d="M29.5,244.24 C29.5,292.731 29.5,341.223 29.5,389.715 " fill="none" id="Visitor-backto-User" style="stroke:#181818;stroke-width:1.0;"/><polygon fill="none" points="22.5001,244.197,29.5,224.197,36.5001,244.196,22.5001,244.197" style="stroke:#181818;stroke-width:1.0;"/></g><!--link User to UC3--><g id="link_User_UC3"><path d="M45.1085,425.448 C71.968,420.755 130.789,410.478 178.216,402.192 " fill="none" id="User-UC3" style="stroke:#181818;stroke-width:1.0;"/></g><!--link User to UC4--><g id="link_User_UC4"><path d="M45.1085,430.552 C71.3965,435.145 128.301,445.087 175.174,453.276 " fill="none" id="User-UC4" style="stroke:#181818;stroke-width:1.0;"/></g><!--link User to UC5--><g id="link_User_UC5"><path d="M45.0584,454.879 C55.2946,471.355 70.4534,491.597 89,504 C109.442,517.671 134.094,527.01 157.819,533.384 " fill="none" id="User-UC5" style="stroke:#181818;stroke-width:1.0;"/></g><!--link User to UC6--><g id="link_User_UC6"><path d="M34.2955,466.091 C39.9776,502.724 54.0895,557.107 89,589 C105.8631,604.4057 127.714,614.2844 149.789,620.586 " fill="none" id="User-UC6" style="stroke:#181818;stroke-width:1.0;"/></g><!--link User to UC7--><g id="link_User_UC7"><path d="M45.0337,401.084 C55.2599,384.593 70.4171,364.349 89,352 C108.856,338.805 132.674,329.75 155.758,323.537 " fill="none" id="User-UC7" style="stroke:#181818;stroke-width:1.0;"/></g><!--SRC=[PT7DReCm303WEqzXSUSmzGSgxTPg3x2gtTbBNOWACKg2gchRky-Xj38R5vpumnPsI-S8aS7RkebmifvCjEooSB6kHuyTz6WkMDC-tbg2b4PNjwH0nuvDuxaZY7xGcT3WYQ_MrN36Db0c3vh87lAZ3LQ2733054-fGo0lxja8yjrk1s_iXmu-w5CevV2L3O4C1iaUjYzGm9wz_4P3q7E8OImh2QqMehQUC1BWg2Qqq6WfwCX2sCtLKglLJ1dkEd8FkD9mdNhUq_yghZKi1RvJtzxIAlwMBBMiKczBLrsgqc2JUZPaBY2N7j0O7bmCSAA8jdsCPfDsCGqUYc8SrknOpO-ZVrwzVXUFFMNfVJSB5IzLl5BnMiMbVFtp2m00]--></g></svg>