<?xml version="1.0" encoding="us-ascii" standalone="no"?><svg xmlns="http://www.w3.org/2000/svg" xmlns:xlink="http://www.w3.org/1999/xlink" contentStyleType="text/css" height="394px" preserveAspectRatio="none" style="width:488px;height:394px;background:#FFFFFF;" version="1.1" viewBox="0 0 488 394" width="488px" zoomAndPan="magnify"><defs/><g><text fill="#000000" font-family="sans-serif" font-size="14" font-weight="bold" lengthAdjust="spacing" textLength="460" x="10" y="27.9951">US 007: Reply to a comment - System Sequence Diagram</text><rect fill="#FFFFFF" height="175.7969" style="stroke:#181818;stroke-width:1.0;" width="10" x="93.25" y="128.5938"/><rect fill="#FFFFFF" height="29.1328" style="stroke:#181818;stroke-width:1.0;" width="10" x="316.25" y="149.7266"/><rect fill="#FFFFFF" height="29.1328" style="stroke:#181818;stroke-width:1.0;" width="10" x="316.25" y="207.9922"/><rect fill="#FFFFFF" height="29.1328" style="stroke:#181818;stroke-width:1.0;" width="10" x="316.25" y="266.2578"/><line style="stroke:#181818;stroke-width:0.5;stroke-dasharray:5.0,5.0;" x1="97.75" x2="97.75" y1="118.5938" y2="313.3906"/><line style="stroke:#181818;stroke-width:0.5;stroke-dasharray:5.0,5.0;" x1="321.25" x2="321.25" y1="118.5938" y2="313.3906"/><text fill="#000000" font-family="sans-serif" font-size="14" lengthAdjust="spacing" textLength="31" x="79.75" y="115.292">User</text><ellipse cx="98.25" cy="50.7969" fill="#E2E2F0" rx="8" ry="8" style="stroke:#181818;stroke-width:0.5;"/><path d="M98.25,58.7969 L98.25,85.7969 M85.25,66.7969 L111.25,66.7969 M98.25,85.7969 L85.25,100.7969 M98.25,85.7969 L111.25,100.7969 " fill="none" style="stroke:#181818;stroke-width:0.5;"/><text fill="#000000" font-family="sans-serif" font-size="14" lengthAdjust="spacing" textLength="31" x="79.75" y="325.3857">User</text><ellipse cx="98.25" cy="337.1875" fill="#E2E2F0" rx="8" ry="8" style="stroke:#181818;stroke-width:0.5;"/><path d="M98.25,345.1875 L98.25,372.1875 M85.25,353.1875 L111.25,353.1875 M98.25,372.1875 L85.25,387.1875 M98.25,372.1875 L111.25,387.1875 " fill="none" style="stroke:#181818;stroke-width:0.5;"/><rect fill="#E2E2F0" height="30.2969" rx="2.5" ry="2.5" style="stroke:#181818;stroke-width:0.5;" width="160" x="241.25" y="87.2969"/><text fill="#000000" font-family="sans-serif" font-size="14" lengthAdjust="spacing" textLength="146" x="248.25" y="107.292">DDD Forum Website</text><rect fill="#E2E2F0" height="30.2969" rx="2.5" ry="2.5" style="stroke:#181818;stroke-width:0.5;" width="160" x="241.25" y="312.3906"/><text fill="#000000" font-family="sans-serif" font-size="14" lengthAdjust="spacing" textLength="146" x="248.25" y="332.3857">DDD Forum Website</text><rect fill="#FFFFFF" height="175.7969" style="stroke:#181818;stroke-width:1.0;" width="10" x="93.25" y="128.5938"/><rect fill="#FFFFFF" height="29.1328" style="stroke:#181818;stroke-width:1.0;" width="10" x="316.25" y="149.7266"/><rect fill="#FFFFFF" height="29.1328" style="stroke:#181818;stroke-width:1.0;" width="10" x="316.25" y="207.9922"/><rect fill="#FFFFFF" height="29.1328" style="stroke:#181818;stroke-width:1.0;" width="10" x="316.25" y="266.2578"/><polygon fill="#181818" points="304.25,145.7266,314.25,149.7266,304.25,153.7266,308.25,149.7266" style="stroke:#181818;stroke-width:1.0;"/><line style="stroke:#181818;stroke-width:1.0;" x1="103.25" x2="310.25" y1="149.7266" y2="149.7266"/><text fill="#000000" font-family="sans-serif" font-size="13" font-weight="bold" lengthAdjust="spacing" textLength="9" x="110.25" y="144.6606">1</text><text fill="#000000" font-family="sans-serif" font-size="13" lengthAdjust="spacing" textLength="181" x="123.25" y="144.6606">selects post with comments</text><polygon fill="#181818" points="114.25,174.8594,104.25,178.8594,114.25,182.8594,110.25,178.8594" style="stroke:#181818;stroke-width:1.0;"/><line style="stroke:#181818;stroke-width:1.0;stroke-dasharray:2.0,2.0;" x1="108.25" x2="320.25" y1="178.8594" y2="178.8594"/><text fill="#000000" font-family="sans-serif" font-size="13" font-weight="bold" lengthAdjust="spacing" textLength="9" x="120.25" y="173.7935">2</text><text fill="#000000" font-family="sans-serif" font-size="13" lengthAdjust="spacing" textLength="172" x="133.25" y="173.7935">displays comments in post</text><polygon fill="#181818" points="304.25,203.9922,314.25,207.9922,304.25,211.9922,308.25,207.9922" style="stroke:#181818;stroke-width:1.0;"/><line style="stroke:#181818;stroke-width:1.0;" x1="103.25" x2="310.25" y1="207.9922" y2="207.9922"/><text fill="#000000" font-family="sans-serif" font-size="13" font-weight="bold" lengthAdjust="spacing" textLength="8" x="110.25" y="202.9263">3</text><text fill="#000000" font-family="sans-serif" font-size="13" lengthAdjust="spacing" textLength="164" x="122.25" y="202.9263">selects comment to reply</text><polygon fill="#181818" points="114.25,233.125,104.25,237.125,114.25,241.125,110.25,237.125" style="stroke:#181818;stroke-width:1.0;"/><line style="stroke:#181818;stroke-width:1.0;stroke-dasharray:2.0,2.0;" x1="108.25" x2="320.25" y1="237.125" y2="237.125"/><text fill="#000000" font-family="sans-serif" font-size="13" font-weight="bold" lengthAdjust="spacing" textLength="9" x="120.25" y="232.0591">4</text><text fill="#000000" font-family="sans-serif" font-size="13" lengthAdjust="spacing" textLength="123" x="133.25" y="232.0591">displays reply form</text><polygon fill="#181818" points="304.25,262.2578,314.25,266.2578,304.25,270.2578,308.25,266.2578" style="stroke:#181818;stroke-width:1.0;"/><line style="stroke:#181818;stroke-width:1.0;" x1="103.25" x2="310.25" y1="266.2578" y2="266.2578"/><text fill="#000000" font-family="sans-serif" font-size="13" font-weight="bold" lengthAdjust="spacing" textLength="9" x="110.25" y="261.1919">5</text><text fill="#000000" font-family="sans-serif" font-size="13" lengthAdjust="spacing" textLength="130" x="123.25" y="261.1919">enters reply content</text><polygon fill="#181818" points="114.25,291.3906,104.25,295.3906,114.25,299.3906,110.25,295.3906" style="stroke:#181818;stroke-width:1.0;"/><line style="stroke:#181818;stroke-width:1.0;stroke-dasharray:2.0,2.0;" x1="108.25" x2="320.25" y1="295.3906" y2="295.3906"/><text fill="#000000" font-family="sans-serif" font-size="13" font-weight="bold" lengthAdjust="spacing" textLength="9" x="120.25" y="290.3247">6</text><text fill="#000000" font-family="sans-serif" font-size="13" lengthAdjust="spacing" textLength="127" x="133.25" y="290.3247">displays notification</text><!--SRC=[dP3DQiCm48JlUeh1TqDk1HzwCds0cj3pHjcq2zPFfNMAtpwIWaqXBPJgD5hjDpjQ5PqPnmc7mzE0Luxp2WqWsE0SUqMFQStA3XD_BkmjOnHwJ-HW32qQ_E9Ed8gs6XAwO-RKWJAgC96IYfL8nQWRnn4l8IqERtpAejpwIhN1SYNbEsLGJbNed-ix1cIUsMf635dn9VgnvSkjkPxTenAjMWNwub6z1fmbnvdMlACGtmntYpC_cloSOzjEMLMgE_j7YiRX4f8pVvbSfd7QA1lApQlv3kqHVfteWyf5BAa4ltMRnt_V0000]--></g></svg>