<?xml version="1.0" encoding="us-ascii" standalone="no"?><svg xmlns="http://www.w3.org/2000/svg" xmlns:xlink="http://www.w3.org/1999/xlink" contentStyleType="text/css" height="394px" preserveAspectRatio="none" style="width:521px;height:394px;background:#FFFFFF;" version="1.1" viewBox="0 0 521 394" width="521px" zoomAndPan="magnify"><defs/><g><text fill="#000000" font-family="sans-serif" font-size="14" font-weight="bold" lengthAdjust="spacing" textLength="417" x="51.25" y="27.9951">US012: Perform a login - System Sequence Diagram</text><rect fill="#FFFFFF" height="175.7969" style="stroke:#181818;stroke-width:1.0;" width="10" x="18.5" y="128.5938"/><rect fill="#FFFFFF" height="29.1328" style="stroke:#181818;stroke-width:1.0;" width="10" x="430.5" y="149.7266"/><rect fill="#FFFFFF" height="29.1328" style="stroke:#181818;stroke-width:1.0;" width="10" x="430.5" y="207.9922"/><rect fill="#FFFFFF" height="29.1328" style="stroke:#181818;stroke-width:1.0;" width="10" x="430.5" y="266.2578"/><line style="stroke:#181818;stroke-width:0.5;stroke-dasharray:5.0,5.0;" x1="23" x2="23" y1="118.5938" y2="313.3906"/><line style="stroke:#181818;stroke-width:0.5;stroke-dasharray:5.0,5.0;" x1="435.5" x2="435.5" y1="118.5938" y2="313.3906"/><text fill="#000000" font-family="sans-serif" font-size="14" lengthAdjust="spacing" textLength="31" x="5" y="115.292">User</text><ellipse cx="23.5" cy="50.7969" fill="#E3E3E3" rx="8" ry="8" style="stroke:#181818;stroke-width:0.5;"/><path d="M23.5,58.7969 L23.5,85.7969 M10.5,66.7969 L36.5,66.7969 M23.5,85.7969 L10.5,100.7969 M23.5,85.7969 L36.5,100.7969 " fill="none" style="stroke:#181818;stroke-width:0.5;"/><text fill="#000000" font-family="sans-serif" font-size="14" lengthAdjust="spacing" textLength="31" x="5" y="325.3857">User</text><ellipse cx="23.5" cy="337.1875" fill="#E3E3E3" rx="8" ry="8" style="stroke:#181818;stroke-width:0.5;"/><path d="M23.5,345.1875 L23.5,372.1875 M10.5,353.1875 L36.5,353.1875 M23.5,372.1875 L10.5,387.1875 M23.5,372.1875 L36.5,387.1875 " fill="none" style="stroke:#181818;stroke-width:0.5;"/><rect fill="#E3E3E3" height="30.2969" rx="2.5" ry="2.5" style="stroke:#181818;stroke-width:0.5;" width="160" x="355.5" y="87.2969"/><text fill="#000000" font-family="sans-serif" font-size="14" lengthAdjust="spacing" textLength="146" x="362.5" y="107.292">DDD Forum Website</text><rect fill="#E3E3E3" height="30.2969" rx="2.5" ry="2.5" style="stroke:#181818;stroke-width:0.5;" width="160" x="355.5" y="312.3906"/><text fill="#000000" font-family="sans-serif" font-size="14" lengthAdjust="spacing" textLength="146" x="362.5" y="332.3857">DDD Forum Website</text><rect fill="#FFFFFF" height="175.7969" style="stroke:#181818;stroke-width:1.0;" width="10" x="18.5" y="128.5938"/><rect fill="#FFFFFF" height="29.1328" style="stroke:#181818;stroke-width:1.0;" width="10" x="430.5" y="149.7266"/><rect fill="#FFFFFF" height="29.1328" style="stroke:#181818;stroke-width:1.0;" width="10" x="430.5" y="207.9922"/><rect fill="#FFFFFF" height="29.1328" style="stroke:#181818;stroke-width:1.0;" width="10" x="430.5" y="266.2578"/><polygon fill="#181818" points="418.5,145.7266,428.5,149.7266,418.5,153.7266,422.5,149.7266" style="stroke:#181818;stroke-width:1.0;"/><line style="stroke:#181818;stroke-width:1.0;" x1="28.5" x2="424.5" y1="149.7266" y2="149.7266"/><text fill="#000000" font-family="sans-serif" font-size="13" font-weight="bold" lengthAdjust="spacing" textLength="9" x="35.5" y="144.6606">1</text><text fill="#000000" font-family="sans-serif" font-size="13" lengthAdjust="spacing" textLength="157" x="48.5" y="144.6606">selects the option to join</text><polygon fill="#181818" points="39.5,174.8594,29.5,178.8594,39.5,182.8594,35.5,178.8594" style="stroke:#181818;stroke-width:1.0;"/><line style="stroke:#181818;stroke-width:1.0;stroke-dasharray:2.0,2.0;" x1="33.5" x2="434.5" y1="178.8594" y2="178.8594"/><text fill="#000000" font-family="sans-serif" font-size="13" font-weight="bold" lengthAdjust="spacing" textLength="9" x="45.5" y="173.7935">2</text><text fill="#000000" font-family="sans-serif" font-size="13" lengthAdjust="spacing" textLength="250" x="58.5" y="173.7935">displays create account and login page</text><polygon fill="#181818" points="418.5,203.9922,428.5,207.9922,418.5,211.9922,422.5,207.9922" style="stroke:#181818;stroke-width:1.0;"/><line style="stroke:#181818;stroke-width:1.0;" x1="28.5" x2="424.5" y1="207.9922" y2="207.9922"/><text fill="#000000" font-family="sans-serif" font-size="13" font-weight="bold" lengthAdjust="spacing" textLength="8" x="35.5" y="202.9263">3</text><text fill="#000000" font-family="sans-serif" font-size="13" lengthAdjust="spacing" textLength="165" x="47.5" y="202.9263">selects the option to login</text><polygon fill="#181818" points="39.5,233.125,29.5,237.125,39.5,241.125,35.5,237.125" style="stroke:#181818;stroke-width:1.0;"/><line style="stroke:#181818;stroke-width:1.0;stroke-dasharray:2.0,2.0;" x1="33.5" x2="434.5" y1="237.125" y2="237.125"/><text fill="#000000" font-family="sans-serif" font-size="13" font-weight="bold" lengthAdjust="spacing" textLength="9" x="45.5" y="232.0591">4</text><text fill="#000000" font-family="sans-serif" font-size="13" lengthAdjust="spacing" textLength="122" x="58.5" y="232.0591">displays login page</text><polygon fill="#181818" points="418.5,262.2578,428.5,266.2578,418.5,270.2578,422.5,266.2578" style="stroke:#181818;stroke-width:1.0;"/><line style="stroke:#181818;stroke-width:1.0;" x1="28.5" x2="424.5" y1="266.2578" y2="266.2578"/><text fill="#000000" font-family="sans-serif" font-size="13" font-weight="bold" lengthAdjust="spacing" textLength="9" x="35.5" y="261.1919">5</text><text fill="#000000" font-family="sans-serif" font-size="13" lengthAdjust="spacing" textLength="370" x="48.5" y="261.1919">types and submits requested data (username, password)</text><polygon fill="#181818" points="39.5,291.3906,29.5,295.3906,39.5,299.3906,35.5,295.3906" style="stroke:#181818;stroke-width:1.0;"/><line style="stroke:#181818;stroke-width:1.0;stroke-dasharray:2.0,2.0;" x1="33.5" x2="434.5" y1="295.3906" y2="295.3906"/><text fill="#000000" font-family="sans-serif" font-size="13" font-weight="bold" lengthAdjust="spacing" textLength="9" x="45.5" y="290.3247">6</text><text fill="#000000" font-family="sans-serif" font-size="13" lengthAdjust="spacing" textLength="305" x="58.5" y="290.3247">validates data and displays success notification</text><!--SRC=[hP51ImD138Nl-oj2JmeMr6CHJujdOIcUqzbq6zsPh9DCo_vxisifKg4AUXiooVVUI_IDqu0P8qH94dPP8e7bGfMUVWOCRzXHOsDFa2aOfgx_sg0xREN0gOCjzafLPMpUkcvkx-vNy4nvApa2GYyT9rX2CwfHX8RU2wL0K3Dspgag32OP5ckbl01Kc1wLQnW77Z0PBEgwXYV99S8BRPIDvZwlpiLZRGRn7eq-2HKMarJYPdh3N8Fbu_dK2fHwJwTWEm8PZ2M12RmA9vyw8S_5Zi27vV8xiMKTUXmLGgPf5aEGuZamjSTj3BvPHxJq4__tXcVmdnt_WpqR1z8vgvPDP3UQfvFxyLjeqH2kYeycZ7JZGge7oUtrPUENhE-nPyUwv0oVT4zfj8H0gf34UCi1frrTpFK1]--></g></svg>