<?xml version="1.0" encoding="us-ascii" standalone="no"?><svg xmlns="http://www.w3.org/2000/svg" xmlns:xlink="http://www.w3.org/1999/xlink" contentStyleType="text/css" height="930px" preserveAspectRatio="none" style="width:1863px;height:930px;background:#FFFFFF;" version="1.1" viewBox="0 0 1863 930" width="1863px" zoomAndPan="magnify"><defs/><g><text fill="#000000" font-family="sans-serif" font-size="14" font-weight="bold" lengthAdjust="spacing" textLength="342" x="759.75" y="27.9951">US 003: Create a post - Sequence Diagram</text><rect fill="#FFFFFF" height="636.9531" style="stroke:#181818;stroke-width:1.0;" width="10" x="445.5" y="195.125"/><rect fill="#FFFFFF" height="578.6875" style="stroke:#181818;stroke-width:1.0;" width="10" x="630" y="224.2578"/><rect fill="#FFFFFF" height="512.4219" style="stroke:#181818;stroke-width:1.0;" width="10" x="635" y="261.3906"/><rect fill="#FFFFFF" height="436.9922" style="stroke:#181818;stroke-width:1.0;" width="10" x="981.5" y="336.8203"/><rect fill="#FFFFFF" height="145.6641" style="stroke:#181818;stroke-width:1.0;" width="10" x="1201.5" y="365.9531"/><rect fill="#FFFFFF" height="87.3984" style="stroke:#181818;stroke-width:1.0;" width="10" x="1371.5" y="395.0859"/><rect fill="#FFFFFF" height="29.1328" style="stroke:#181818;stroke-width:1.0;" width="10" x="1480.5" y="424.2188"/><rect fill="#FFFFFF" height="29.1328" style="stroke:#181818;stroke-width:1.0;" width="10" x="1564.5" y="540.75"/><rect fill="#FFFFFF" height="29.1328" style="stroke:#181818;stroke-width:1.0;" width="10" x="1658.5" y="599.0156"/><rect fill="#FFFFFF" height="29.1328" style="stroke:#181818;stroke-width:1.0;" width="10" x="1751" y="657.2813"/><rect fill="#FFFFFF" height="29.1328" style="stroke:#181818;stroke-width:1.0;" width="10" x="1827" y="715.5469"/><line style="stroke:#181818;stroke-width:0.5;stroke-dasharray:5.0,5.0;" x1="23" x2="23" y1="118.5938" y2="850.0781"/><line style="stroke:#181818;stroke-width:0.5;stroke-dasharray:5.0,5.0;" x1="450.5" x2="450.5" y1="118.5938" y2="850.0781"/><line style="stroke:#181818;stroke-width:0.5;stroke-dasharray:5.0,5.0;" x1="634.5" x2="634.5" y1="118.5938" y2="850.0781"/><line style="stroke:#181818;stroke-width:0.5;stroke-dasharray:5.0,5.0;" x1="834.5" x2="834.5" y1="305.0391" y2="850.0781"/><line style="stroke:#181818;stroke-width:0.5;stroke-dasharray:5.0,5.0;" x1="986.5" x2="986.5" y1="118.5938" y2="850.0781"/><line style="stroke:#181818;stroke-width:0.5;stroke-dasharray:5.0,5.0;" x1="1206" x2="1206" y1="118.5938" y2="850.0781"/><line style="stroke:#181818;stroke-width:0.5;stroke-dasharray:5.0,5.0;" x1="1376" x2="1376" y1="118.5938" y2="850.0781"/><line style="stroke:#181818;stroke-width:0.5;stroke-dasharray:5.0,5.0;" x1="1485.5" x2="1485.5" y1="118.5938" y2="850.0781"/><line style="stroke:#181818;stroke-width:0.5;stroke-dasharray:5.0,5.0;" x1="1569.5" x2="1569.5" y1="118.5938" y2="850.0781"/><line style="stroke:#181818;stroke-width:0.5;stroke-dasharray:5.0,5.0;" x1="1663.5" x2="1663.5" y1="118.5938" y2="850.0781"/><line style="stroke:#181818;stroke-width:0.5;stroke-dasharray:5.0,5.0;" x1="1755.5" x2="1755.5" y1="118.5938" y2="850.0781"/><line style="stroke:#181818;stroke-width:0.5;stroke-dasharray:5.0,5.0;" x1="1831.5" x2="1831.5" y1="118.5938" y2="850.0781"/><text fill="#000000" font-family="sans-serif" font-size="14" lengthAdjust="spacing" textLength="31" x="5" y="115.292">User</text><ellipse cx="23.5" cy="50.7969" fill="#E2E2F0" rx="8" ry="8" style="stroke:#181818;stroke-width:0.5;"/><path d="M23.5,58.7969 L23.5,85.7969 M10.5,66.7969 L36.5,66.7969 M23.5,85.7969 L10.5,100.7969 M23.5,85.7969 L36.5,100.7969 " fill="none" style="stroke:#181818;stroke-width:0.5;"/><text fill="#000000" font-family="sans-serif" font-size="14" lengthAdjust="spacing" textLength="31" x="5" y="862.0732">User</text><ellipse cx="23.5" cy="873.875" fill="#E2E2F0" rx="8" ry="8" style="stroke:#181818;stroke-width:0.5;"/><path d="M23.5,881.875 L23.5,908.875 M10.5,889.875 L36.5,889.875 M23.5,908.875 L10.5,923.875 M23.5,908.875 L36.5,923.875 " fill="none" style="stroke:#181818;stroke-width:0.5;"/><rect fill="#E2E2F0" height="30.2969" rx="2.5" ry="2.5" style="stroke:#181818;stroke-width:0.5;" width="96" x="402.5" y="87.2969"/><text fill="#000000" font-family="sans-serif" font-size="14" lengthAdjust="spacing" textLength="82" x="409.5" y="107.292">postRouter</text><rect fill="#E2E2F0" height="30.2969" rx="2.5" ry="2.5" style="stroke:#181818;stroke-width:0.5;" width="96" x="402.5" y="849.0781"/><text fill="#000000" font-family="sans-serif" font-size="14" lengthAdjust="spacing" textLength="82" x="409.5" y="869.0732">postRouter</text><rect fill="#E2E2F0" height="30.2969" rx="2.5" ry="2.5" style="stroke:#181818;stroke-width:0.5;" width="253" x="508.5" y="87.2969"/><text fill="#000000" font-family="sans-serif" font-size="14" lengthAdjust="spacing" textLength="239" x="515.5" y="107.292">postRouter:createPostController</text><rect fill="#E2E2F0" height="30.2969" rx="2.5" ry="2.5" style="stroke:#181818;stroke-width:0.5;" width="253" x="508.5" y="849.0781"/><text fill="#000000" font-family="sans-serif" font-size="14" lengthAdjust="spacing" textLength="239" x="515.5" y="869.0732">postRouter:createPostController</text><rect fill="#E2E2F0" height="30.2969" rx="2.5" ry="2.5" style="stroke:#181818;stroke-width:0.5;" width="126" x="771.5" y="849.0781"/><text fill="#000000" font-family="sans-serif" font-size="14" lengthAdjust="spacing" textLength="112" x="778.5" y="869.0732">CreatePostDTO</text><rect fill="#E2E2F0" height="30.2969" rx="2.5" ry="2.5" style="stroke:#181818;stroke-width:0.5;" width="158" x="907.5" y="87.2969"/><text fill="#000000" font-family="sans-serif" font-size="14" lengthAdjust="spacing" textLength="144" x="914.5" y="107.292">useCase:CreatePost</text><rect fill="#E2E2F0" height="30.2969" rx="2.5" ry="2.5" style="stroke:#181818;stroke-width:0.5;" width="158" x="907.5" y="849.0781"/><text fill="#000000" font-family="sans-serif" font-size="14" lengthAdjust="spacing" textLength="144" x="914.5" y="869.0732">useCase:CreatePost</text><rect fill="#E2E2F0" height="30.2969" rx="2.5" ry="2.5" style="stroke:#181818;stroke-width:0.5;" width="117" x="1148" y="87.2969"/><text fill="#000000" font-family="sans-serif" font-size="14" lengthAdjust="spacing" textLength="103" x="1155" y="107.292">:MemberRepo</text><rect fill="#E2E2F0" height="30.2969" rx="2.5" ry="2.5" style="stroke:#181818;stroke-width:0.5;" width="117" x="1148" y="849.0781"/><text fill="#000000" font-family="sans-serif" font-size="14" lengthAdjust="spacing" textLength="103" x="1155" y="869.0732">:MemberRepo</text><rect fill="#E2E2F0" height="30.2969" rx="2.5" ry="2.5" style="stroke:#181818;stroke-width:0.5;" width="109" x="1322" y="87.2969"/><text fill="#000000" font-family="sans-serif" font-size="14" lengthAdjust="spacing" textLength="95" x="1329" y="107.292">:MemberMap</text><rect fill="#E2E2F0" height="30.2969" rx="2.5" ry="2.5" style="stroke:#181818;stroke-width:0.5;" width="109" x="1322" y="849.0781"/><text fill="#000000" font-family="sans-serif" font-size="14" lengthAdjust="spacing" textLength="95" x="1329" y="869.0732">:MemberMap</text><rect fill="#E2E2F0" height="30.2969" rx="2.5" ry="2.5" style="stroke:#181818;stroke-width:0.5;" width="64" x="1453.5" y="87.2969"/><text fill="#000000" font-family="sans-serif" font-size="14" lengthAdjust="spacing" textLength="50" x="1460.5" y="107.292">:Result</text><rect fill="#E2E2F0" height="30.2969" rx="2.5" ry="2.5" style="stroke:#181818;stroke-width:0.5;" width="64" x="1453.5" y="849.0781"/><text fill="#000000" font-family="sans-serif" font-size="14" lengthAdjust="spacing" textLength="50" x="1460.5" y="869.0732">:Result</text><rect fill="#E2E2F0" height="30.2969" rx="2.5" ry="2.5" style="stroke:#181818;stroke-width:0.5;" width="84" x="1527.5" y="87.2969"/><text fill="#000000" font-family="sans-serif" font-size="14" lengthAdjust="spacing" textLength="70" x="1534.5" y="107.292">:PostTitle</text><rect fill="#E2E2F0" height="30.2969" rx="2.5" ry="2.5" style="stroke:#181818;stroke-width:0.5;" width="84" x="1527.5" y="849.0781"/><text fill="#000000" font-family="sans-serif" font-size="14" lengthAdjust="spacing" textLength="70" x="1534.5" y="869.0732">:PostTitle</text><rect fill="#E2E2F0" height="30.2969" rx="2.5" ry="2.5" style="stroke:#181818;stroke-width:0.5;" width="84" x="1621.5" y="87.2969"/><text fill="#000000" font-family="sans-serif" font-size="14" lengthAdjust="spacing" textLength="70" x="1628.5" y="107.292">:PostText</text><rect fill="#E2E2F0" height="30.2969" rx="2.5" ry="2.5" style="stroke:#181818;stroke-width:0.5;" width="84" x="1621.5" y="849.0781"/><text fill="#000000" font-family="sans-serif" font-size="14" lengthAdjust="spacing" textLength="70" x="1628.5" y="869.0732">:PostText</text><rect fill="#E2E2F0" height="30.2969" rx="2.5" ry="2.5" style="stroke:#181818;stroke-width:0.5;" width="81" x="1715.5" y="87.2969"/><text fill="#000000" font-family="sans-serif" font-size="14" lengthAdjust="spacing" textLength="67" x="1722.5" y="107.292">:PostSlug</text><rect fill="#E2E2F0" height="30.2969" rx="2.5" ry="2.5" style="stroke:#181818;stroke-width:0.5;" width="81" x="1715.5" y="849.0781"/><text fill="#000000" font-family="sans-serif" font-size="14" lengthAdjust="spacing" textLength="67" x="1722.5" y="869.0732">:PostSlug</text><rect fill="#E2E2F0" height="30.2969" rx="2.5" ry="2.5" style="stroke:#181818;stroke-width:0.5;" width="51" x="1806.5" y="87.2969"/><text fill="#000000" font-family="sans-serif" font-size="14" lengthAdjust="spacing" textLength="37" x="1813.5" y="107.292">:Post</text><rect fill="#E2E2F0" height="30.2969" rx="2.5" ry="2.5" style="stroke:#181818;stroke-width:0.5;" width="51" x="1806.5" y="849.0781"/><text fill="#000000" font-family="sans-serif" font-size="14" lengthAdjust="spacing" textLength="37" x="1813.5" y="869.0732">:Post</text><rect fill="#FFFFFF" height="636.9531" style="stroke:#181818;stroke-width:1.0;" width="10" x="445.5" y="195.125"/><rect fill="#FFFFFF" height="578.6875" style="stroke:#181818;stroke-width:1.0;" width="10" x="630" y="224.2578"/><rect fill="#FFFFFF" height="512.4219" style="stroke:#181818;stroke-width:1.0;" width="10" x="635" y="261.3906"/><rect fill="#FFFFFF" height="436.9922" style="stroke:#181818;stroke-width:1.0;" width="10" x="981.5" y="336.8203"/><rect fill="#FFFFFF" height="145.6641" style="stroke:#181818;stroke-width:1.0;" width="10" x="1201.5" y="365.9531"/><rect fill="#FFFFFF" height="87.3984" style="stroke:#181818;stroke-width:1.0;" width="10" x="1371.5" y="395.0859"/><rect fill="#FFFFFF" height="29.1328" style="stroke:#181818;stroke-width:1.0;" width="10" x="1480.5" y="424.2188"/><rect fill="#FFFFFF" height="29.1328" style="stroke:#181818;stroke-width:1.0;" width="10" x="1564.5" y="540.75"/><rect fill="#FFFFFF" height="29.1328" style="stroke:#181818;stroke-width:1.0;" width="10" x="1658.5" y="599.0156"/><rect fill="#FFFFFF" height="29.1328" style="stroke:#181818;stroke-width:1.0;" width="10" x="1751" y="657.2813"/><rect fill="#FFFFFF" height="29.1328" style="stroke:#181818;stroke-width:1.0;" width="10" x="1827" y="715.5469"/><polygon fill="#181818" points="433.5,191.125,443.5,195.125,433.5,199.125,437.5,195.125" style="stroke:#181818;stroke-width:1.0;"/><line style="stroke:#181818;stroke-width:1.0;" x1="23.5" x2="439.5" y1="195.125" y2="195.125"/><text fill="#000000" font-family="sans-serif" font-size="13" font-weight="bold" lengthAdjust="spacing" textLength="9" x="30.5" y="167.3599">1</text><text fill="#000000" font-family="sans-serif" font-size="13" lengthAdjust="spacing" textLength="34" x="43.5" y="144.6606">POST</text><text fill="#000000" font-family="sans-serif" font-size="13" lengthAdjust="spacing" textLength="101" x="47.5" y="159.7935">("api/v1/posts/",</text><text fill="#000000" font-family="sans-serif" font-size="13" lengthAdjust="spacing" textLength="209" x="47.5" y="174.9263">{"Authorization": accessToken},</text><text fill="#000000" font-family="sans-serif" font-size="13" lengthAdjust="spacing" textLength="386" x="47.5" y="190.0591">{"title":"string", "postType":"string", "text":"string", "link":""})</text><polygon fill="#181818" points="618,220.2578,628,224.2578,618,228.2578,622,224.2578" style="stroke:#181818;stroke-width:1.0;"/><line style="stroke:#181818;stroke-width:1.0;" x1="455.5" x2="624" y1="224.2578" y2="224.2578"/><text fill="#000000" font-family="sans-serif" font-size="13" font-weight="bold" lengthAdjust="spacing" textLength="9" x="462.5" y="219.1919">2</text><text fill="#000000" font-family="sans-serif" font-size="13" lengthAdjust="spacing" textLength="111" x="475.5" y="219.1919">execute(req, res)</text><line style="stroke:#181818;stroke-width:1.0;" x1="640" x2="687" y1="248.3906" y2="248.3906"/><line style="stroke:#181818;stroke-width:1.0;" x1="687" x2="687" y1="248.3906" y2="261.3906"/><line style="stroke:#181818;stroke-width:1.0;" x1="646" x2="687" y1="261.3906" y2="261.3906"/><polygon fill="#181818" points="656,257.3906,646,261.3906,656,265.3906,652,261.3906" style="stroke:#181818;stroke-width:1.0;"/><text fill="#000000" font-family="sans-serif" font-size="13" font-weight="bold" lengthAdjust="spacing" textLength="8" x="652" y="243.3247">3</text><text fill="#000000" font-family="sans-serif" font-size="13" lengthAdjust="spacing" textLength="138" x="664" y="243.3247">executeImpl(req, res)</text><polygon fill="#181818" points="759.5,291.5234,769.5,295.5234,759.5,299.5234,763.5,295.5234" style="stroke:#181818;stroke-width:1.0;"/><line style="stroke:#181818;stroke-width:1.0;" x1="645" x2="765.5" y1="295.5234" y2="295.5234"/><text fill="#000000" font-family="sans-serif" font-size="13" font-weight="bold" lengthAdjust="spacing" textLength="9" x="652" y="290.4575">4</text><text fill="#000000" font-family="sans-serif" font-size="13" lengthAdjust="spacing" textLength="4" x="665" y="290.4575">&#160;</text><rect fill="#E2E2F0" height="30.2969" rx="2.5" ry="2.5" style="stroke:#181818;stroke-width:0.5;" width="126" x="771.5" y="274.3906"/><text fill="#000000" font-family="sans-serif" font-size="14" lengthAdjust="spacing" textLength="112" x="778.5" y="294.3857">CreatePostDTO</text><polygon fill="#181818" points="969.5,332.8203,979.5,336.8203,969.5,340.8203,973.5,336.8203" style="stroke:#181818;stroke-width:1.0;"/><line style="stroke:#181818;stroke-width:1.0;" x1="645" x2="975.5" y1="336.8203" y2="336.8203"/><text fill="#000000" font-family="sans-serif" font-size="13" font-weight="bold" lengthAdjust="spacing" textLength="9" x="652" y="331.7544">5</text><text fill="#000000" font-family="sans-serif" font-size="13" lengthAdjust="spacing" textLength="83" x="665" y="331.7544">execute(dto)</text><polygon fill="#181818" points="1189.5,361.9531,1199.5,365.9531,1189.5,369.9531,1193.5,365.9531" style="stroke:#181818;stroke-width:1.0;"/><line style="stroke:#181818;stroke-width:1.0;" x1="991.5" x2="1195.5" y1="365.9531" y2="365.9531"/><text fill="#000000" font-family="sans-serif" font-size="13" font-weight="bold" lengthAdjust="spacing" textLength="9" x="998.5" y="360.8872">6</text><text fill="#000000" font-family="sans-serif" font-size="13" lengthAdjust="spacing" textLength="178" x="1011.5" y="360.8872">getMemberByUserId(userId)</text><polygon fill="#181818" points="1359.5,391.0859,1369.5,395.0859,1359.5,399.0859,1363.5,395.0859" style="stroke:#181818;stroke-width:1.0;"/><line style="stroke:#181818;stroke-width:1.0;" x1="1211.5" x2="1365.5" y1="395.0859" y2="395.0859"/><text fill="#000000" font-family="sans-serif" font-size="13" font-weight="bold" lengthAdjust="spacing" textLength="9" x="1218.5" y="390.02">7</text><text fill="#000000" font-family="sans-serif" font-size="13" lengthAdjust="spacing" textLength="128" x="1231.5" y="390.02">toDomain(member)</text><polygon fill="#181818" points="1468.5,420.2188,1478.5,424.2188,1468.5,428.2188,1472.5,424.2188" style="stroke:#181818;stroke-width:1.0;"/><line style="stroke:#181818;stroke-width:1.0;" x1="1381.5" x2="1474.5" y1="424.2188" y2="424.2188"/><text fill="#000000" font-family="sans-serif" font-size="13" font-weight="bold" lengthAdjust="spacing" textLength="9" x="1388.5" y="419.1528">8</text><text fill="#000000" font-family="sans-serif" font-size="13" lengthAdjust="spacing" textLength="67" x="1401.5" y="419.1528">getValue()</text><polygon fill="#181818" points="1392.5,449.3516,1382.5,453.3516,1392.5,457.3516,1388.5,453.3516" style="stroke:#181818;stroke-width:1.0;"/><line style="stroke:#181818;stroke-width:1.0;stroke-dasharray:2.0,2.0;" x1="1386.5" x2="1484.5" y1="453.3516" y2="453.3516"/><text fill="#000000" font-family="sans-serif" font-size="13" font-weight="bold" lengthAdjust="spacing" textLength="9" x="1398.5" y="448.2856">9</text><text fill="#000000" font-family="sans-serif" font-size="13" lengthAdjust="spacing" textLength="35" x="1411.5" y="448.2856">value</text><polygon fill="#181818" points="1222.5,478.4844,1212.5,482.4844,1222.5,486.4844,1218.5,482.4844" style="stroke:#181818;stroke-width:1.0;"/><line style="stroke:#181818;stroke-width:1.0;stroke-dasharray:2.0,2.0;" x1="1216.5" x2="1375.5" y1="482.4844" y2="482.4844"/><text fill="#000000" font-family="sans-serif" font-size="13" font-weight="bold" lengthAdjust="spacing" textLength="19" x="1228.5" y="477.4185">10</text><text fill="#000000" font-family="sans-serif" font-size="13" lengthAdjust="spacing" textLength="55" x="1251.5" y="477.4185">member</text><polygon fill="#181818" points="1002.5,507.6172,992.5,511.6172,1002.5,515.6172,998.5,511.6172" style="stroke:#181818;stroke-width:1.0;"/><line style="stroke:#181818;stroke-width:1.0;stroke-dasharray:2.0,2.0;" x1="996.5" x2="1205.5" y1="511.6172" y2="511.6172"/><text fill="#000000" font-family="sans-serif" font-size="13" font-weight="bold" lengthAdjust="spacing" textLength="18" x="1008.5" y="506.5513">11</text><text fill="#000000" font-family="sans-serif" font-size="13" lengthAdjust="spacing" textLength="55" x="1030.5" y="506.5513">member</text><polygon fill="#181818" points="1552.5,536.75,1562.5,540.75,1552.5,544.75,1556.5,540.75" style="stroke:#181818;stroke-width:1.0;"/><line style="stroke:#181818;stroke-width:1.0;" x1="991.5" x2="1558.5" y1="540.75" y2="540.75"/><text fill="#000000" font-family="sans-serif" font-size="13" font-weight="bold" lengthAdjust="spacing" textLength="18" x="998.5" y="535.6841">12</text><text fill="#000000" font-family="sans-serif" font-size="13" lengthAdjust="spacing" textLength="128" x="1020.5" y="535.6841">create(request.title)</text><polygon fill="#181818" points="1002.5,565.8828,992.5,569.8828,1002.5,573.8828,998.5,569.8828" style="stroke:#181818;stroke-width:1.0;"/><line style="stroke:#181818;stroke-width:1.0;stroke-dasharray:2.0,2.0;" x1="996.5" x2="1568.5" y1="569.8828" y2="569.8828"/><text fill="#000000" font-family="sans-serif" font-size="13" font-weight="bold" lengthAdjust="spacing" textLength="17" x="1008.5" y="564.8169">13</text><text fill="#000000" font-family="sans-serif" font-size="13" lengthAdjust="spacing" textLength="134" x="1029.5" y="564.8169">Result.ok&lt;PostTitle&gt;</text><polygon fill="#181818" points="1646.5,595.0156,1656.5,599.0156,1646.5,603.0156,1650.5,599.0156" style="stroke:#181818;stroke-width:1.0;"/><line style="stroke:#181818;stroke-width:1.0;" x1="991.5" x2="1652.5" y1="599.0156" y2="599.0156"/><text fill="#000000" font-family="sans-serif" font-size="13" font-weight="bold" lengthAdjust="spacing" textLength="18" x="998.5" y="593.9497">14</text><text fill="#000000" font-family="sans-serif" font-size="13" lengthAdjust="spacing" textLength="130" x="1020.5" y="593.9497">create(request.text)</text><polygon fill="#181818" points="1002.5,624.1484,992.5,628.1484,1002.5,632.1484,998.5,628.1484" style="stroke:#181818;stroke-width:1.0;"/><line style="stroke:#181818;stroke-width:1.0;stroke-dasharray:2.0,2.0;" x1="996.5" x2="1662.5" y1="628.1484" y2="628.1484"/><text fill="#000000" font-family="sans-serif" font-size="13" font-weight="bold" lengthAdjust="spacing" textLength="18" x="1008.5" y="623.0825">15</text><text fill="#000000" font-family="sans-serif" font-size="13" lengthAdjust="spacing" textLength="136" x="1030.5" y="623.0825">Result.ok&lt;PostText&gt;</text><polygon fill="#181818" points="1739,653.2813,1749,657.2813,1739,661.2813,1743,657.2813" style="stroke:#181818;stroke-width:1.0;"/><line style="stroke:#181818;stroke-width:1.0;" x1="991.5" x2="1745" y1="657.2813" y2="657.2813"/><text fill="#000000" font-family="sans-serif" font-size="13" font-weight="bold" lengthAdjust="spacing" textLength="18" x="998.5" y="652.2153">16</text><text fill="#000000" font-family="sans-serif" font-size="13" lengthAdjust="spacing" textLength="75" x="1020.5" y="652.2153">create(title)</text><polygon fill="#181818" points="1002.5,682.4141,992.5,686.4141,1002.5,690.4141,998.5,686.4141" style="stroke:#181818;stroke-width:1.0;"/><line style="stroke:#181818;stroke-width:1.0;stroke-dasharray:2.0,2.0;" x1="996.5" x2="1755" y1="686.4141" y2="686.4141"/><text fill="#000000" font-family="sans-serif" font-size="13" font-weight="bold" lengthAdjust="spacing" textLength="18" x="1008.5" y="681.3481">17</text><text fill="#000000" font-family="sans-serif" font-size="13" lengthAdjust="spacing" textLength="134" x="1030.5" y="681.3481">Result.ok&lt;PostSlug&gt;</text><polygon fill="#181818" points="1815,711.5469,1825,715.5469,1815,719.5469,1819,715.5469" style="stroke:#181818;stroke-width:1.0;"/><line style="stroke:#181818;stroke-width:1.0;" x1="991.5" x2="1821" y1="715.5469" y2="715.5469"/><text fill="#000000" font-family="sans-serif" font-size="13" font-weight="bold" lengthAdjust="spacing" textLength="18" x="998.5" y="710.481">18</text><text fill="#000000" font-family="sans-serif" font-size="13" lengthAdjust="spacing" textLength="106" x="1020.5" y="710.481">create(props, id)</text><polygon fill="#181818" points="1002.5,740.6797,992.5,744.6797,1002.5,748.6797,998.5,744.6797" style="stroke:#181818;stroke-width:1.0;"/><line style="stroke:#181818;stroke-width:1.0;stroke-dasharray:2.0,2.0;" x1="996.5" x2="1831" y1="744.6797" y2="744.6797"/><text fill="#000000" font-family="sans-serif" font-size="13" font-weight="bold" lengthAdjust="spacing" textLength="18" x="1008.5" y="739.6138">19</text><text fill="#000000" font-family="sans-serif" font-size="13" lengthAdjust="spacing" textLength="107" x="1030.5" y="739.6138">Result.ok&lt;Post&gt;</text><polygon fill="#181818" points="651,769.8125,641,773.8125,651,777.8125,647,773.8125" style="stroke:#181818;stroke-width:1.0;"/><line style="stroke:#181818;stroke-width:1.0;stroke-dasharray:2.0,2.0;" x1="645" x2="985.5" y1="773.8125" y2="773.8125"/><text fill="#000000" font-family="sans-serif" font-size="13" font-weight="bold" lengthAdjust="spacing" textLength="19" x="657" y="768.7466">20</text><text fill="#000000" font-family="sans-serif" font-size="13" lengthAdjust="spacing" textLength="107" x="680" y="768.7466">Result.ok&lt;Post&gt;</text><polygon fill="#181818" points="466.5,798.9453,456.5,802.9453,466.5,806.9453,462.5,802.9453" style="stroke:#181818;stroke-width:1.0;"/><line style="stroke:#181818;stroke-width:1.0;stroke-dasharray:2.0,2.0;" x1="460.5" x2="634" y1="802.9453" y2="802.9453"/><text fill="#000000" font-family="sans-serif" font-size="13" font-weight="bold" lengthAdjust="spacing" textLength="18" x="472.5" y="797.8794">21</text><text fill="#000000" font-family="sans-serif" font-size="13" lengthAdjust="spacing" textLength="107" x="494.5" y="797.8794">Result.ok&lt;Post&gt;</text><polygon fill="#181818" points="34.5,828.0781,24.5,832.0781,34.5,836.0781,30.5,832.0781" style="stroke:#181818;stroke-width:1.0;"/><line style="stroke:#181818;stroke-width:1.0;stroke-dasharray:2.0,2.0;" x1="28.5" x2="449.5" y1="832.0781" y2="832.0781"/><text fill="#000000" font-family="sans-serif" font-size="13" font-weight="bold" lengthAdjust="spacing" textLength="18" x="40.5" y="827.0122">22</text><text fill="#000000" font-family="sans-serif" font-size="13" lengthAdjust="spacing" textLength="107" x="62.5" y="827.0122">Result.ok&lt;Post&gt;</text><!--SRC=[bLLDRzim3BthLmW-fK3ITDXD60fioQM7eaMIxhIBvX2P4CTozH6q6_hVPqgE9DjAWfvCKezyf4JIHfWAwCkQtjrzPNIXW1kWd3PI6pgZQtYrK9T0buBl53yGResixU4tA49uQQIYnOi6LL2kAGgauSg8KZIyDhJ0A2jfJGU8wZaOArq2pwrX8MkZP5Lrlhc3VfH5G2mtJywda_imgs71DR08TzYezk7i4R3Q5JJIuQAQnJto9e6rsW2r0cqhp-Z5mJaciC4d2GKuBOU2DnD1hPB1h2kx2nXKCfXmJWW-89tT9-_4wFFJUlEhffE2Ds9-_3B7CpqlfgtjN_7TcZzIYR_S25aNZFAo1AqtSW_rXqSOLmihj56YtXLJ_zYRzwPlD5XCQgX4lMyDnSSDSOqcZjYNQGC54JFETGUZy0PbYvWeU9rI1VecHigsKyvuDVh3eQa-oH0QynpXwVmi87Phh79hP4AVz7CKqJKsCACxC5xzyOvl_x2TMFT9uYJzJg8S0xKjpgYHItdWefuSd6taZdCG9FJrlUyI-Cah2vF4fPiB_w6pFjCHqMGBGtGIVL2ZJucaFiEaV4M3QptvaOohkux-jOPHPTtBOqzOqERMZK1INnpg88t8VLMtSlyjOExJD6ACJ1RjB8sJQ8t3771dd8Hh6RIGSG8OOCoFUoRmvuftY-WaN256o8ZO1HWJ1z96oKPFgTWEY8b7NoGSaVM8pYw32q6IIKoidrX0WuryWIh_aqmsPHiA1_rYa8Z_3m00]--></g></svg>